<?xml version="1.0" encoding="utf-8"?>
<!-- Generator: Adobe Illustrator 16.0.0, SVG Export Plug-In . SVG Version: 6.00 Build 0)  -->
<!DOCTYPE svg PUBLIC "-//W3C//DTD SVG 1.1//EN" "http://www.w3.org/Graphics/SVG/1.1/DTD/svg11.dtd">
<svg version="1.1" id="Warstwa_1" xmlns="http://www.w3.org/2000/svg" xmlns:xlink="http://www.w3.org/1999/xlink" x="0px" y="0px"
	 width="137.117px" height="119.613px" viewBox="0 0 137.117 119.613" enable-background="new 0 0 137.117 119.613"
	 xml:space="preserve">
<g>
	<path fill="#343045" d="M98.035,0c3.102,0,6.923,2.188,8.494,4.861l29.41,50.084c1.57,2.674,1.57,7.049,0,9.723l-29.41,50.084
		c-1.571,2.674-5.393,4.861-8.494,4.861H39.079c-3.101,0-6.923-2.188-8.493-4.861L1.178,64.669c-1.57-2.674-1.57-7.05,0-9.724
		L30.586,4.862C32.156,2.188,35.978,0,39.079,0H98.035L98.035,0z"/>
</g>
<g id="big-hexagon">
	<path fill="#343045" stroke="#FFFFFF" stroke-width="4" stroke-miterlimit="10" d="M93.731,7.33c3.102,0,6.923,2.188,8.493,4.862
		l25.106,42.753c1.57,2.674,1.57,7.05,0,9.724l-25.106,42.754c-1.57,2.674-5.392,4.861-8.493,4.861H43.383
		c-3.101,0-6.923-2.188-8.493-4.861L9.786,64.669c-1.57-2.674-1.57-7.05,0-9.724L34.89,12.192c1.57-2.674,5.392-4.862,8.493-4.862
		H93.731L93.731,7.33z"/>
	<path fill="#343045" stroke="#FFFFFF" stroke-width="4" stroke-miterlimit="10" d="M93.731,7.33c3.102,0,6.923,2.188,8.493,4.862
		l25.106,42.753c1.57,2.674,1.57,7.05,0,9.724l-25.106,42.754c-1.57,2.674-5.392,4.861-8.493,4.861H43.383
		c-3.101,0-6.923-2.188-8.493-4.861L9.786,64.669c-1.57-2.674-1.57-7.05,0-9.724L34.89,12.192c1.57-2.674,5.392-4.862,8.493-4.862
		H93.731L93.731,7.33z"/>
</g>
<g>
</g>
<g>
	<path fill-rule="evenodd" clip-rule="evenodd" fill="#FFFFFF" d="M50.998,78.722c-0.052,0.299-0.003,0.447,0.306,0.201
		c0.829,0.619,1.788,0.357,2.691,0.357c9.159,0.002,18.318-0.041,27.477-0.027c5.762,0.01,6.444-0.832,5.575-6.494
		c-0.207-1.35-1.695-1.695-1.91-3.111c6.419,0,12.676-0.006,18.936,0.002c4.211,0.006,4.514-0.383,3.972-4.557
		c-0.153-1.176-0.776-1.809-1.666-2.408c-1.796-1.205-3.622-2.331-5.665-3.084c-1.798-0.662-2.384-1.489-0.917-3.306
		c2.774-3.433,2.79-7.412,1.457-11.417c-1.103-3.308-3.353-4.595-7.513-4.57c-4.086,0.024-6.403,1.23-7.27,4.396
		c-1.022,3.731-1.262,7.638,1.146,10.96c1.411,1.948,0.801,2.596-0.795,3.951c-2.465,2.094-7.101,2.131-6.949,6.877
		c0.003,0.107-0.322,0.352-0.439,0.32c-1.604-0.418-3.195-0.996-4.318-2.221c-0.951-1.037,0.402-1.607,0.892-2.23
		c3.907-4.976,4.026-10.409,1.886-16.036c-1.469-3.86-4.656-5.208-8.574-5.322c-4.125-0.12-8.234,0.431-9.858,4.695
		c-1.953,5.127-2.236,10.676,1.147,15.366c1.916,2.656,1.334,3.764-1.141,4.92c-0.798,0.373-1.323,1.342-2.714,1.057
		c1.209-3.035-0.96-4.234-3.079-5.428c-1.247-0.701-2.516-1.385-3.833-1.939c-1.843-0.776-2.652-1.439-1.008-3.482
		c2.923-3.631,2.762-7.863,1.109-11.972c-1.352-3.359-4.317-4.03-7.639-3.931c-3.004,0.089-5.727,0.884-6.672,3.934
		c-1.243,4.012-1.454,8.238,1.199,11.819c1.304,1.761,0.75,2.373-0.705,3.232c-1.857,1.095-3.628,2.334-5.496,3.409
		c-2.526,1.453-1.644,3.842-1.465,5.832c0.185,2.053,2.135,1.068,3.265,1.086c6.532,0.096,13.066,0.047,20.095,0.047
		C49.888,72.688,50.616,75.726,50.998,78.722z"/>
	<path fill-rule="evenodd" clip-rule="evenodd" fill="#FFFFFF" d="M50.998,78.722c-0.382-2.996-1.11-6.033,1.527-9.074
		c-7.029,0-13.563,0.049-20.095-0.047c-1.13-0.018-3.081,0.967-3.265-1.086c-0.179-1.99-1.061-4.379,1.465-5.832
		c1.868-1.074,3.639-2.314,5.496-3.409c1.455-0.859,2.009-1.471,0.705-3.232c-2.652-3.582-2.441-7.807-1.199-11.819
		c0.945-3.05,3.667-3.845,6.672-3.934c3.322-0.099,6.288,0.572,7.639,3.931c1.653,4.108,1.814,8.341-1.109,11.972
		c-1.644,2.042-0.835,2.706,1.008,3.482c1.317,0.554,2.586,1.238,3.833,1.939c2.118,1.193,4.288,2.393,3.079,5.428
		c1.391,0.285,1.916-0.684,2.714-1.057c2.475-1.156,3.057-2.264,1.141-4.92c-3.384-4.69-3.101-10.238-1.147-15.366
		c1.624-4.265,5.733-4.815,9.858-4.695c3.918,0.114,7.105,1.462,8.574,5.322c2.141,5.627,2.021,11.06-1.886,16.036
		c-0.489,0.623-1.843,1.193-0.892,2.23c1.123,1.225,2.715,1.803,4.318,2.221c0.117,0.031,0.442-0.213,0.439-0.32
		c-0.151-4.746,4.484-4.783,6.949-6.877c1.596-1.355,2.206-2.003,0.795-3.951c-2.408-3.322-2.169-7.229-1.146-10.96
		c0.866-3.166,3.184-4.373,7.27-4.396c4.16-0.025,6.41,1.262,7.513,4.57c1.333,4.006,1.317,7.985-1.457,11.417
		c-1.467,1.817-0.881,2.645,0.917,3.306c2.043,0.753,3.869,1.879,5.665,3.084c0.89,0.6,1.513,1.232,1.666,2.408
		c0.542,4.174,0.239,4.563-3.972,4.557c-6.26-0.008-12.517-0.002-18.936-0.002c0.215,1.416,1.703,1.762,1.91,3.111
		c0.869,5.662,0.187,6.504-5.575,6.494c-9.158-0.014-18.317,0.029-27.477,0.027c-0.904,0-1.862,0.262-2.691-0.357l-0.082-0.209
		L50.998,78.722z"/>
	<path fill-rule="evenodd" clip-rule="evenodd" fill="#FFFFFF" d="M50.998,78.722l0.224-0.008l0.082,0.209
		C50.995,79.169,50.946,79.021,50.998,78.722z"/>
</g>
<g>
</g>
<g>
</g>
<g>
</g>
<g>
</g>
<g>
</g>
<g>
</g>
</svg>
