<?xml version="1.0" encoding="utf-8"?>
<!-- Generator: Adobe Illustrator 16.0.0, SVG Export Plug-In . SVG Version: 6.00 Build 0)  -->
<!DOCTYPE svg PUBLIC "-//W3C//DTD SVG 1.1//EN" "http://www.w3.org/Graphics/SVG/1.1/DTD/svg11.dtd">
<svg version="1.1" id="Warstwa_1" xmlns="http://www.w3.org/2000/svg" xmlns:xlink="http://www.w3.org/1999/xlink" x="0px" y="0px"
	 width="300px" height="300px" viewBox="0 0 300 300" enable-background="new 0 0 300 300" xml:space="preserve">
<polygon fill="#29235C" stroke="#2D2E83" stroke-miterlimit="10" points="33.905,217.896 68.978,222.909 74.753,258.744 
	152.121,181.376 111.274,140.529 "/>
<polygon fill="#29235C" stroke="#FFFFFF" stroke-width="4" stroke-miterlimit="10" points="51.28,213.185 77.302,216.902 
	81.586,243.49 138.988,186.088 108.683,155.782 "/>
<polygon fill="#29235C" stroke="#2D2E83" stroke-miterlimit="10" points="274.413,217.896 239.341,222.909 233.565,258.744 
	156.197,181.376 197.044,140.529 "/>
<polygon fill="#29235C" stroke="#FFFFFF" stroke-width="4" stroke-miterlimit="10" points="257.038,213.185 231.017,216.902 
	226.732,243.49 169.33,186.088 199.636,155.782 "/>
<g>
	<path fill="#29235C" d="M199.555,29.147c4.797,0,10.709,3.384,13.138,7.52l45.495,77.474c2.428,4.137,2.428,10.904,0,15.04
		l-45.495,77.476c-2.429,4.135-8.341,7.52-13.138,7.52h-91.198c-4.797,0-10.709-3.386-13.138-7.522l-45.49-77.471
		c-2.429-4.136-2.429-10.906,0-15.043l45.49-77.472c2.43-4.137,8.341-7.521,13.138-7.521H199.555L199.555,29.147z"/>
</g>
<path fill="#29235C" stroke="#FFFFFF" stroke-width="6" stroke-miterlimit="10" d="M192.897,40.486
	c4.797,0,10.709,3.384,13.138,7.52l38.835,66.134c2.431,4.137,2.431,10.905,0,15.041l-38.835,66.137
	c-2.429,4.136-8.341,7.521-13.138,7.521h-77.883c-4.798,0-10.709-3.386-13.138-7.522l-38.832-66.133
	c-2.43-4.136-2.429-10.906,0-15.043l38.832-66.134c2.429-4.136,8.34-7.52,13.138-7.52H192.897L192.897,40.486z"/>
<polygon fill="#FFFFFF" points="153.809,63.459 161.363,80.613 180.013,82.497 166.032,94.982 170.002,113.3 153.809,103.862 
	137.615,113.3 141.587,94.982 127.606,82.497 146.255,80.613 "/>
<polygon fill="#FFFFFF" points="188.936,119.278 196.492,136.433 215.141,138.314 201.158,150.801 205.13,169.119 188.936,159.681 
	172.744,169.119 176.714,150.801 162.733,138.314 181.385,136.433 "/>
<polygon fill="#FFFFFF" points="119.437,119.278 126.99,136.433 145.64,138.315 131.658,150.801 135.63,169.119 119.437,159.681 
	103.242,169.119 107.215,150.801 93.234,138.315 111.883,136.433 "/>
<g>
</g>
<polygon fill="#29235C" points="156.196,216.214 166.099,238.696 190.54,241.165 172.217,257.528 177.42,281.537 156.196,269.168 
	134.972,281.537 140.178,257.528 121.854,241.165 146.296,238.696 "/>
<polygon fill="#29235C" points="53.629,43.235 57.9,52.933 68.442,53.998 60.539,61.056 62.783,71.411 53.629,66.076 44.474,71.411 
	46.72,61.056 38.815,53.998 49.358,52.933 "/>
<polygon fill="#29235C" points="254.685,43.235 258.957,52.933 269.499,53.998 261.596,61.056 263.84,71.411 254.685,66.076 
	245.529,71.411 247.775,61.056 239.871,53.998 250.414,52.933 "/>
<g>
</g>
<g>
</g>
<g>
</g>
<g>
</g>
<g>
</g>
<g>
</g>
</svg>
