<?xml version="1.0" encoding="utf-8"?>
<!-- Generator: Adobe Illustrator 16.0.0, SVG Export Plug-In . SVG Version: 6.00 Build 0)  -->
<!DOCTYPE svg PUBLIC "-//W3C//DTD SVG 1.1//EN" "http://www.w3.org/Graphics/SVG/1.1/DTD/svg11.dtd">
<svg version="1.1" id="Warstwa_1" xmlns="http://www.w3.org/2000/svg" xmlns:xlink="http://www.w3.org/1999/xlink" x="0px" y="0px"
	 width="137.117px" height="119.613px" viewBox="0 0 137.117 119.613" enable-background="new 0 0 137.117 119.613"
	 xml:space="preserve">
<g>
	<path fill="#343045" d="M98.035,0c3.102,0,6.923,2.188,8.494,4.861l29.41,50.084c1.569,2.674,1.569,7.049,0,9.723l-29.41,50.084
		c-1.571,2.674-5.393,4.861-8.494,4.861H39.079c-3.101,0-6.923-2.188-8.493-4.861L1.178,64.669c-1.57-2.674-1.57-7.05,0-9.724
		L30.586,4.862C32.156,2.188,35.978,0,39.079,0H98.035L98.035,0z"/>
</g>
<g id="big-hexagon">
	<path fill="#343045" stroke="#FFFFFF" stroke-width="4" stroke-miterlimit="10" d="M93.73,7.33c3.103,0,6.924,2.188,8.494,4.862
		l25.105,42.753c1.57,2.674,1.57,7.05,0,9.724l-25.105,42.754c-1.57,2.675-5.393,4.861-8.494,4.861H43.383
		c-3.101,0-6.923-2.188-8.493-4.861L9.786,64.669c-1.57-2.674-1.57-7.05,0-9.724L34.89,12.192c1.57-2.674,5.392-4.862,8.493-4.862
		H93.73L93.73,7.33z"/>
	<path fill="#343045" stroke="#FFFFFF" stroke-width="4" stroke-miterlimit="10" d="M93.73,7.33c3.103,0,6.924,2.188,8.494,4.862
		l25.105,42.753c1.57,2.674,1.57,7.05,0,9.724l-25.105,42.754c-1.57,2.675-5.393,4.861-8.494,4.861H43.383
		c-3.101,0-6.923-2.188-8.493-4.861L9.786,64.669c-1.57-2.674-1.57-7.05,0-9.724L34.89,12.192c1.57-2.674,5.392-4.862,8.493-4.862
		H93.73L93.73,7.33z"/>
</g>
<g transform="translate(0.000000,821.000000) scale(0.100000,-0.100000)">
	<path fill="#FFFFFF" d="M383.623,7865.089c-7.139-1.494-11.494-3.701-15.703-7.9c-1.709-1.709-3.975-4.59-4.971-6.299
		c-0.947-1.67-3.262-4.59-5.088-6.523c-3.975-4.043-6.738-9.395-7.627-14.756c-0.439-2.656-0.605-58.037-0.498-199.619
		c0.166-191.992,0.166-195.986,1.221-198.701c3.486-8.945,9.893-15.244,18.564-18.291c2.988-1.055,10.166-1.055,328.545-1.055
		c278.389,0,325.928,0.117,328.301,0.791c7.129,2.041,13.701,7.129,17.354,13.496c0.938,1.65,3.252,4.57,5.088,6.494
		c3.965,4.033,6.729,9.414,7.617,14.775c0.449,2.646,0.605,58.037,0.498,199.619c-0.156,191.875-0.156,195.967-1.211,198.682
		c-3.428,8.779-9.502,14.863-18.291,18.291c-2.715,1.045-8.184,1.045-327.744,1.104
		C530.947,7865.255,384.228,7865.197,383.623,7865.089z M969.17,7826.183c-0.068-0.449-260.479-158.232-261.084-158.232
		c-0.557,0.059-259.922,157.295-260.742,158.125c-0.225,0.215,117.1,0.381,260.742,0.381
		C851.66,7826.457,969.17,7826.349,969.17,7826.183z M1020.449,7556.144l-0.176-85.986l-46.963,42.393
		c-25.82,23.311-77.041,69.512-113.73,102.676c-56.602,51.123-66.602,60.352-65.771,60.85
		c4.707,2.598,225.029,136.563,225.635,137.178c0.713,0.713,0.83-8.74,1.006-85.176
		C1020.498,7680.832,1020.498,7603.458,1020.449,7556.144z M502.441,7737.199c63.223-38.35,115.01-69.795,115.117-69.912
		c0.059-0.049-4.648-4.473-10.498-9.785c-21.826-19.717-219.072-197.9-219.961-198.73c-0.938-0.781-0.996,7.578-0.996,174.258
		c0,139.98,0.166,174.912,0.723,174.473C387.158,7807.228,439.219,7775.558,502.441,7737.199z M798.447,7654.464
		c8.672-7.842,43.711-39.512,77.871-70.342c34.141-30.84,80.518-72.734,103.066-93.027c37.188-33.594,40.889-37.139,41.064-38.799
		c0.156-1.699,0.049-1.816-1.162-1.475c-0.762,0.225-24.102,20.889-51.826,45.967c-89.434,80.742-170.781,154.199-179.688,162.158
		c-8.516,7.676-8.604,7.793-7.5,8.789c0.605,0.488,1.387,0.938,1.768,0.938C782.373,7668.673,789.775,7662.267,798.447,7654.464z
		 M814.023,7619.318c25-22.549,76.377-68.975,114.229-103.115c37.861-34.16,69.648-62.852,70.596-63.838l1.816-1.729H700.557
		c-165.068,0-300.029,0.186-299.922,0.41c0.117,0.313,49.688,45.186,169.229,153.193c31.611,28.506,58.252,52.607,59.189,53.486
		l1.719,1.611l28.125-17.08c15.479-9.395,29.014-17.52,30.059-18.076c3.037-1.602,13.77-1.826,17.744-0.381
		c1.66,0.605,16.025,9.063,32.012,18.789c15.957,9.727,29.189,17.734,29.453,17.734
		C768.389,7660.382,788.984,7641.925,814.023,7619.318z"/>
</g>
</svg>
