<?xml version="1.0" encoding="utf-8"?>
<!-- Generator: Adobe Illustrator 16.0.0, SVG Export Plug-In . SVG Version: 6.00 Build 0)  -->
<!DOCTYPE svg PUBLIC "-//W3C//DTD SVG 1.1//EN" "http://www.w3.org/Graphics/SVG/1.1/DTD/svg11.dtd">
<svg version="1.1" id="Warstwa_1" xmlns="http://www.w3.org/2000/svg" xmlns:xlink="http://www.w3.org/1999/xlink" x="0px" y="0px"
	 width="518.945px" height="180.657px" viewBox="1041.359 320.311 518.945 180.657"
	 enable-background="new 1041.359 320.311 518.945 180.657" xml:space="preserve">
<g transform="translate(0.000000,822.000000) scale(0.100000,-0.100000)">
	<path d="M11965.224,4628.718v-98.955h-9.795h-9.785v-9.785v-9.79h-9.785h-9.785v14.136c0,11.094-0.654,14.141-3.262,14.141
		c-1.738,0-3.262,1.304-3.262,2.822c0,5.225-9.785,12.402-16.533,12.402c-6.738,0-16.094-7.393-16.094-12.617
		c0-1.958-7.178-2.607-25.01-2.607c-23.496,0-25.01-0.22-25.01-4.351c0-2.393,1.514-4.351,3.252-4.351
		c2.832,0,3.262-2.827,2.832-15.664c-0.645-15.439-0.869-15.869-6.523-16.523l-6.094-0.654l-0.43-253.813l-0.654-253.813
		l-4.785-9.141c-3.262-5.645-8.477-11.309-14.346-14.785c-8.711-5-11.533-5.439-35.889-5.439h-26.533v28.936
		c0,31.094-1.748,36.758-11.963,40.664c-4.141,1.523-5.225,4.131-6.318,14.57c-11.084,91.133-17.607,121.797-53.496,249.688
		c-16.748,59.805-30.449,109.829-30.449,111.353c0,2.173,5.215,2.827,18.701,2.827c26.748,0,26.318,0.654,48.506-65.684
		c9.785-29.58,17.617-55.674,17.178-57.637c-0.439-2.607-2.607-3.911-6.953-3.911c-6.094,0-6.309,0.869-19.795,38.716
		c-7.393,21.528-15.225,40.449-17.188,42.407c-4.346,4.351-10.654,1.304-11.738-5.435c-0.654-4.351,56.982-169.863,60.244-173.125
		c3.701-3.701,12.178-0.654,12.832,4.57c0.439,2.607-5.225,21.523-12.402,41.973c-7.393,20.439-13.262,38.062-13.262,39.15
		c0,1.084,1.963,1.953,4.346,1.953c6.309,0,13.057,7.832,13.057,15.01c0,7.393-35.244,111.572-40.459,119.404
		c-5.215,8.047-15.879,11.309-37.627,11.309h-19.57l-2.393,9.351c-12.402,46.978-28.496,79.385-52.852,105.269l-6.523,6.958
		l6.738,5.654c8.916,7.397,11.963,19.36,10.879,41.543c-1.523,28.491-10.879,37.847-38.066,37.847h-15.869v-27.188
		c0-15.01-0.439-27.188-0.869-27.188c-0.439,0-10.01,4.346-21.318,9.785c-11.094,5.225-28.057,11.748-37.627,14.57
		c-17.402,4.785-18.271,4.785-199.219,5.654l-181.826,0.654l-6.748-5.654c-3.691-3.047-7.178-7.393-7.832-9.355
		c-0.654-1.953-13.047-119.18-27.402-260.337c-14.355-141.147-26.533-257.944-27.188-259.253
		c-0.645-2.168-26.094-2.832-116.787-2.832h-115.928l-10.879-5.215c-5.859-2.607-13.916-7.607-17.832-10.869
		c-7.822-6.533-20.225-29.795-20.225-37.627c0-4.785-0.869-5-13.701-5c-7.832,0-14.785-1.094-16.309-2.617
		c-1.963-1.953-2.617-19.141-2.617-63.945c0-69.59-1.738-63.936,19.795-63.936h12.832v-108.311
		c0-101.133,0.215-108.75,4.131-115.713c4.57-8.701,19.355-17.393,29.365-17.393c5,0,7.393-1.309,8.916-4.785
		c1.309-2.832,3.691-4.785,5.654-4.355c5,0.664,6.963-10.43,2.607-15.225c-2.607-2.822-2.607-4.561-0.654-8.262
		c1.533-2.607,3.916-4.131,5.654-3.486c1.748,0.654,4.355-1.299,6.309-5c2.832-5.43,2.832-6.738,0-8.906
		c-4.561-3.701-0.215-10.879,6.523-10.879c6.094,0,10.01-6.094,8.271-12.617c-1.523-6.309,3.037-11.738,8.486-10
		c5.869,1.738,12.178-4.57,11.084-10.664c-1.299-6.738,4.57-11.953,9.141-8.047c4.561,3.701,14.131-2.393,12.607-8.262
		c-1.523-6.309,4.785-10.439,11.094-6.963c6.523,3.262,13.701,0,14.795-6.963c0.869-5.869,9.785-8.262,11.748-3.262
		c1.738,4.785,11.738,1.738,13.906-4.131c2.402-6.084,13.057-7.607,13.057-1.963c0,5.225,13.271,4.355,14.57-1.074
		c1.748-6.309,13.701-6.309,13.701,0c0,3.477,1.523,4.336,6.523,4.336c3.916,0,7.178-1.299,7.832-3.262
		c2.178-5.215,11.523-3.906,13.711,1.963c2.383,6.094,10,8.486,13.477,4.131c3.916-4.561,11.523-2.607,12.402,3.262
		c0.869,6.309,10.645,11.533,13.477,6.963c3.047-4.775,13.701,0.869,11.963,6.309c-1.738,5.869,6.523,11.748,11.963,8.262
		c5.439-3.252,11.523,1.748,10.01,8.271c-1.523,6.084,5.439,12.832,11.309,11.094c5.869-1.963,10.869,4.121,7.607,9.57
		c-3.477,5.215,2.178,13.047,9.355,13.047c6.309,0,9.131,5.43,5.654,11.094c-3.486,5.654,0.654,14.785,6.084,13.486
		c2.617-0.654,5.01,0.654,6.523,3.916c2.402,4.121,2.188,5.215-1.084,7.607c-4.785,3.477-2.607,17.178,2.393,15.225
		c1.953-0.654,4.141,0.869,5.654,4.131l2.393,5.439h229.238c227.5,0,229.023,0,229.023-4.355c0-2.393,1.084-4.57,2.168-4.57
		c1.309-0.215,3.271-0.43,4.785-0.645c4.355-0.439,6.309-11.963,2.393-14.141c-5.43-2.822-1.953-14.141,3.916-12.607
		c5.879,1.514,10.439-7.617,6.523-12.402c-4.346-5.225-0.859-12.178,5.879-12.178c7.607,0,12.832-7.402,8.916-12.188
		c-3.701-4.561,5.215-14.131,9.355-10c3.916,3.916,13.701-5.439,10-9.785c-3.701-4.57,5.439-13.486,10.01-9.57
		c5,4.141,14.131-2.607,12.832-9.355c-1.309-6.309,6.299-9.785,11.523-5.43c3.701,3.037,15.01-0.879,12.832-4.57
		c-1.963-3.262,3.047-8.711,7.617-8.711c2.168,0,4.346,1.318,5,3.057c1.953,5,13.262,1.084,14.141-4.785
		c0.869-5.654,10.654-6.748,12.607-1.533c1.963,5.01,13.271,4.141,14.58-1.074c1.514-6.094,12.393-6.094,13.916,0
		c1.299,5.215,12.607,6.084,14.57,1.074c1.963-5.215,11.738-4.121,12.617,1.533c0.869,6.084,11.738,9.561,14.57,4.561
		c2.822-5.43,14.131-1.953,12.607,3.916c-1.523,5.439,8.057,10.01,12.832,6.094c1.523-1.299,5.01-1.748,7.402-0.869
		c3.691,1.084,4.57,2.822,3.691,6.738c-1.309,6.748,7.832,13.496,12.832,9.355c4.57-3.916,13.701,5,10.01,9.57
		c-3.486,4.131,4.131,11.094,10,9.355c5.869-1.963,12.842,6.084,9.355,10.43c-3.916,4.785,1.523,12.188,8.916,12.188
		c6.523,0,10.225,6.953,6.309,11.738s0.654,14.355,6.094,12.842c5.869-1.533,9.346,9.785,3.906,12.607
		c-3.906,2.178-1.953,13.701,2.393,14.141c1.533,0.215,3.701,0.43,4.795,0.645c3.467,0.449,2.607,11.094-1.094,12.402
		c-5,1.953-4.131,13.262,1.094,14.57c2.822,0.654,4.346,3.047,4.346,6.523s-1.523,5.664-4.346,6.523
		c-5.449,1.309-6.309,14.58-1.094,14.58c2.168,0,3.262,2.168,3.262,6.299c0,5-1.094,6.533-4.785,7.188
		c-5.645,0.869-9.57,11.738-4.785,13.477c3.701,1.309,3.916,8.262,0.654,11.523c-1.309,1.309-3.701,1.963-5.225,1.309
		c-1.738-0.43-4.131,1.094-5.43,3.701c-2.617,5-1.738,8.271,5.654,21.748c16.094,28.271,25.01,50.459,31.963,78.301
		c4.355,18.047,4.57,23.047,5.225,279.043l0.869,260.332h8.701c6.963,0,9.131-0.869,10.01-4.346
		c0.869-3.481,3.037-4.351,10.654-4.351h9.57v-9.79c0-7.178,0.869-9.785,3.262-9.785c2.607,0,3.262-2.827,3.262-11.963v-11.963
		h22.617c12.607,0,69.6,3.047,126.807,6.528c57.188,3.696,120.049,7.612,139.844,8.696c19.785,1.309,73.945,4.785,120.488,7.617
		c46.328,3.047,85.908,5.435,87.432,5.435c2.178,0,3.047,3.047,3.047,10.874v10.879h-227.285h-227.275v184.863v184.873h-26.104
		h-26.094V4628.718z M11501.308,4542.16c29.355-10.22,52.852-30.669,65.469-56.763c5.215-10.879,89.609-305.361,95.039-331.68
		l1.523-7.393l-13.701,1.519c-61.338,6.743-76.338,12.612-93.516,37.407c-4.141,6.094-7.402,8.921-9.57,8.271
		c-2.607-1.089-3.262,1.523-3.262,15.225v16.743l23.486,11.313c21.523,10.439,23.262,11.738,23.916,18.047
		c0.654,7.612-3.906,13.921-10.654,13.921c-4.785,0-140.273-64.16-145.938-69.165c-6.738-5.654-4.355-16.963,3.916-20.225
		c4.131-1.523,9.785,0.215,28.271,8.916c12.832,6.094,23.496,10.874,23.926,10.874c0.879,0,11.748-16.743,11.748-18.267
		c0-0.435-1.963-1.309-4.561-1.958c-3.047-0.869-4.141-2.393-3.486-5.22c9.785-35.02,15.01-48.281,21.748-55.244
		c4.131-4.131,18.047-12.832,31.094-19.355c31.758-15.879,39.59-24.15,58.73-62.207c17.188-33.926,24.795-42.188,45.459-49.58
		l13.047-4.57l3.477-16.973l3.701-17.178l-11.309-6.953c-38.066-24.15-53.281-31.982-57.422-29.795
		c-9.785,5.215-9.785,7.822-1.309,20.869c6.533,9.57,7.832,13.057,5.879,15.879c-4.346,7.178-10.879,5.654-18.486-4.785
		c-3.916-5.43-7.832-9.785-8.916-10c-0.869,0-5.225,3.262-9.57,7.393l-8.047,7.393l5.869,7.607
		c6.963,9.141,7.617,15.879,1.523,17.842c-5.869,1.963-7.393,0.654-28.926-22.178c-19.141-20.234-21.094-23.711-16.318-28.496
		c4.355-4.355,8.711-3.047,17.402,5.43l8.262,8.047l9.141-8.477c5.215-4.785,9.57-8.916,10.225-9.131
		c0.43-0.225-4.785-8.047-11.533-17.402c-6.738-9.355-12.178-18.486-12.178-20.439c0-7.402-68.945-32.188-91.563-33.066
		l-13.057-0.43l0.225,36.104c0.215,57.412-5,78.076-25.225,99.824c-11.309,11.963-31.104,23.057-46.543,25.674
		c-9.57,1.514-9.795,1.729-10.449,10.869c-0.645,8.486-0.215,9.131,4.795,9.131c13.262,0,23.047,10,23.047,24.141
		c0,4.785-2.178,8.916-7.393,14.141l-7.393,7.393h-79.6h-79.609v19.141v18.921l11.523,5.435c6.748,3.262,13.271,8.486,16.318,12.832
		c4.561,7.178,4.785,9.355,4.785,53.291c0,51.543-1.299,56.763-15.01,65.898c-6.738,4.57-10,5-34.795,5
		c-18.701,0-28.496-0.869-30.234-2.607c-1.963-1.958-2.607-19.795-2.607-67.207c0-54.59,0.43-64.814,3.262-67.207
		c2.393-1.953,3.262-7.607,3.262-22.832v-20.01l-6.523-1.523c-16.309-3.262-23.711-25.664-11.963-37.412
		c2.832-2.822,8.262-5.869,11.963-6.523c5.869-1.299,6.523-2.168,6.523-9.785v-8.486h-24.58h-24.355l-18.057,15.879
		c-16.738,14.57-17.832,16.318-17.832,24.355c-0.215,21.104,48.066,476.748,51.113,483.491
		c6.523,14.355-0.439,13.706,184.004,12.612l166.816-1.084L11501.308,4542.16z M11855.39,4400.354v-56.548l-5.879-0.654
		l-6.094-0.649v57.852v57.856l6.094-0.654l5.879-0.654V4400.354z M11880.399,4400.134v-57.632l-5.869,0.649l-6.094,0.654
		l-0.645,54.375c-0.225,29.795,0,55.459,0.645,56.982c0.439,1.523,3.477,2.827,6.523,2.827h5.439V4400.134z M11855.39,4180.686
		v-150.063h-5.439h-5.439l-0.645,147.891c-0.225,81.338,0,149.199,0.645,150.723c0.654,1.523,3.262,2.607,5.879,2.178l5-0.654
		V4180.686z M11880.399,4180.471v-151.157l-5.869,0.654l-6.094,0.654l-0.645,147.891c-0.225,81.338,0,149.199,0.645,150.723
		c0.439,1.304,3.477,2.607,6.523,2.607h5.439V4180.471z M11317.099,4020.827v-8.701h-52.207h-52.197v8.701v8.701h52.197h52.207
		V4020.827z M11586.571,3902.731c1.729-2.393,0.654-3.701-5.225-6.523c-8.701-4.131-9.131-3.477-3.701,3.916
		C11582.001,3906.208,11583.3,3906.647,11586.571,3902.731z"/>
</g>
<g transform="translate(0.000000,664.000000) scale(0.100000,-0.100000)">
	<path d="M14659.783,3238.049c-68.291-0.654-197.041-4.78-235.977-7.397c-35.234-2.168-75.898-10.869-100.039-20.879
		c-42.852-18.047-95.049-70.684-119.629-121.143l-6.084-12.612l-4.131,5.005c-2.402,2.822-7.402,12.178-11.318,20.659
		c-16.748,35.454-43.711,48.716-100.479,48.716h-13.271l-1.514-68.945c-0.654-37.842-0.879-69.375,0-70.029
		c0.654-0.654,13.047-1.309,27.617-1.309c20.449,0,28.926,0.874,36.758,3.916l10.439,4.131l13.057-8.047
		c7.168-4.346,13.477-8.696,14.131-9.785c0.654-1.304-6.523-24.795-15.879-52.637c-47.197-138.32-79.6-240.107-99.395-311.665
		c-11.523-42.407-48.506-187.905-62.197-245.112l-9.141-38.711h-23.486h-23.711v-8.701v-8.701h41.328
		c31.748,0,41.318-0.645,41.104-2.607c0-1.523-1.309-10.664-2.607-20.225c-2.178-14.57-3.262-17.402-6.963-18.057
		c-2.383-0.439-5.439-2.178-6.738-3.916c-2.178-2.822-2.617-2.822-3.926,0.215c-0.859,2.402-4.775,3.262-16.523,3.262
		c-13.701,0-15.225-0.43-15.225-4.346c0-5.225-3.262-5.869-5.215-0.869c-1.309,3.477-4.355,3.262-23.711-1.523
		c-5.869-1.523-8.037-3.047-7.178-5.439c1.309-3.701-1.084-4.131-4.57-0.654c-1.738,1.748-4.346,1.953-9.131,0.215l-6.738-2.383
		v20.664v20.439h11.963h11.963v70.684v70.684h-12.402h-12.178l1.309,158.34c0.869,86.992,1.514,195.957,1.514,242.07v83.945
		l6.533-0.215c6.523-0.215,9.57-5.654,3.262-5.654c-2.178,0-3.262-2.393-3.262-7.612v-7.612h19.57h19.57v6.309
		c0,3.696-0.869,7.178-2.168,7.832c-2.393,1.523-3.047,92.871-0.654,144.194l1.299,33.062h8.486c7.832,0,8.262,0.435,8.262,6.523
		s-0.43,6.523-8.691,6.523c-6.318,0-8.701,0.869-8.701,3.262c0,5.225-27.188,4.57-29.58-0.435c-1.309-3.262-1.738-2.607-2.832,2.612
		c-0.869,4.57-2.822,6.743-6.309,7.178c-2.607,0.435-4.785,1.738-4.785,2.822c0,1.094-33.701,1.963-84.385,1.963h-84.6
		l-1.309-134.199c-0.869-73.726-1.523-208.789-1.523-300.137v-165.947h-24.355h-24.141l1.514,58.721
		c1.309,47.637,1.094,58.945-1.299,59.6c-1.523,0.43-126.152,1.953-276.865,3.262c-150.723,1.299-318.193,3.042-372.139,3.911
		l-98.301,1.304l-1.309-40.02c-0.654-21.963-2.168-158.984-3.477-304.268c-1.084-145.293-2.832-296.23-3.486-335.371l-1.514-71.348
		h24.131h24.15l0.654-6.953l0.654-7.178l14.131-0.43c48.281-1.963,462.178-18.496,609.639-24.58
		c58.281-2.402,107.002-4.355,108.086-4.355c1.299,0,2.178,10.439,2.178,25.02v24.785l12.617,0.654
		c11.309,0.654,12.393,1.084,12.178,5.664c-0.215,4.775,0.215,4.775,25.664,4.775c21.094,0,26.104-0.654,26.963-3.262
		c0.879-2.393,2.832-2.822,6.094-1.953c3.916,1.299,4.131,1.084,1.523-2.178c-2.607-3.047-1.738-4.785,5.439-13.701
		c4.785-5.439,9.131-11.094,10.01-12.402c0.859-1.299,2.822-1.074,5.215,1.094c3.477,2.832,3.691,2.607,2.393-2.617
		c-1.309-5,0-6.953,9.57-14.785c8.262-7.168,11.523-8.691,13.701-6.953c3.691,3.037,6.309,0.43,3.262-3.262
		c-1.748-1.963,1.084-5,11.094-11.748c12.617-8.701,13.486-8.916,16.309-5.01c3.047,3.701,3.047,3.486,3.262-1.523
		c0-4.561,2.178-6.523,13.486-11.299c12.402-5.654,13.486-5.879,16.094-2.178c2.607,3.477,2.822,3.262,3.047-1.094
		c0-4.131,2.393-5.654,14.355-9.355c13.701-4.121,14.57-4.121,17.393-0.645c2.617,3.691,2.832,3.691,3.047-0.869
		c0-2.607,1.309-5.01,2.832-5.654c1.309-0.439,0.215-0.439-2.832,0c-6.309,1.094-523.721,0.869-541.553-0.215
		c-6.523-0.439-33.057-0.879-58.721-1.094s-54.6-1.084-64.16-1.953c-49.375-4.355,142.891-5.879,773.184-5.879
		c518.506,0,668.574,0.654,753.613,3.262c33.926,1.094,35.449,1.309,19.57,2.617c-9.57,0.869-38.496,1.738-64.16,1.953
		s-51.543,0.439-57.637,0.869c-5.869,0.439-159.414,0.879-341.025,1.309c-193.789,0.654-327.109,1.738-322.324,2.832
		c6.309,1.514,7.822,2.607,6.963,5.869c-0.654,2.393-0.215,4.131,0.859,4.131c1.094,0,1.963-1.514,1.963-3.262
		c0-4.131,0.869-4.131,16.963,1.299c10.664,3.486,13.486,5.449,13.486,8.916c0,3.701,0.439,3.916,3.262,1.748
		c2.832-2.393,5.654-1.748,16.533,3.262c11.963,5.869,13.047,6.738,11.738,11.738c-1.299,5.225-1.299,5.439,2.617,1.963
		c3.691-3.477,4.346-3.262,12.617,3.047c4.775,3.477,10.654,7.832,12.832,9.346c3.477,2.617,3.691,3.701,1.299,6.523
		c-2.607,3.047-2.393,3.486,2.393,2.188c4.141-1.094,7.178,0.645,15.664,9.346c6.523,6.748,9.785,11.309,8.262,12.178
		c-3.916,2.617-2.617,6.094,1.738,4.57c3.047-0.869,6.094,1.738,12.832,10.439c8.271,11.084,8.701,11.963,5.225,15.654
		c-3.486,3.701-3.486,3.701,1.953,2.617c5.01-1.309,6.094-0.215,12.393,12.607c7.178,14.58,8.926,15.664,22.402,14.58
		c2.617-0.225,5.664,4.785,10.879,17.617c3.691,9.785,7.617,18.477,8.262,19.355c0.654,0.654,5.879,1.953,11.748,2.822l10.225,1.523
		v-11.094c0-7.178,1.084-11.523,2.822-11.963c1.309-0.645,131.152-1.523,288.184-2.168c261.865-1.309,285.342-1.094,285.342,2.168
		c0,1.738,9.795-6.738,21.973-19.57c17.617-18.486,24.141-23.711,32.627-26.748c7.832-2.832,11.094-5.225,12.607-9.785
		c1.309-3.486,3.701-6.094,5.879-6.094c2.607,0,3.047-0.654,1.299-2.832c-3.477-3.916,7.393-21.963,11.963-20.01
		c2.617,0.879,2.832,0.439,1.094-1.738c-3.262-3.916,9.346-19.785,14.131-17.832c2.393,0.654,2.832,0.215,1.963-2.178
		c-0.654-2.178,1.738-6.094,6.953-10.654c6.309-6.094,8.711-6.963,11.094-5c2.617,2.168,3.047,1.953,1.738-1.309
		c-1.738-4.57,13.926-15.879,19.355-13.701c2.402,0.869,3.262,0.439,2.402-1.523c-0.654-1.953,2.607-4.561,9.57-7.607
		c5.869-2.402,10.654-3.486,10.654-2.402c0,1.094,0.869,1.963,2.178,1.963c1.084,0,1.953-1.084,1.523-2.607
		c-0.225-1.309,4.346-3.926,10-5.879c9.131-2.822,10.879-2.822,12.617,0c1.523,2.617,1.953,2.393,1.953-0.43
		c0-4.785,21.533-8.047,24.141-3.691c1.523,2.168,1.963,2.168,1.963,0.215c0-1.963,3.906-2.832,11.738-2.832
		c9.57,0,11.963,0.869,12.832,3.916s1.084,3.047,1.309,0.215c0.215-3.047,1.738-3.262,11.084-1.299
		c7.188,1.299,10.879,3.262,10.879,5.43c0,2.393,0.654,2.617,2.832,0.654c4.131-3.262,23.926,3.477,22.402,7.607
		c-0.654,1.748-0.215,3.047,0.654,3.047c1.084,0,2.393-1.084,2.822-2.168c1.084-3.262,19.141,6.738,19.141,10.439
		c0,1.514,1.094,2.178,2.393,1.514c3.477-2.168,19.795,10.01,18.271,13.496c-0.654,1.953,0,2.822,1.523,2.168
		c3.906-1.309,19.141,13.486,17.617,17.188c-0.654,1.953,0,2.607,1.953,1.953c3.701-1.523,15.664,15.225,13.701,18.486
		c-0.654,1.309,0,2.178,1.523,2.178c4.57,0,12.832,18.486,9.785,21.523c-1.738,1.748-1.523,2.402,1.094,2.402
		c4.561,0,11.084,18.047,7.607,21.523c-1.738,1.748-1.523,3.047,1.094,5.01c5,4.131,6.738,20.654,2.383,22.402
		c-1.953,0.654-2.822,1.738-2.168,2.607c2.607,2.393,38.496-6.309,38.496-9.57c0-3.701,0.43-3.701,19.57,2.393
		c8.916,2.822,22.832,9.131,31.104,14.131c9.785,5.879,17.178,8.926,22.178,8.926h7.617v18.262c0,10.225-0.869,19.141-2.168,19.795
		c-1.309,0.869-2.188,28.486-2.188,75.908v74.814l-15.215,12.402l-15.234,12.393v18.057v17.832l8.271,1.523
		c4.346,0.654,10.654,1.299,13.916,1.299h5.879l-1.084,20.02c-0.654,11.094-1.963,33.926-2.607,50.664l-1.533,30.449l-16.309,3.486
		c-17.402,3.477-27.188,7.832-33.066,14.131c-1.953,2.393-7.607,19.795-12.393,38.936s-10.654,40.234-12.832,46.982l-4.355,12.168
		l19.805,1.533c10.654,0.654,24.785,1.299,31.094,1.299h11.748l-1.309,7.188c-0.869,3.691-2.822,8.037-4.775,9.121
		c-10.234,6.533-12.617,11.309-17.842,35.459c-4.561,20.664-6.084,24.58-9.795,25.449c-2.383,0.43-31.748,3.257-65.244,6.304
		c-46.973,4.351-81.338,5.874-150.938,6.958l-90.039,1.523l1.523,20.879c0.654,11.528,1.299,40.02,1.299,63.291
		c0.215,40.02-1.299,55.679-26.963,287.09c-15.01,134.629-27.842,248.379-28.496,252.729c-1.084,7.612-0.645,8.481,9.131,15.005
		c5.879,3.916,10.664,7.178,10.879,7.393c0.439,0.22-0.439,5.879-1.738,12.617l-2.607,12.397l-123.105-0.435
		C14764.188,3238.703,14686.756,3238.269,14659.783,3238.049z M14872.928,3190.202c0-1.958,5.449-51.982,11.973-111.357
		c11.084-101.787,21.738-201.182,23.271-217.49c0.654-6.963,0.43-7.397-11.533-10.879c-17.188-5.435-55.459-24.141-71.768-35.234
		c-7.617-5-20.449-15.654-28.281-23.701c-25.439-25.664-35.889-50.459-34.15-81.348c0.654-10.439,2.402-20.439,4.57-24.575
		c5.225-10.005,17.402-21.099,33.496-30.454c8.701-5.215,13.701-9.346,13.271-11.523c-0.869-4.131-20.889-7.827-26.104-4.565
		c-2.168,1.304-5.215,2.388-7.178,2.388c-1.738,0-2.607,1.309-1.963,3.047c1.963,5.225-3.262,6.094-13.262,2.178
		c-7.617-2.827-9.57-4.57-8.701-7.393c1.084-3.267-1.953-3.916-29.795-5.225c-93.086-4.346-162.461-12.178-182.471-20.225
		c-8.271-3.262-8.486-3.696-8.486-13.486c0.215-19.136,11.748-35.449,27.402-38.496c7.178-1.299,10.664-7.393,4.131-7.393
		c-1.953,0-3.262-1.953-3.262-5.439c0-3.477,1.309-5.439,3.262-5.439c1.738,0,3.271-1.519,3.271-3.262
		c0-1.738-1.533-3.262-3.271-3.262c-1.729,0-3.262-1.953-3.262-4.346s1.533-4.355,3.262-4.355c1.963,0,3.271-2.168,3.271-5.654
		c0-4.131-0.879-5.439-3.271-4.346c-2.393,0.869-3.262-0.215-3.262-4.131c0-3.047,1.533-5.439,3.916-5.879
		c1.953-0.43-9.57-2.168-25.664-3.691c-31.094-2.832-39.58-5.439-55.898-17.402c-10.869-7.832-19.131-21.309-27.402-44.805
		c-5.654-15.654-6.309-21.748-8.477-60.898c-1.094-23.926-2.393-43.711-2.617-43.926c-0.645-0.664-189.004-5.01-215.967-5.01
		c-13.486,0-20.01,0.879-19.58,2.393c0.225,1.309-18.047,12.402-40.449,24.795c-22.402,12.178-41.318,22.627-41.758,23.057
		c-0.43,0.439,1.094,18.047,3.262,38.926l4.131,38.066l11.533,10.439c6.299,5.654,18.701,14.131,27.617,18.486l16.309,8.047
		l16.973,39.15c9.346,21.533,17.617,41.104,18.262,43.281c1.094,3.047-0.869,6.089-6.953,11.523
		c-4.785,4.136-6.738,6.963-4.785,6.309c7.607-2.173,14.141,7.393,34.365,51.328c11.299,24.141,21.309,44.805,22.393,45.459
		c1.094,0.649,8.711,2.607,17.188,4.131l15.439,3.047l8.701,18.486c7.402,16.094,8.701,20.664,8.262,32.188l-0.43,13.486
		l6.738-2.393c5.879-1.958,7.402-1.523,12.178,2.822c3.701,3.486,5.225,7.183,5.225,13.057v8.042l28.496-17.183
		c15.654-9.57,28.701-17.178,28.926-16.748c0.215,0.439,2.168,3.262,4.121,6.528l3.486,5.654l-32.412,19.355
		c-17.822,10.439-32.617,19.79-32.617,20.444s4.355,4.355,9.785,8.267c10.664,7.612,10.664,7.612,4.355,22.837
		c-2.832,6.523-3.486,6.963-16.973,7.393l-14.131,0.654l-2.607-10.874c-1.523-6.089-3.486-11.743-4.57-12.397
		s-18.271,8.916-38.281,21.094c-20.225,12.183-37.188,22.407-38.066,23.057c-0.859,0.439-3.037-2.173-5-5.654
		c-3.906-7.607-7.607-4.57,39.805-32.842c14.57-8.701,26.533-16.748,26.533-17.837s-0.869-1.519-1.963-0.649
		c-6.953,4.131-59.805,10.225-73.73,8.262c-8.691-1.084-10.645-2.607-18.916-13.916c-24.365-33.057-123.535-202.49-120.059-204.663
		c1.748-1.089,0.439-3.481-3.916-6.958c-3.477-2.822-6.738-5-6.953-4.785s7.393,31.753,17.178,69.814
		c9.57,38.281,17.842,71.772,18.486,74.6c1.738,7.178,11.309,14.355,30.449,22.188c9.355,3.916,18.711,8.481,20.664,10.22
		c4.57,4.136,13.057,27.188,30.879,85.039c17.402,56.118,19.365,63.071,19.141,71.118c-0.215,6.963-6.738,25.664-16.748,47.852
		c-5.43,12.178-5.654,13.701-3.037,24.575c2.832,11.748,6.738,13.921,8.262,4.565c0.869-6.304,3.701-8.477,11.523-8.477
		c5.439,0,5.879-0.654,4.785-5.879c-4.131-23.267-4.561-26.963-2.607-28.052c1.094-0.649,2.607-0.649,3.262,0
		s4.57,22.617,8.486,48.501c4.131,26.099,7.832,49.59,8.477,52.412c0.879,3.262,0.215,4.785-1.953,4.785
		c-3.691,0-4.785-3.262-6.748-18.486c-2.383-18.267-2.383-18.267-11.953-16.963c-7.832,1.089-8.701,0.654-8.701-3.477
		c0-2.393-0.869-4.57-2.178-4.57c-3.701,0-2.607,4.131,6.523,23.486c17.842,37.847,50.244,80.039,78.516,101.572
		c14.795,11.523,39.805,25.229,55.244,30.449c25.664,8.486,39.805,9.57,207.93,14.136c91.338,2.397,192.041,5.22,223.789,6.309
		C14876.629,3194.333,14872.928,3194.333,14872.928,3190.202z M13925.535,3109.074c-0.225-3.481-0.439-35.884-0.654-71.772
		l-0.215-65.244h-6.523h-6.533v67.422v67.422h5.439c3.916,0,5.439,1.084,5.439,4.346c0,2.397,0.654,4.355,1.738,4.355
		C13925.096,3115.603,13925.535,3112.771,13925.535,3109.074z M14205.447,2927.253c5-10.654,4.785-12.397-4.57-43.501
		c-11.738-38.062-34.795-108.53-36.543-111.138c-0.859-1.304-4.346-3.696-7.607-4.785c-7.393-2.827-27.617-3.262-27.617-0.654
		c0,1.743,52.637,178.564,55.674,187.266C14186.092,2958.137,14198.27,2942.038,14205.447,2927.253z M14889.246,2815.461
		c2.393-3.696-5.654-30.884-16.748-56.548c-20.234-46.543-21.973-51.113-26.758-69.38l-4.561-18.271l-18.057,13.921
		c-23.262,17.832-26.748,23.926-25.879,45.459c0.439,13.262,1.953,19.136,7.832,30.879c8.701,17.617,26.094,35.449,43.496,44.805
		C14866.404,2815.896,14886.199,2820.246,14889.246,2815.461z M14285.057,2804.372c15.43-2.832,16.523-5.439,2.168-5.659
		c-11.094-0.22-25.234-6.958-44.15-20.879c-25.674-18.921-51.553-47.192-89.395-97.871l-22.393-30.015v-16.533v-16.309l-5.664,1.309
		c-4.785,1.299-7.393,0-14.57-6.748c-4.785-4.565-8.262-7.178-7.607-6.084c4.346,8.696,54.805,94.609,75.244,128.315
		c29.15,48.286,44.805,71.992,48.721,73.735C14231.541,2809.372,14269.393,2807.409,14285.057,2804.372z M14920.564,2715.417
		c2.393-53.726,0.215-97.441-5.869-128.325l-3.701-18.486l-22.832-11.089c-16.758-8.267-23.057-10.439-23.496-8.267
		c-0.43,1.743-2.168,3.042-3.916,3.042c-1.953,0-3.037,2.393-3.037,6.523c0,5.659,0.859,6.528,5.645,6.528
		s6.748,2.393,15.664,21.313l10.01,21.094l0.43,27.188c0.439,37.847,13.916,118.101,23.271,138.545l2.607,5.654l1.523-7.393
		C14917.732,2767.614,14919.471,2742.38,14920.564,2715.417z M13984.91,1829.782c-0.654-1.738-1.309-1.084-1.309,1.309
		c-0.215,2.383,0.439,3.691,1.084,2.822C13985.35,1833.269,13985.564,1831.306,13984.91,1829.782z M14022.537,1832.39
		c0-1.084-0.439-2.178-0.879-2.178c-0.645,0-1.738,1.094-2.383,2.178c-0.654,1.309-0.215,2.178,0.869,2.178
		C14021.453,1834.567,14022.537,1833.698,14022.537,1832.39z"/>
</g>
</svg>
