<?xml version="1.0" encoding="utf-8"?>
<!-- Generator: Adobe Illustrator 16.0.0, SVG Export Plug-In . SVG Version: 6.00 Build 0)  -->
<!DOCTYPE svg PUBLIC "-//W3C//DTD SVG 1.1//EN" "http://www.w3.org/Graphics/SVG/1.1/DTD/svg11.dtd">
<svg version="1.1" id="Warstwa_1" xmlns="http://www.w3.org/2000/svg" xmlns:xlink="http://www.w3.org/1999/xlink" x="0px" y="0px"
	 width="100px" height="100px" viewBox="0 0 100 100" enable-background="new 0 0 100 100" xml:space="preserve">
<g>
	<path fill="#332F44" d="M89.387,67.324c0,2.75-1.94,6.14-4.312,7.532L54.96,92.54c-2.371,1.393-6.252,1.393-8.623,0L16.222,74.856
		c-2.371-1.393-4.312-4.782-4.312-7.532V31.833c0-2.75,1.94-6.139,4.312-7.532L46.337,6.619c2.371-1.393,6.252-1.393,8.623,0
		l30.115,17.683c2.371,1.393,4.312,4.782,4.312,7.532V67.324z"/>
</g>
<g>
	<path fill="#332F44" d="M83.318,64.015c0,2.75-1.94,6.14-4.312,7.532L54.96,85.666c-2.371,1.393-6.252,1.393-8.623,0.001
		L22.289,71.546c-2.371-1.392-4.312-4.781-4.312-7.531V35.649c0-2.75,1.94-6.139,4.312-7.532l24.048-14.12
		c2.371-1.393,6.252-1.393,8.623,0l24.047,14.12c2.371,1.393,4.312,4.782,4.312,7.532V64.015z"/>
	<path fill="none" stroke="#FFFFFF" stroke-width="4" stroke-miterlimit="10" d="M83.318,64.015c0,2.75-1.94,6.14-4.312,7.532
		L54.96,85.666c-2.371,1.393-6.252,1.393-8.623,0.001L22.289,71.546c-2.371-1.392-4.312-4.781-4.312-7.531V35.649
		c0-2.75,1.94-6.139,4.312-7.532l24.048-14.12c2.371-1.393,6.252-1.393,8.623,0l24.047,14.12c2.371,1.393,4.312,4.782,4.312,7.532
		V64.015z"/>
</g>
<path fill="#FFFFFF" d="M69.801,60.023c-0.023-0.227-0.055-0.404-0.098-0.533c-0.049-0.129-0.107-0.215-0.182-0.262
	c-0.072-0.045-0.162-0.066-0.264-0.066c-0.223,0-0.525,0.143-0.912,0.43c-0.383,0.287-0.875,0.609-1.475,0.965
	c-0.598,0.354-1.322,0.674-2.174,0.961s-1.848,0.43-2.984,0.43c-1.346,0-2.553-0.244-3.617-0.736
	c-1.066-0.49-1.967-1.215-2.697-2.174c-0.734-0.959-1.293-2.152-1.686-3.578c-0.393-1.428-0.588-3.068-0.588-4.926
	c0-1.872,0.201-3.538,0.609-4.995c0.406-1.457,0.98-2.691,1.721-3.703c0.738-1.012,1.631-1.777,2.674-2.299s2.199-0.783,3.473-0.783
	c1.17,0,2.17,0.148,3.006,0.443c0.838,0.294,1.547,0.619,2.131,0.975c0.584,0.354,1.063,0.679,1.432,0.973
	c0.371,0.295,0.66,0.443,0.865,0.443c0.119,0,0.219-0.036,0.299-0.103c0.084-0.067,0.152-0.174,0.211-0.317s0.104-0.32,0.133-0.533
	c0.029-0.21,0.045-0.467,0.045-0.77c0-0.271-0.01-0.506-0.031-0.703c-0.023-0.195-0.053-0.365-0.088-0.508
	c-0.039-0.145-0.084-0.27-0.145-0.374c-0.059-0.106-0.188-0.262-0.387-0.466c-0.199-0.202-0.555-0.463-1.07-0.781
	c-0.516-0.316-1.104-0.596-1.766-0.838c-0.662-0.24-1.383-0.441-2.164-0.6c-0.779-0.159-1.582-0.238-2.406-0.238
	c-1.869,0-3.57,0.348-5.109,1.043c-1.537,0.693-2.857,1.703-3.963,3.023c-1.103,1.321-1.96,2.934-2.571,4.836
	c-0.609,1.903-0.916,4.07-0.916,6.5c0,2.373,0.283,4.466,0.85,6.287s1.375,3.348,2.429,4.586c0.106,0.127,0.227,0.236,0.338,0.355
	l-16.394-0.055V36.584c0-0.121-0.033-0.227-0.098-0.318c-0.066-0.09-0.182-0.162-0.346-0.215c-0.163-0.053-0.381-0.098-0.652-0.135
	c-0.271-0.039-0.612-0.058-1.023-0.058c-0.393,0-0.73,0.019-1.01,0.058c-0.279,0.037-0.501,0.082-0.664,0.135
	c-0.165,0.053-0.28,0.125-0.346,0.215c-0.065,0.092-0.099,0.197-0.099,0.318v27.136c0,0.588,0.169,1,0.505,1.234
	c0.337,0.234,0.693,0.352,1.072,0.352l27.243,0.07c0.105,0.002,0.206,0.014,0.313,0.014c0.086,0,0.163-0.01,0.248-0.012l0.566,0.002
	l0.061-0.033c0.736-0.041,1.445-0.115,2.096-0.264c0.904-0.203,1.707-0.453,2.404-0.746c0.699-0.295,1.285-0.596,1.756-0.906
	c0.471-0.309,0.779-0.539,0.928-0.691c0.146-0.15,0.25-0.279,0.309-0.385c0.057-0.105,0.105-0.227,0.145-0.363
	c0.035-0.135,0.061-0.293,0.074-0.475c0.016-0.182,0.025-0.393,0.025-0.635C69.836,60.535,69.822,60.25,69.801,60.023z"/>
<g>
</g>
<g>
</g>
<g>
</g>
<g>
</g>
<g>
</g>
<g>
</g>
</svg>
