<?xml version="1.0" encoding="utf-8"?>
<!-- Generator: Adobe Illustrator 16.0.0, SVG Export Plug-In . SVG Version: 6.00 Build 0)  -->
<!DOCTYPE svg PUBLIC "-//W3C//DTD SVG 1.1//EN" "http://www.w3.org/Graphics/SVG/1.1/DTD/svg11.dtd">
<svg version="1.1" xmlns="http://www.w3.org/2000/svg" xmlns:xlink="http://www.w3.org/1999/xlink" x="0px" y="0px" width="100px"
	 height="100px" viewBox="0 0 100 100" enable-background="new 0 0 100 100" xml:space="preserve">
<g id="Warstwa_1">
	<g>
		<path d="M88.738,67.744c0,2.75-1.94,6.14-4.312,7.532L54.312,92.96c-2.371,1.393-6.252,1.393-8.623,0L15.573,75.276
			c-2.371-1.393-4.312-4.782-4.312-7.532v-35.49c0-2.75,1.94-6.139,4.312-7.532L45.688,7.04c2.371-1.393,6.252-1.393,8.623,0
			l30.115,17.683c2.371,1.393,4.312,4.782,4.312,7.532V67.744z"/>
	</g>
</g>
<g id="Warstwa_2">
	<g>
		<path d="M82.67,64.182c0,2.75-1.94,6.14-4.312,7.532L54.312,85.833c-2.371,1.393-6.252,1.393-8.623,0.001L21.641,71.713
			c-2.371-1.392-4.312-4.781-4.312-7.531V35.816c0-2.75,1.94-6.139,4.312-7.532l24.048-14.12c2.371-1.393,6.252-1.393,8.623,0
			l24.047,14.12c2.371,1.393,4.312,4.782,4.312,7.532V64.182z"/>
		<path fill="none" stroke="#FFFFFF" stroke-width="2" stroke-miterlimit="10" d="M82.67,64.182c0,2.75-1.94,6.14-4.312,7.532
			L54.312,85.833c-2.371,1.393-6.252,1.393-8.623,0.001L21.641,71.713c-2.371-1.392-4.312-4.781-4.312-7.531V35.816
			c0-2.75,1.94-6.139,4.312-7.532l24.048-14.12c2.371-1.393,6.252-1.393,8.623,0l24.047,14.12c2.371,1.393,4.312,4.782,4.312,7.532
			V64.182z"/>
	</g>
</g>
<g id="Warstwa_3">
	<path fill="#FFFFFF" d="M69.152,59.358c-0.023-0.227-0.055-0.404-0.098-0.533c-0.049-0.129-0.107-0.215-0.182-0.262
		c-0.072-0.045-0.162-0.066-0.264-0.066c-0.223,0-0.525,0.143-0.912,0.43c-0.383,0.287-0.875,0.609-1.475,0.965
		c-0.598,0.354-1.322,0.674-2.174,0.961s-1.848,0.43-2.984,0.43c-1.346,0-2.553-0.244-3.617-0.736
		c-1.066-0.49-1.967-1.215-2.697-2.174c-0.734-0.959-1.293-2.152-1.686-3.578c-0.393-1.428-0.588-3.069-0.588-4.927
		c0-1.872,0.201-3.538,0.609-4.995c0.406-1.457,0.98-2.691,1.721-3.704c0.738-1.011,1.631-1.777,2.674-2.299
		s2.199-0.782,3.473-0.782c1.17,0,2.17,0.147,3.006,0.442c0.838,0.294,1.547,0.62,2.131,0.975c0.584,0.354,1.063,0.679,1.432,0.973
		c0.371,0.295,0.66,0.442,0.865,0.442c0.119,0,0.219-0.036,0.299-0.102c0.084-0.068,0.152-0.174,0.211-0.318
		c0.059-0.143,0.104-0.32,0.133-0.532c0.029-0.21,0.045-0.468,0.045-0.77c0-0.272-0.01-0.506-0.031-0.703
		c-0.023-0.196-0.053-0.365-0.088-0.509c-0.039-0.144-0.084-0.269-0.145-0.374c-0.059-0.106-0.188-0.262-0.387-0.465
		c-0.199-0.203-0.555-0.464-1.07-0.781c-0.516-0.317-1.104-0.596-1.766-0.838c-0.662-0.241-1.383-0.441-2.164-0.6
		c-0.779-0.159-1.582-0.238-2.406-0.238c-1.869,0-3.57,0.348-5.109,1.042c-1.537,0.694-2.857,1.703-3.963,3.023
		c-1.102,1.322-1.959,2.934-2.571,4.836c-0.61,1.903-0.916,4.07-0.916,6.5c0,2.372,0.283,4.467,0.85,6.287s1.375,3.348,2.428,4.586
		c0.106,0.126,0.227,0.235,0.338,0.355l-16.394-0.056V35.918c0-0.121-0.033-0.227-0.098-0.317c-0.066-0.091-0.181-0.162-0.346-0.215
		c-0.163-0.053-0.38-0.098-0.652-0.135c-0.271-0.038-0.612-0.057-1.022-0.057c-0.394,0-0.731,0.019-1.01,0.057
		c-0.279,0.038-0.501,0.083-0.665,0.135c-0.165,0.053-0.28,0.125-0.345,0.215c-0.066,0.091-0.099,0.196-0.099,0.317v27.137
		c0,0.588,0.168,1,0.505,1.234c0.337,0.234,0.693,0.352,1.072,0.352l27.243,0.071c0.105,0.002,0.206,0.014,0.313,0.014
		c0.086,0,0.163-0.011,0.248-0.013l0.566,0.002l0.061-0.032c0.736-0.041,1.445-0.116,2.096-0.264
		c0.904-0.203,1.707-0.453,2.404-0.746c0.699-0.295,1.285-0.596,1.756-0.906c0.471-0.309,0.779-0.539,0.928-0.691
		c0.146-0.15,0.25-0.279,0.309-0.385c0.057-0.105,0.105-0.227,0.145-0.363c0.035-0.135,0.061-0.293,0.074-0.475
		c0.016-0.182,0.025-0.393,0.025-0.635C69.188,59.87,69.174,59.585,69.152,59.358z"/>
	<g>
	</g>
	<g>
	</g>
	<g>
	</g>
	<g>
	</g>
	<g>
	</g>
	<g>
	</g>
	<g>
	</g>
</g>
</svg>
