<?xml version="1.0" encoding="utf-8"?>
<!-- Generator: Adobe Illustrator 16.0.0, SVG Export Plug-In . SVG Version: 6.00 Build 0)  -->
<!DOCTYPE svg PUBLIC "-//W3C//DTD SVG 1.1//EN" "http://www.w3.org/Graphics/SVG/1.1/DTD/svg11.dtd">
<svg version="1.1" id="Warstwa_1" xmlns="http://www.w3.org/2000/svg" xmlns:xlink="http://www.w3.org/1999/xlink" x="0px" y="0px"
	 width="80px" height="80px" viewBox="0 0 80 80" enable-background="new 0 0 80 80" xml:space="preserve">
<g>
	<path fill="#F6F6F6" d="M70.586,53.098c0,2.75-1.94,6.14-4.312,7.532L44.249,73.563c-2.371,1.393-6.252,1.393-8.623,0L13.601,60.63
		c-2.371-1.393-4.312-4.782-4.312-7.532V27.106c0-2.75,1.94-6.139,4.312-7.532L35.626,6.642c2.371-1.393,6.252-1.393,8.623,0
		l22.025,12.933c2.371,1.393,4.312,4.782,4.312,7.532V53.098z"/>
	<path fill="none" stroke="#332F44" stroke-width="3" stroke-miterlimit="10" d="M70.586,53.098c0,2.75-1.94,6.14-4.312,7.532
		L44.249,73.563c-2.371,1.393-6.252,1.393-8.623,0L13.601,60.63c-2.371-1.393-4.312-4.782-4.312-7.532V27.106
		c0-2.75,1.94-6.139,4.312-7.532L35.626,6.642c2.371-1.393,6.252-1.393,8.623,0l22.025,12.933c2.371,1.393,4.312,4.782,4.312,7.532
		V53.098z"/>
</g>
<g>
	<path fill="#332F44" d="M65.398,50.133c0,2.75-1.94,6.14-4.312,7.532l-16.979,9.969c-2.371,1.393-6.252,1.393-8.623,0
		l-16.977-9.969c-2.371-1.393-4.312-4.782-4.312-7.532V30.071c0-2.75,1.94-6.139,4.312-7.532l16.977-9.968
		c2.371-1.393,6.252-1.393,8.623,0l16.979,9.968c2.371,1.393,4.312,4.782,4.312,7.532V50.133z"/>
	<path fill="none" stroke="#332F44" stroke-miterlimit="10" d="M65.398,50.133c0,2.75-1.94,6.14-4.312,7.532l-16.979,9.969
		c-2.371,1.393-6.252,1.393-8.623,0l-16.977-9.969c-2.371-1.393-4.312-4.782-4.312-7.532V30.071c0-2.75,1.94-6.139,4.312-7.532
		l16.977-9.968c2.371-1.393,6.252-1.393,8.623,0l16.979,9.968c2.371,1.393,4.312,4.782,4.312,7.532V50.133z"/>
</g>
<g>
</g>
<g>
</g>
<g>
</g>
<g>
</g>
<g>
</g>
<g>
</g>
</svg>
