<?xml version="1.0" encoding="utf-8"?>
<!-- Generator: Adobe Illustrator 16.0.0, SVG Export Plug-In . SVG Version: 6.00 Build 0)  -->
<!DOCTYPE svg PUBLIC "-//W3C//DTD SVG 1.1//EN" "http://www.w3.org/Graphics/SVG/1.1/DTD/svg11.dtd">
<svg version="1.1" id="Warstwa_1" xmlns="http://www.w3.org/2000/svg" xmlns:xlink="http://www.w3.org/1999/xlink" x="0px" y="0px"
	 width="137.117px" height="119.613px" viewBox="0 0 137.117 119.613" enable-background="new 0 0 137.117 119.613"
	 xml:space="preserve">
<g>
	<path fill="#343045" d="M98.035,0c3.102,0,6.923,2.188,8.494,4.861l29.41,50.084c1.569,2.674,1.569,7.049,0,9.723l-29.41,50.084
		c-1.571,2.674-5.393,4.861-8.494,4.861H39.079c-3.101,0-6.923-2.188-8.493-4.861L1.178,64.669c-1.57-2.674-1.57-7.05,0-9.724
		L30.586,4.862C32.156,2.188,35.978,0,39.079,0H98.035L98.035,0z"/>
</g>
<g id="big-hexagon">
	<path fill="#343045" stroke="#FFFFFF" stroke-width="4" stroke-miterlimit="10" d="M93.73,7.33c3.103,0,6.924,2.188,8.494,4.862
		l25.105,42.753c1.57,2.674,1.57,7.05,0,9.724l-25.105,42.754c-1.57,2.675-5.393,4.861-8.494,4.861H43.383
		c-3.101,0-6.923-2.188-8.493-4.861L9.786,64.669c-1.57-2.674-1.57-7.05,0-9.724L34.89,12.192c1.57-2.674,5.392-4.862,8.493-4.862
		H93.73L93.73,7.33z"/>
	<path fill="#343045" stroke="#FFFFFF" stroke-width="4" stroke-miterlimit="10" d="M93.73,7.33c3.103,0,6.924,2.188,8.494,4.862
		l25.105,42.753c1.57,2.674,1.57,7.05,0,9.724l-25.105,42.754c-1.57,2.675-5.393,4.861-8.494,4.861H43.383
		c-3.101,0-6.923-2.188-8.493-4.861L9.786,64.669c-1.57-2.674-1.57-7.05,0-9.724L34.89,12.192c1.57-2.674,5.392-4.862,8.493-4.862
		H93.73L93.73,7.33z"/>
</g>
<g transform="translate(0.000000,1280.000000) scale(0.100000,-0.100000)">
	<path fill="#FFFFFF" d="M547.095,12457.399c-39.878-34.941-84.551-73.999-99.17-86.816l-26.606-23.262l0.103-227.729l0.107-227.734
		l1.133-2.051c1.44-2.676,4.009-5.156,6.431-6.133c1.748-0.723,24.648-0.82,225.151-0.82H877.51l2.617,1.23
		c2.773,1.289,4.785,3.516,6.133,6.641c0.664,1.66,0.762,11.943,0.762,89.092v87.236l1.855,4.268
		c1.035,2.373,2.266,5.205,2.773,6.318c0.527,1.133,2.324,5.303,4.023,9.268s4.746,10.918,6.68,15.439
		c1.953,4.531,6.953,16.016,11.016,25.488c4.121,9.453,19.609,45.117,34.395,79.248c31.328,72.305,40.586,93.716,45.02,103.96
		c1.797,4.111,3.086,7.612,2.93,7.817c-0.82,0.825-41.016,17.861-41.328,17.5c-0.215-0.205-7.461-16.777-16.152-36.899
		c-18.73-43.281-26.094-60.264-32.012-73.853c-2.422-5.508-5.703-13.174-7.363-16.982c-1.641-3.809-4.98-11.479-7.402-16.982
		l-4.375-10.039l-0.059,164.429c0,105.449-0.195,165.049-0.508,166.182c-0.82,2.881-2.949,5.454-5.82,7.051l-2.676,1.489
		l-129.18,0.103l-129.175,0.156L547.095,12457.399z"/>
	<path fill="#FFFFFF" d="M991.396,12384.787c-0.469-0.103-0.918-0.513-1.094-0.82c-0.137-0.366-5.039-11.636-10.898-25.063
		c-5.879-13.433-10.703-24.756-10.762-25.122c-0.039-0.562,15.039-7.563,15.43-7.148c0.117,0.103,19.824,45.439,21.582,49.609
		c0.664,1.597,0.605,1.802-0.918,4.116c-2.227,3.296-5.215,4.79-9.375,4.741C993.662,12385.041,991.904,12384.943,991.396,12384.787
		z"/>
	<path fill="#FFFFFF" d="M995.459,12312.326l-2.324-5.356l4.375-1.851c2.422-1.03,4.434-1.802,4.492-1.699
		c0.391,0.518,4.434,10.347,4.316,10.449c-0.098,0.054-2.051,0.923-4.375,1.953l-4.18,1.802L995.459,12312.326z"/>
	<path fill="#FFFFFF" d="M986.865,12262.302c-11.992-27.69-22.344-51.514-22.969-52.954l-1.172-2.681l3.906-1.592
		c2.109-0.928,3.965-1.548,4.121-1.44c0.156,0.2,28.672,65.669,45.762,105.142c0.195,0.459-6.387,3.809-7.52,3.809
		C1008.779,12312.585,998.857,12289.938,986.865,12262.302z"/>
	<path fill="#FFFFFF" d="M963.76,12225.554c-4.023-1.904-6.23-3.286-6.133-3.652c0.156-0.361,1.133-3.501,2.207-6.948
		c1.094-3.496,2.109-6.328,2.266-6.328c0.215,0,7.52,16.416,8.711,19.609C971.123,12229.006,970.342,12228.747,963.76,12225.554z"/>
</g>
</svg>
