<?xml version="1.0" encoding="utf-8"?>
<!-- Generator: Adobe Illustrator 16.0.0, SVG Export Plug-In . SVG Version: 6.00 Build 0)  -->
<!DOCTYPE svg PUBLIC "-//W3C//DTD SVG 1.1//EN" "http://www.w3.org/Graphics/SVG/1.1/DTD/svg11.dtd">
<svg version="1.1" id="Warstwa_1" xmlns="http://www.w3.org/2000/svg" xmlns:xlink="http://www.w3.org/1999/xlink" x="0px" y="0px"
	 width="137.117px" height="119.613px" viewBox="0 0 137.117 119.613" enable-background="new 0 0 137.117 119.613"
	 xml:space="preserve">
<path fill="#343045" d="M98.035,0c3.102,0,6.923,2.188,8.494,4.861l29.41,50.084c1.57,2.674,1.57,7.049,0,9.723l-29.41,50.084
	c-1.571,2.674-5.393,4.861-8.494,4.861H39.079c-3.101,0-6.923-2.188-8.493-4.861L1.178,64.669c-1.57-2.674-1.57-7.05,0-9.724
	L30.586,4.862C32.156,2.188,35.978,0,39.079,0H98.035L98.035,0z"/>
<path fill="#343045" stroke="#FFFFFF" stroke-width="4" stroke-miterlimit="10" d="M93.731,7.33c3.102,0,6.923,2.188,8.493,4.862
	l25.106,42.753c1.57,2.674,1.57,7.05,0,9.724l-25.106,42.754c-1.57,2.674-5.392,4.861-8.493,4.861H43.383
	c-3.101,0-6.923-2.188-8.493-4.861L9.786,64.669c-1.57-2.674-1.57-7.05,0-9.724L34.89,12.192c1.57-2.674,5.392-4.862,8.493-4.862
	H93.731L93.731,7.33z"/>
<path fill="#343045" stroke="#FFFFFF" stroke-width="4" stroke-miterlimit="10" d="M93.731,7.33c3.102,0,6.923,2.188,8.493,4.862
	l25.106,42.753c1.57,2.674,1.57,7.05,0,9.724l-25.106,42.754c-1.57,2.674-5.392,4.861-8.493,4.861H43.383
	c-3.101,0-6.923-2.188-8.493-4.861L9.786,64.669c-1.57-2.674-1.57-7.05,0-9.724L34.89,12.192c1.57-2.674,5.392-4.862,8.493-4.862
	H93.731L93.731,7.33z"/>
<g>
</g>
<path fill-rule="evenodd" clip-rule="evenodd" fill="#FFFFFF" d="M50.998,78.722l0.224-0.008l0.082,0.209
	C50.995,79.169,50.946,79.021,50.998,78.722z"/>
<g transform="translate(0.000000,1280.000000) scale(0.100000,-0.100000)">
	<path fill="#FFFFFF" d="M814.15,12542.289c-10.43-0.977-12.949-1.235-13.564-1.494c-1.084-0.41-3.447-20.605-4.316-36.899
		l-0.361-6.631l-5.654-1.387c-3.076-0.771-7.393-2.109-9.502-2.979c-5.4-2.212-17.324-7.915-20.41-9.819
		c-1.445-0.874-2.715-1.592-2.822-1.592c-0.166,0-7.764,6.167-16.904,13.672c-9.16,7.5-16.973,13.774-17.266,13.926
		c-1.24,0.513-11.777-8.428-19.648-16.597c-7.549-7.817-16.182-18.608-15.566-19.38c2.207-2.93,10.645-13.306,17.832-21.943
		c4.824-5.806,8.994-10.84,9.199-11.206c0.215-0.405-0.459-1.948-1.748-4.009c-3.438-5.444-7.451-13.926-9.248-19.473
		c-0.928-2.827-2.207-6.787-2.871-8.843c-0.674-2.002-1.24-4.004-1.24-4.419c0-0.566-0.977-0.82-3.701-1.079
		c-20.039-1.851-39.316-4.058-39.824-4.624c-1.602-1.543-2.627-22.202-1.748-33.354c0.615-7.764,1.797-16.187,2.354-16.704
		c0.215-0.254,15.371-1.743,38.916-3.955l3.955-0.361l0.313-2.104c0.195-1.182,0.762-3.188,1.279-4.473
		c0.518-1.289,1.748-4.985,2.773-8.276c2.002-6.216,6.172-15.059,9.609-20.195c1.133-1.694,1.963-3.34,1.807-3.75
		c-0.156-0.361-4.268-5.449-9.209-11.309c-13.564-16.24-17.881-21.738-17.471-22.407c1.748-3.081,10.02-12.798,15.83-18.657
		c7.666-7.705,19.639-17.671,20.195-16.851c0.205,0.313,5.088,4.414,10.889,9.194c5.82,4.78,12.852,10.64,15.684,13.057
		c2.832,2.466,5.498,4.727,6.016,5.088c0.713,0.566,1.699,0.2,6.68-2.622c6.885-3.906,15.371-7.402,23.584-9.609
		c3.252-0.874,6.221-1.802,6.533-2.007c0.41-0.259,1.182-5.601,2.158-15.522c1.543-15.059,2.92-26.934,3.291-28.008
		c0.41-1.074,15.938-1.895,29.238-1.602c10.586,0.273,20.918,1.25,21.738,2.012c0.098,0.156,1.035,9.248,2.012,20.254
		c1.025,10.996,1.943,20.757,2.109,21.685c0.293,1.953,0.195,1.899,9.092,4.521c7.451,2.212,17.373,6.577,23.379,10.332
		c2.412,1.538,4.629,2.671,4.932,2.52c0.313-0.107,3.447-2.676,6.992-5.708c11.924-10.278,26.836-21.885,27.598-21.631
		c1.387,0.566,7.09,4.922,10.273,7.856c6.641,6.167,24.824,26.777,24.824,28.115c0,0.156-5.859,7.246-12.949,15.776
		c-7.148,8.481-13.516,16.084-14.131,16.855l-1.133,1.387l3.037,5.859c4.063,7.764,8.018,17.681,9.707,24.204l1.338,5.347
		l9.512,0.874c5.244,0.464,15.107,1.392,21.943,2.007l12.441,1.177l0.303,1.338c0.674,3.242,1.338,11.26,1.592,19.531
		c0.469,12.183-0.879,29.912-2.256,30.781c-0.361,0.21-10.127,1.235-21.787,2.314c-11.68,1.079-21.387,2.061-21.582,2.158
		c-0.215,0.103-0.625,1.543-0.938,3.188c-1.387,7.041-5.908,18.706-10.586,27.393l-3.34,6.216l1.953,2.363
		c1.074,1.338,7.148,8.789,13.574,16.602c6.367,7.813,11.758,14.443,11.973,14.805c0.41,0.615-3.652,5.806-10.43,13.359
		c-7.51,8.325-24.727,23.179-25.918,22.305c-4.258-3.242-19.619-15.674-25.02-20.249c-3.857-3.188-7.295-6.118-7.754-6.475
		c-0.625-0.513-2.783,0.356-11.777,4.932c-7.852,3.906-12.695,5.962-16.699,7.144c-3.086,0.928-6.172,1.646-6.787,1.646
		c-1.279,0-1.279-0.151-2.51,13.105c-0.879,9.819-3.301,31.25-3.496,31.45c-0.42,0.415-6.484,1.187-12.949,1.646
		C830.801,12542.592,818.369,12542.699,814.15,12542.289z M837.529,12434.672c11.152-1.851,21.953-7.759,31.357-17.114
		c9.199-9.15,14.854-19.224,17.217-30.889c5.352-25.747-5.098-51.289-26.719-65.576c-9.883-6.528-19.434-9.561-31.66-10.073
		c-11.416-0.513-19.951,1.23-29.766,6.011c-12.285,6.016-21.523,15.063-28.057,27.446c-4.932,9.404-6.885,17.627-6.836,29.341
		c0.049,14.443,3.955,26.06,12.539,37.158c10.898,14.136,25.693,22.925,40.859,24.209
		C822.168,12435.644,833.369,12435.39,837.529,12434.672z"/>
	<path fill="#FFFFFF" d="M814.15,12425.521c-18.76-4.111-34.072-18.452-39.932-37.363c-1.289-4.263-1.387-5.186-1.387-14.341
		c-0.049-10.635,0.205-12.227,3.33-20.352c3.359-8.682,12.09-19.424,20.469-25.073c4.619-3.14,10.996-6.016,16.289-7.354
		c6.572-1.646,19.121-1.646,25.176,0c7.197,1.958,12.383,4.424,18.203,8.74c16.445,12.231,24.297,29.961,22.09,49.849
		c-1.387,12.847-6.367,23.022-15.469,31.709c-6.875,6.577-14.082,10.796-23.027,13.467
		C833.779,12426.601,820.83,12427.011,814.15,12425.521z M833.779,12412.362c11.719-2.466,22.617-10.737,27.607-20.913
		c0.869-1.802,2.1-5.19,2.666-7.554c0.918-3.755,1.084-5.396,0.879-12.08c-0.215-6.782-0.42-8.271-1.758-12.124
		c-3.896-11.67-15.313-22.051-28.057-25.498c-3.906-1.079-14.893-1.23-18.398-0.249c-7.549,2.051-13.721,5.649-19.219,11.147
		c-2.314,2.266-4.932,5.444-5.908,7.041c-11.406,19.17-5.4,44.302,13.311,55.4c3.799,2.207,9.561,4.473,13.359,5.088
		C822.119,12413.29,830.127,12413.134,833.779,12412.362z"/>
	<path fill="#FFFFFF" d="M619.678,12318.988c-3.848-9.819-8.32-22.002-12.891-34.951l-5.039-14.287h-6.27
		c-11.875,0-29.961-2.412-40.498-5.449c-3.604-1.025-6.631-1.797-6.729-1.694c-0.059,0.107-1.855,2.622-3.965,5.601
		c-7.192,10.278-29.292,40.605-29.546,40.605c-0.518,0-9.307-3.501-11.255-4.526c-1.133-0.562-3.809-1.851-5.913-2.876
		c-2.104-0.981-6.167-3.14-8.994-4.834c-2.827-1.641-7.603-4.473-10.64-6.27c-5.396-3.184-12.847-8.53-17.573-12.588l-2.363-2.109
		l6.167-13.311c3.442-7.349,8.789-18.862,11.919-25.601l5.708-12.227l-3.906-3.955c-10.073-10.283-22.256-26.26-26.362-34.697
		c-0.825-1.641-1.65-2.92-1.904-2.92c-0.205,0-7.5,1.23-16.191,2.773c-16.904,2.979-39.722,6.631-39.932,6.377
		c-0.41-0.41-5.293-12.754-7.192-18.145c-2.622-7.5-6.938-28.682-8.74-43.174l-0.308-2.568l26.108-10.02l26.108-10.02l0.103-4.883
		c0.21-8.789,1.182-19.59,2.261-25.137c0.566-2.969,1.387-7.246,1.802-9.395c0.41-2.227,1.333-5.977,2.002-8.379
		c0.718-2.422,1.284-4.727,1.284-5.146c0-0.361-4.78-4.111-10.64-8.271c-5.908-4.16-16.084-11.514-22.661-16.348
		c-10.688-7.813-11.924-8.887-11.665-9.912c1.128-4.521,11.099-23.857,17.783-34.541c3.799-5.957,11.455-16.953,13.564-19.424
		l1.543-1.748l8.994,4.16c8.838,4.16,37.822,17.422,40.908,18.77l1.538,0.713l6.938-6.426c8.691-8.115,13.008-11.357,24.775-18.555
		c7.09-4.316,9.351-5.967,9.248-6.67c-0.049-0.527-1.128-7.305-2.417-15.059c-2.256-13.682-5.957-38.447-5.957-39.727
		c0-0.371,0.771-0.938,1.694-1.348c11.563-4.629,21.895-7.813,36.738-11.309c9.922-2.354,24.316-4.824,24.824-4.258
		c0.928,1.025,13.418,33.867,18.252,47.734l1.943,5.82h7.822c13.467,0,22.979,1.328,36.592,5.234c6.27,1.748,7.5,1.953,8.066,1.387
		c0.361-0.41,7.861-10.898,16.699-23.32c8.848-12.441,16.143-22.734,16.25-22.773c0.146-0.205,4.668,1.895,18.535,8.73
		c5.762,2.832,12.5,6.68,17.734,10.137c7.461,4.922,17.012,11.973,19.59,14.434c0.918,0.82,0.762,1.289-4.17,12.383
		c-2.822,6.318-8.174,17.988-11.816,25.898l-6.68,14.346l6.006,6.475c8.223,8.73,15.684,18.906,20.82,28.369
		c1.289,2.461,2.578,4.57,2.773,4.678c0.205,0.098,4.883-0.566,10.381-1.484c28.73-4.844,45.381-7.461,45.947-7.256
		c1.133,0.459,9.141,23.291,11.348,32.217c0.42,1.855,1.035,3.867,1.289,4.482c0.469,1.084,3.76,19.619,4.316,24.404l0.313,2.422
		l-2.461,1.074c-3.184,1.436-24.668,9.57-39.277,14.902l-11.699,4.277v8.008c0,9.199-0.527,14.453-2.109,23.027
		c-0.938,5.088-3.457,16.133-4.375,19.277c-0.205,0.605,2.266,2.617,9.658,7.91c11.152,7.969,35.713,26.25,36.133,26.982
		c0.361,0.557-3.135,8.779-7.354,17.158c-5.957,11.973-13.672,24.063-21.777,34.277l-3.965,4.99l-6.836-2.979
		c-9.453-4.16-24.668-11.152-35.313-16.289l-8.887-4.316l-6.885,6.523c-7.295,6.885-16.143,13.77-22.041,17.266
		c-3.086,1.797-9.414,5.962-10.703,7.041c-0.195,0.205,0.566,6.323,1.699,13.667c5.762,36.694,6.738,42.964,6.582,43.12
		c-0.107,0.049-3.75,1.494-8.125,3.188c-9.248,3.594-20.508,7.349-22.148,7.349c-0.605,0-2.422,0.459-4.004,0.977
		c-4.111,1.44-25.088,5.649-28.066,5.703C621.377,12322.685,620.859,12321.859,619.678,12318.988z M610.381,12184.179
		c14.18-2.52,28.984-9.453,39.668-18.652c12.656-10.898,23.652-30.781,26.631-48.105c1.123-6.523,1.025-17.832-0.205-25.078
		c-2.266-13.105-7.91-26.982-14.648-35.869c-11.875-15.781-32.432-28.164-52.422-31.611c-5.859-0.977-17.168-0.977-23.34,0
		c-11.719,1.904-24.971,6.68-33.193,11.973c-18.296,11.826-31.865,32.129-36.079,54.072c-1.23,6.523-1.23,18.389,0,25.439
		c4.629,26.152,16.914,44.297,39.116,57.871c5.859,3.594,15.059,7.285,22.09,8.984
		C587.92,12185.565,600.566,12185.927,610.381,12184.179z"/>
	<path fill="#FFFFFF" d="M591.875,12173.808c-11.045-1.289-17.314-3.193-26.465-7.92c-17.979-9.307-28.726-22.822-34.175-43.066
		c-2.568-9.463-2.983-12.393-3.032-20.098c0-7.295,0.82-12.949,2.827-19.072c1.23-3.799,5.601-13.301,6.113-13.301
		c0.151,0,1.753-2.158,3.442-4.727c7.607-11.465,18.252-20,31.299-25.078c26.016-10.176,53.291-4.834,73.848,14.385
		c9.258,8.633,16.855,22.412,19.434,35.049c3.545,17.627,0.605,34.121-8.887,50.059c-10.234,17.217-23.594,26.934-44.102,32.021
		C605.283,12173.749,597.168,12174.472,591.875,12173.808z M609.6,12154.579c16.035-4.014,27.354-13.408,35.01-29.033
		c3.486-7.246,4.268-10.996,4.268-21.025c0-10.225-0.781-13.867-4.629-21.787c-2.832-5.908-5.762-10.078-10.02-14.336
		c-14.902-14.648-32.227-18.906-52.637-12.949c-13.252,3.848-23.73,12.998-30.566,26.67c-6.523,13.057-7.148,29.443-1.699,41.934
		c5.391,12.119,14.844,21.797,26.973,27.49C587.451,12156.796,597.275,12157.665,609.6,12154.579z"/>
</g>
<g>
</g>
<g>
</g>
<g>
</g>
<g>
</g>
<g>
</g>
<g>
</g>
</svg>
