<?xml version="1.0" encoding="utf-8"?>
<!-- Generator: Adobe Illustrator 16.0.0, SVG Export Plug-In . SVG Version: 6.00 Build 0)  -->
<!DOCTYPE svg PUBLIC "-//W3C//DTD SVG 1.1//EN" "http://www.w3.org/Graphics/SVG/1.1/DTD/svg11.dtd">
<svg version="1.1" id="Warstwa_1" xmlns="http://www.w3.org/2000/svg" xmlns:xlink="http://www.w3.org/1999/xlink" x="0px" y="0px"
	 width="1128px" height="990px" viewBox="0 0 1128 990" enable-background="new 0 0 1128 990" xml:space="preserve">
<g>
	
		<linearGradient id="SVGID_1_" gradientUnits="userSpaceOnUse" x1="858.46" y1="-148.1213" x2="858.4598" y2="639.8865" gradientTransform="matrix(1 0 0 -1 -294.46 753.9009)">
		<stop  offset="0" style="stop-color:#343045;stop-opacity:0.5"/>
		<stop  offset="1" style="stop-color:#343045"/>
	</linearGradient>
	<path fill="none" stroke="url(#SVGID_1_)" stroke-width="31" stroke-miterlimit="10" d="M750.552,129.515
		c19.626,0,43.814,13.848,53.752,30.771l186.13,316.966c9.939,16.924,9.939,44.614,0,61.538l-186.13,316.968
		c-9.938,16.924-34.126,30.766-53.752,30.766H377.431c-19.626,0-43.815-13.846-53.75-30.768L137.565,538.791
		c-9.937-16.923-9.937-44.619,0-61.543L323.68,160.287c9.939-16.925,34.124-30.771,53.75-30.771L750.552,129.515L750.552,129.515z"
		/>
</g>
<g id="big-hexagon">
	
		<linearGradient id="SVGID_2_" gradientUnits="userSpaceOnUse" x1="858.4609" y1="-99.7346" x2="858.4609" y2="591.4968" gradientTransform="matrix(1 0 0 -1 -294.46 753.9009)">
		<stop  offset="0" style="stop-color:#343045;stop-opacity:0.2"/>
		<stop  offset="1" style="stop-color:#343045"/>
	</linearGradient>
	<path fill="none" stroke="url(#SVGID_2_)" stroke-width="27" stroke-miterlimit="10" d="M723.312,175.905
		c19.627,0,43.815,13.848,53.753,30.769l158.892,270.574c9.938,16.925,9.938,44.614,0,61.54L777.063,809.365
		c-9.938,16.927-34.125,30.771-53.753,30.771H404.669c-19.626,0-43.813-13.849-53.75-30.771L192.046,538.791
		c-9.939-16.923-9.937-44.619,0-61.543l158.873-270.572c9.937-16.923,34.124-30.77,53.75-30.77h318.643V175.905z"/>
	
		<linearGradient id="SVGID_3_" gradientUnits="userSpaceOnUse" x1="858.4609" y1="-99.7346" x2="858.4609" y2="591.4968" gradientTransform="matrix(1 0 0 -1 -294.46 753.9009)">
		<stop  offset="0" style="stop-color:#343045;stop-opacity:0.2"/>
		<stop  offset="1" style="stop-color:#343045"/>
	</linearGradient>
	<path fill="none" stroke="url(#SVGID_3_)" stroke-width="27" stroke-miterlimit="10" d="M723.312,175.905
		c19.627,0,43.815,13.848,53.753,30.769l158.892,270.574c9.938,16.925,9.938,44.614,0,61.54L777.063,809.365
		c-9.938,16.927-34.125,30.771-53.753,30.771H404.669c-19.626,0-43.813-13.849-53.75-30.771L192.046,538.791
		c-9.939-16.923-9.937-44.619,0-61.543l158.873-270.572c9.937-16.923,34.124-30.77,53.75-30.77h318.643V175.905z"/>
</g>
<linearGradient id="SVGID_4_" gradientUnits="userSpaceOnUse" x1="464.8809" y1="613.5002" x2="464.8809" y2="452.4506">
	<stop  offset="0.2741" style="stop-color:#3A364A;stop-opacity:0.5"/>
	<stop  offset="1" style="stop-color:#3A364A"/>
</linearGradient>
<path fill="url(#SVGID_4_)" d="M640.813,427.534c0-1.471,3.253,0.465-49.165-29.731l-45.683-26.325l-0.387-27.332l-0.387-27.331
	l-24.234-0.232c-18.97-0.155-24.313,0-24.545,0.774c-0.232,0.541-0.465,6.503-0.542,13.162l-0.232,12.079l-15.407-8.827
	c-11.614-6.658-15.641-8.595-16.647-8.052c-33.835,18.892-174.674,100.81-174.674,101.584c0,0.851,29.035,1.006,175.991,1.238
	C619.753,428.697,640.813,428.541,640.813,427.534z M347.831,411.74c0.387-0.388,25.938-15.253,56.831-32.983
	c30.894-17.731,56.986-32.829,58.07-33.448c1.936-1.085,2.711-0.697,25.319,12.155c12.853,7.278,23.77,13.085,24.157,12.775
	c0.541-0.31,0.852-6.891,0.852-19.047v-18.505h7.742h7.743l0.154,24.08l0.232,24.08l26.557,15.33
	c14.557,8.362,26.713,15.485,27.023,15.718c0.231,0.31-52.574,0.542-117.457,0.542C394.287,412.437,347.366,412.126,347.831,411.74z
	"/>
<linearGradient id="SVGID_5_" gradientUnits="userSpaceOnUse" x1="603.3467" y1="613.5002" x2="603.3467" y2="452.4506">
	<stop  offset="0" style="stop-color:#3A364A;stop-opacity:0.5"/>
	<stop  offset="1" style="stop-color:#3A364A"/>
</linearGradient>
<path fill="url(#SVGID_5_)" d="M876.146,515.725c-0.233-0.543-8.13-5.73-17.498-11.383c-9.446-5.729-32.829-19.898-52.032-31.513
	c-19.123-11.614-35.77-21.758-36.932-22.531l-171.842-1.858l-0.232-6.039l-0.232-5.962H464.202
	c-105.764,0-133.25,0.232-133.483,0.93c-0.232,0.541-0.31,40.726-0.232,89.272l0.232,88.268h55.36h55.36l0.388-35.23l0.387-35.229
	h15.485h15.485l0.388,35.229l0.387,35.23h61.554h61.554l0.388-15.1l0.388-15.098l147.994-1.16
	c7.807,0.066,21.099,0.129,23.293,0.129c1.084-0.695,25.796-16.313,54.134-33.424s51.876-31.59,52.419-32.285
	C876.146,517.35,876.377,516.344,876.146,515.725z M581.195,525.867v73.168l-45.45-0.154l-45.527-0.232l-0.387-35.23l-0.388-35.229
	h-31.744h-31.745l-0.387,35.229l-0.388,35.23h-39.1h-39.101l-0.232-72.008c-0.077-39.643,0-72.472,0.232-73.014
	c0.232-0.696,24.467-0.929,117.301-0.929h116.915V525.867z"/>
<linearGradient id="SVGID_6_" gradientUnits="userSpaceOnUse" x1="384.0957" y1="613.5002" x2="384.0957" y2="452.4506">
	<stop  offset="0.2741" style="stop-color:#3A364A;stop-opacity:0.5"/>
	<stop  offset="1" style="stop-color:#3A364A"/>
</linearGradient>
<path fill="url(#SVGID_6_)" d="M411.243,463.151l-26.79-0.231c-14.711-0.078-26.944,0.077-27.254,0.387
	c-0.31,0.232-0.542,11.536-0.542,25.086c0,23.538,0.078,24.7,1.471,25.474c2.323,1.238,50.482,1.084,52.186-0.232
	c1.239-0.852,1.316-3.098,1.161-25.705L411.243,463.151z"/>
<linearGradient id="SVGID_7_" gradientUnits="userSpaceOnUse" x1="530.0386" y1="613.5002" x2="530.0386" y2="452.4506">
	<stop  offset="0.2741" style="stop-color:#3A364A;stop-opacity:0.5"/>
	<stop  offset="1" style="stop-color:#3A364A"/>
</linearGradient>
<path fill="url(#SVGID_7_)" d="M504.232,514.176c1.858,0.697,50.869,0.541,52.031-0.156c0.697-0.541,0.929-6.193,0.773-25.783
	l-0.232-25.086l-26.867-0.231l-26.943-0.155v25.473h-0.001C502.993,510.77,503.149,513.789,504.232,514.176z"/>
</svg>
