<?xml version="1.0" encoding="utf-8"?>
<!-- Generator: Adobe Illustrator 16.0.0, SVG Export Plug-In . SVG Version: 6.00 Build 0)  -->
<!DOCTYPE svg PUBLIC "-//W3C//DTD SVG 1.1//EN" "http://www.w3.org/Graphics/SVG/1.1/DTD/svg11.dtd">
<svg version="1.1" id="Warstwa_1" xmlns="http://www.w3.org/2000/svg" xmlns:xlink="http://www.w3.org/1999/xlink" x="0px" y="0px"
	 width="1128px" height="990px" viewBox="0 0 1128 990" enable-background="new 0 0 1128 990" xml:space="preserve">
<g>
	
		<linearGradient id="SVGID_1_" gradientUnits="userSpaceOnUse" x1="1152.9209" y1="507.2219" x2="1152.9205" y2="-280.7859" gradientTransform="matrix(1 0 0 1 -588.9199 394.8008)">
		<stop  offset="0" style="stop-color:#3A364A;stop-opacity:0.5"/>
		<stop  offset="1" style="stop-color:#3A364A"/>
	</linearGradient>
	<path fill="none" stroke="url(#SVGID_1_)" stroke-width="31" stroke-miterlimit="10" d="M750.552,129.515
		c19.626,0,43.814,13.848,53.752,30.771l186.13,316.966c9.939,16.924,9.939,44.613,0,61.537l-186.13,316.969
		c-9.938,16.924-34.126,30.766-53.752,30.766H377.431c-19.626,0-43.815-13.846-53.75-30.768L137.565,538.791
		c-9.937-16.924-9.937-44.619,0-61.544l186.115-316.96c9.939-16.926,34.124-30.771,53.75-30.771L750.552,129.515L750.552,129.515z"
		/>
</g>
<g id="big-hexagon">
	
		<linearGradient id="SVGID_2_" gradientUnits="userSpaceOnUse" x1="1152.9219" y1="458.8347" x2="1152.9219" y2="-232.3962" gradientTransform="matrix(1 0 0 1 -588.9199 394.8008)">
		<stop  offset="0.2556" style="stop-color:#3A364A;stop-opacity:0.3"/>
		<stop  offset="0.8259" style="stop-color:#3A364A"/>
	</linearGradient>
	<path fill="none" stroke="url(#SVGID_2_)" stroke-width="27" stroke-miterlimit="10" d="M723.313,175.905
		c19.625,0,43.813,13.849,53.752,30.77l158.892,270.573c9.937,16.926,9.937,44.614,0,61.54L777.065,809.365
		c-9.938,16.927-34.125,30.771-53.752,30.771H404.672c-19.626,0-43.813-13.85-53.75-30.771L192.049,538.791
		c-9.939-16.924-9.937-44.619,0-61.544l158.873-270.571c9.937-16.923,34.124-30.77,53.75-30.77h318.642V175.905L723.313,175.905z"/>
	
		<linearGradient id="SVGID_3_" gradientUnits="userSpaceOnUse" x1="1152.9219" y1="458.8347" x2="1152.9219" y2="-232.3962" gradientTransform="matrix(1 0 0 1 -588.9199 394.8008)">
		<stop  offset="0.2556" style="stop-color:#3A364A;stop-opacity:0.3"/>
		<stop  offset="0.8259" style="stop-color:#3A364A"/>
	</linearGradient>
	<path fill="none" stroke="url(#SVGID_3_)" stroke-width="27" stroke-miterlimit="10" d="M723.313,175.905
		c19.625,0,43.813,13.849,53.752,30.77l158.892,270.573c9.937,16.926,9.937,44.614,0,61.54L777.065,809.365
		c-9.938,16.927-34.125,30.771-53.752,30.771H404.672c-19.626,0-43.813-13.85-53.75-30.771L192.049,538.791
		c-9.939-16.924-9.937-44.619,0-61.544l158.873-270.571c9.937-16.923,34.124-30.77,53.75-30.77h318.642V175.905L723.313,175.905z"/>
</g>
<g>
	<linearGradient id="SVGID_4_" gradientUnits="userSpaceOnUse" x1="603.4102" y1="255.5002" x2="603.4102" y2="827.5011">
		<stop  offset="0.2556" style="stop-color:#3A364A;stop-opacity:0.3"/>
		<stop  offset="0.8259" style="stop-color:#3A364A"/>
	</linearGradient>
	<path fill="url(#SVGID_4_)" d="M816.066,628.139c-7.314-2.563-10.25-4.006-12.707-6.193c-2.138-1.922-2.189-2.082-2.189-5.338
		c0-3.258,0.054-3.418,2.189-5.34c2.455-2.189,5.393-3.633,12.707-6.193c5.5-1.922,5.18-0.908,3.148-8.648
		c-0.586-2.295-1.387-4.324-1.762-4.434c-0.319-0.158-3.363,0.215-6.674,0.855c-10.998,1.975-14.311,1.334-16.767-2.99
		c-1.121-1.979-1.388-3.098-1.175-4.432c0.373-2.512,3.149-6.834,7.688-12.121l3.896-4.537l-1.922-2.352
		c-1.068-1.279-2.989-3.201-4.324-4.271l-2.402-1.979l-1.494,1.281c-10.092,8.275-11.959,9.561-15.322,10.252
		c-1.391,0.32-2.242,0.057-4.485-1.336c-1.495-0.906-2.988-2.295-3.257-2.987c-0.747-1.976-0.588-8.011,0.373-13.296
		c1.39-7.795,1.55-7.152-2.773-8.543c-2.137-0.691-4.697-1.28-5.818-1.387l-1.923-0.16l-2.352,6.354
		c-2.563,6.779-4.856,10.943-6.938,12.279c-0.748,0.479-2.457,0.854-3.951,0.854c-4.752,0-7.528-3.576-11.319-14.574l-1.813-5.23
		l-2.137,0.373c-2.563,0.428-8.917,2.295-9.449,2.775c-0.16,0.213,0.158,2.775,0.748,5.711c1.229,6.354,1.493,12.709,0.532,14.951
		c-0.427,1.066-1.653,2.135-3.522,3.148c-2.83,1.495-2.882,1.549-5.285,0.693c-2.99-1.016-6.354-3.258-11.426-7.688
		c-2.138-1.867-4.06-3.361-4.271-3.361c-0.267,0-2.349,1.92-4.646,4.217l-4.218,4.22l3.202,3.685
		c6.143,7.049,8.703,11.104,8.703,13.828c0,2.297-2.51,6.088-4.592,6.939c-2.457,1.016-5.178,0.962-13.241-0.375
		c-5.712-0.959-6.888-1.066-7.313-0.426c-0.748,1.281-2.67,9.021-2.512,10.195c0.107,0.854,1.334,1.496,5.768,3.045
		c6.728,2.401,9.396,3.736,11.641,5.82c1.604,1.492,1.708,1.867,1.708,5.18c0,3.363-0.105,3.684-1.708,5.229
		c-1.813,1.656-7.635,4.594-11.426,5.714c-2.137,0.642-2.563,0.534-24.562-7.739c-12.28-4.646-23.491-9.023-24.827-9.72
		c-3.043-1.603-6.142-4.753-8.703-8.757l-1.869-3.043l1.389-2.775c0.747-1.55,2.295-3.736,3.363-4.857
		c1.976-2.082,2.029-2.082,6.033-2.082c3.735,0,4.219,0.105,5.875,1.549c2.399,2.137,4.322,5.818,7.366,14.146l2.563,6.996
		l2.296-0.107c1.229-0.053,4.378-0.748,6.94-1.549c3.522-1.119,4.698-1.654,4.698-2.35c0-0.533-0.479-3.311-1.121-6.193
		c-1.334-6.354-1.604-15.162-0.534-17.672c0.854-2.084,5.604-4.965,8.17-4.965c3.578,0,9.607,3.791,17.084,10.678l3.631,3.258
		l1.922-1.442c1.068-0.8,3.417-3.146,5.285-5.229l3.418-3.687l-2.243-2.614c-8.384-9.717-11.159-13.883-11.8-17.564
		c-0.271-1.655-0.055-2.51,1.602-5.182c1.495-2.563,2.352-3.416,3.846-3.949c2.83-0.961,10.037-0.641,17.619,0.801l6.62,1.281
		l0.534-1.389c0.693-1.761,3.098-11.158,3.098-12.064c0-0.43-1.923-1.336-4.378-2.188c-10.409-3.418-16.766-6.834-18.313-9.824
		c-1.017-1.922-0.961-6.621,0.053-8.65c1.495-2.883,7.048-5.979,17.459-9.557l5.232-1.814l-0.373-2.137
		c-0.429-2.776-2.832-11.104-3.313-11.533c-0.214-0.212-3.363,0.216-7.048,0.908c-7.155,1.334-14.79,1.654-17.514,0.693
		c-2.401-0.802-5.659-6.728-5.125-9.184c0.802-3.735,3.791-8.438,9.932-15.431c2.027-2.242,3.63-4.324,3.63-4.646
		c0-0.693-5.5-6.619-8.115-8.648l-2.081-1.707l-2.242,2.136c-4.061,3.896-11.213,9.344-13.938,10.625
		c-1.494,0.693-3.47,1.282-4.431,1.282c-2.403,0-7.422-3.045-8.276-5.021c-1.015-2.456-0.747-10.892,0.587-17.673
		c0.587-3.257,1.122-6.14,1.122-6.514c0-1.229-13.772-4.857-14.147-3.687c-3.043,9.932-6.566,17.728-9.291,20.608
		c-2.028,2.137-2.028,2.137-6.086,2.137c-3.523,0-4.22-0.16-5.605-1.336c-2.137-1.762-5.445-8.329-7.9-15.482
		c-1.068-3.257-2.138-6.032-2.298-6.193c-0.166-0.208-2.248,0.113-4.599,0.647c-2.349,0.587-5.444,1.439-6.833,1.869l-2.617,0.854
		l0.375,2.456c0.319,2.188,0.268,2.353-0.642,1.979c-3.685-1.55-8.703-3.046-13.509-4.006c-4.697-0.961-6.834-1.12-13.348-0.906
		c-8.275,0.267-13.08,1.334-20.021,4.378c-7.796,3.471-17.673,11.479-23.333,18.954c-3.47,4.539-8.168,14.146-9.557,19.486
		c-1.548,5.872-1.978,17.244-0.803,22.64c0.747,3.574,0.747,4.057-0.054,5.604c-1.175,2.295-1.495,10.678-0.587,15.91
		c0.427,2.297,0.747,4.166,0.747,4.166c-11.746-3.098-10.357-3.631-13.401,5.178c-3.47,10.199-6.14,15.539-9.344,18.527
		l-2.616,2.457h-4.592h-4.592l-2.563-2.615c-3.148-3.098-5.817-8.543-9.396-18.795l-2.51-7.313l-4.593,1.016
		c-4.966,1.066-11.317,3.043-12.013,3.686c-0.267,0.213,0.213,3.736,1.068,7.795c1.653,8.541,2.082,19.436,0.8,22.479
		c-0.854,1.977-7.368,6.035-9.771,6.035c-3.896,0-9.931-3.688-19.326-11.748l-6.247-5.395l-1.496,1.068
		c-0.801,0.588-3.685,3.311-6.46,6.141l-5.019,5.072l3.15,3.576c10.625,11.961,14.042,17.354,14.095,21.998
		c0,3.311-3.522,9.344-5.98,10.252c-4.538,1.602-12.601,1.119-25.201-1.549l-4.699-1.018l-0.748,1.814
		c-1.121,2.617-3.257,10.357-3.684,13.027l-0.32,2.402l6.834,2.348c9.664,3.313,16.337,6.568,19.167,9.396l2.349,2.35v4.859v4.805
		l-2.242,2.457c-2.723,2.938-9.023,6.143-18.581,9.344c-3.684,1.229-6.888,2.402-7.154,2.67c-0.801,0.693,3.364,17.031,4.378,17.031
		c0.213,0,3.524-0.641,7.315-1.391c3.844-0.746,9.824-1.492,13.401-1.652c8.649-0.373,10.411,0.318,13.188,5.338
		c1.335,2.352,1.976,4.166,1.976,5.555c0,4.109-3.738,10.197-12.173,19.859l-4.859,5.555l3.043,3.363
		c1.655,1.869,4.432,4.646,6.193,6.193c2.776,2.402,3.257,2.668,4.165,2.082c0.961-0.588,1.015-0.535,0.748,0.854
		c-0.16,0.805-2.029,9.664-4.111,19.648s-3.791,18.742-3.791,19.381c-0.053,2.137,2.83,5.555,5.928,7.154l2.828,1.496H570.03
		c120.609,0,145.492-0.107,146.935-0.695c2.776-1.174,5.231-3.631,6.567-6.512c1.174-2.457,1.281-3.365,1.281-10.945
		c0-7.102-0.48-11.746-3.203-32.568c-1.765-13.35-3.473-27.926-3.738-32.303c-0.426-7.049-0.801-10.625-1.868-18.475
		c-0.214-1.709-0.105-2.029,1.017-2.295c1.602-0.375,5.871,1.922,7.152,3.842c1.229,1.871,1.068,8.275-0.318,15.324
		c-0.587,2.938-0.908,5.5-0.748,5.713c0.533,0.48,6.889,2.35,9.449,2.773l2.137,0.375l1.813-5.23
		c2.241-6.566,4.325-10.678,6.3-12.547c1.229-1.176,2.029-1.441,4.699-1.551c1.763-0.053,3.736,0.16,4.324,0.479
		c1.869,0.965,4.377,5.447,6.888,12.176l2.353,6.354l1.762-0.16c2.082-0.16,9.451-2.242,9.771-2.775
		c0.105-0.213-0.27-2.938-0.802-6.141c-1.28-6.887-1.388-12.547-0.318-14.576c0.427-0.854,1.921-2.135,3.361-2.883
		c2.188-1.174,2.938-1.336,4.593-1.016c2.938,0.693,6.086,2.775,11.428,7.475l4.805,4.219l3.257-2.938
		c1.815-1.604,3.791-3.576,4.378-4.432l1.121-1.604l-3.896-4.539c-4.593-5.285-7.315-9.558-7.688-12.119
		c-0.268-1.389,0.055-2.4,1.229-4.432c2.51-4.271,5.553-4.807,16.498-2.938c3.471,0.588,6.62,0.961,6.939,0.854
		c0.32-0.105,1.121-2.137,1.707-4.434C821.244,629.046,821.565,630.057,816.066,628.139z M494.961,622.485
		c-3.522,1.23-9.503,3.363-13.294,4.752c-3.737,1.389-6.994,2.354-7.154,2.189c-0.533-0.48,1.335-3.844,3.417-6.143
		c5.231-5.764,13.348-7.738,20.715-4.963c1.39,0.533,2.616,1.176,2.671,1.441C501.315,619.977,498.485,621.201,494.961,622.485z
		 M530.787,605.614c-1.281,2.775-4.271,5.607-7.42,6.994l-2.563,1.121l-4.165-3.949c-7.581-7.209-16.018-10.355-26.694-9.822
		c-9.664,0.428-16.445,3.471-23.601,10.52c-3.31,3.309-4.538,5.018-6.514,9.076c-2.35,4.854-4.111,11.158-4.111,14.895
		c0,1.553-0.16,1.656-3.844,2.777c-4.858,1.439-6.674,2.295-8.81,4.324l-1.655,1.602l-0.427-2.563
		c-0.213-1.391-0.213-4.857-0.055-7.637c1.55-23.65,17.833-42.443,40.952-47.355c2.351-0.48,6.087-0.645,11.479-0.535
		c6.779,0.156,8.756,0.371,12.707,1.596c8.7,2.617,15.964,6.941,22.211,13.352l3.417,3.471L530.787,605.614z M535.591,570.906
		c-0.961,0.057-3.097-0.801-5.285-2.135c-4.752-2.83-5.393-4.164-5.393-11.426c0-4.539,1.441-15.697,2.189-16.928
		c0.268-0.477,5.072,1.873,5.873,2.887c0.32,0.375,0.961,2.51,1.441,4.699c0.48,2.188,2.136,7.74,3.684,12.277
		c1.495,4.539,2.776,8.49,2.776,8.758C540.877,569.682,537.566,570.854,535.591,570.906z M623.369,528.565
		c0-10.037,0.215-11.531,1.603-11.531c1.549,0,2.776-1.814,4.485-6.621c0.32-0.854,0.746-0.961,3.471-0.693
		c1.706,0.109,4.162,0.752,5.497,1.285c5.552,2.508,8.542,6.992,8.863,13.398c0.213,3.523,0.054,4.219-1.441,7.314
		c-2.83,5.713-7.313,8.488-13.668,8.436c-2.723,0-4.432-0.318-6.247-1.227l-2.563-1.178V528.565z M618.137,564.559l1.39-5.5
		c0.692-2.99,1.494-5.66,1.708-5.873c0.214-0.268,1.653-0.053,3.257,0.373c4.539,1.334,12.014,1.123,16.873-0.479
		c20.93-7.049,27.281-33.156,11.904-48.854c-5.125-5.125-11.479-8.063-19.222-8.863l-3.737-0.374v-6.087v-6.14l4.432,0.374
		c2.401,0.21,6.14,0.851,8.275,1.385c5.93,1.495,12.813,5.286,17.564,9.771c24.563,22.854,14.149,63.163-18.473,71.387
		c-3.791,0.959-5.556,1.064-11.479,0.854c-4.324-0.16-8.062-0.588-9.716-1.119L618.137,564.559z M756.313,650.727
		c-4.433,1.068-12.763,1.068-16.818,0.055c-12.066-3.045-21.729-12.334-25.414-24.293c-1.016-3.148-1.229-5.285-1.229-9.877
		c0-10.092,3.15-17.674,10.308-24.883c4.377-4.377,10.195-7.688,16.068-9.236c3.898-1.012,12.762-1.064,17.086,0
		c15.322,3.578,26.694,18.102,26.694,34.119C783.008,632.63,771.636,647.151,756.313,650.727z"/>
	<linearGradient id="SVGID_5_" gradientUnits="userSpaceOnUse" x1="747.8975" y1="255.5002" x2="747.8975" y2="827.5011">
		<stop  offset="0.2556" style="stop-color:#3A364A;stop-opacity:0.3"/>
		<stop  offset="0.8259" style="stop-color:#3A364A"/>
	</linearGradient>
	<path fill="url(#SVGID_5_)" d="M741.184,373.431c2.938,1.281,3.738,1.439,7.638,1.229c9.235-0.532,15.163-6.46,15.695-15.695
		c0.216-3.897,0.057-4.698-1.229-7.637c-1.707-3.734-5.021-7.102-8.703-8.7c-2.67-1.179-7.955-1.713-10.571-1.018
		c-2.563,0.644-7.103,3.312-8.542,5.021c-0.748,0.906-1.977,2.829-2.773,4.323c-1.869,3.686-2.029,9.983-0.271,13.774
		C734.137,368.465,737.448,371.722,741.184,373.431z M741.023,353.034c2.403-3.362,7.956-4.431,11.319-2.189
		c2.563,1.764,3.844,3.736,4.111,6.354c0.533,5.231-4.166,9.932-9.397,9.396c-2.669-0.269-4.592-1.548-6.354-4.164
		C739.1,360.08,739.209,355.544,741.023,353.034z"/>
	<linearGradient id="SVGID_6_" gradientUnits="userSpaceOnUse" x1="747.8984" y1="255.5002" x2="747.8984" y2="827.5011">
		<stop  offset="0.2556" style="stop-color:#3A364A;stop-opacity:0.3"/>
		<stop  offset="0.8259" style="stop-color:#3A364A"/>
	</linearGradient>
	<path fill="url(#SVGID_6_)" d="M702.157,350.514c4.271,1.44,6.834,2.725,8.436,4.164c1.604,1.495,1.656,5.231,0.055,6.834
		c-1.176,1.174-6.086,3.577-9.662,4.698c-2.352,0.748-2.513,1.495-1.178,5.874l0.803,2.83l1.977-0.319
		c4.164-0.644,10.199-0.961,11.479-0.644c0.748,0.161,1.868,1.177,2.563,2.243c1.016,1.654,1.068,2.138,0.589,3.845
		c-0.321,1.119-2.136,3.896-4.06,6.246l-3.472,4.271l2.886,2.883l2.883,2.883l3.631-2.938c6.033-4.912,8.063-5.552,11.212-3.63
		c2.349,1.389,2.723,3.735,1.604,10.146c-0.479,2.774-0.694,5.23-0.479,5.444c0.641,0.587,7.047,2.083,7.582,1.764
		c0.32-0.161,0.533-0.589,0.533-0.854c0-1.335,3.418-9.021,4.592-10.25c1.068-1.176,1.815-1.441,3.951-1.441
		c2.457,0,2.774,0.159,4.166,2.028c0.801,1.121,2.135,4.004,2.989,6.459l1.493,4.326l1.979-0.321
		c1.065-0.212,2.773-0.64,3.791-1.014c2.082-0.748,2.028-0.269,1.334-8.33c-0.533-5.659-0.213-6.888,1.922-8.115
		c3.205-1.762,5.34-1.066,10.945,3.685c2.774,2.352,3.631,2.83,4.379,2.403c1.065-0.588,4.912-4.646,4.912-5.18
		c0-0.159-0.962-1.39-2.139-2.726c-3.257-3.735-5.339-7.101-5.339-8.755c0-2.082,1.655-4.698,3.149-5.125
		c0.692-0.16,3.311-0.105,5.875,0.106c8.381,0.692,7.633,0.907,8.646-2.403c1.495-4.592,1.495-4.484-3.361-6.193
		c-2.404-0.854-5.285-2.188-6.408-2.987c-1.869-1.391-2.028-1.708-2.028-4.059c0-1.389,0.214-2.775,0.427-3.043
		c0.803-1.176,3.737-2.831,7.582-4.271c2.189-0.854,4.22-1.708,4.434-1.868c0.428-0.375-1.016-6.887-1.654-7.582
		c-0.213-0.214-2.67,0-5.446,0.479c-6.405,1.121-8.756,0.748-10.146-1.604c-1.922-3.149-1.281-5.179,3.631-11.212l2.938-3.63
		l-2.828-2.882l-2.83-2.885l-3.523,2.938c-6.354,5.286-9.29,5.979-12.174,3.097c-1.334-1.335-1.334-1.548-1.014-6.247
		c0.158-2.724,0.479-5.818,0.641-6.889l0.32-1.977l-2.83-0.802c-4.646-1.388-5.072-1.28-6.142,1.922
		c-1.334,4.22-3.791,8.863-4.966,9.505c-0.587,0.268-1.975,0.533-3.149,0.533c-3.044,0-4.696-2.136-7.581-10.038
		c-0.643-1.814-1.229-3.31-1.281-3.256c-0.011,0.005-1.826,0.539-3.962,1.126l-3.951,1.122l0.32,1.654
		c1.922,9.45,1.707,12.547-1.067,14.147c-1.015,0.643-2.243,1.122-2.669,1.122c-1.389,0-4.111-1.654-8.17-4.966l-4.004-3.203
		l-2.83,3.043l-2.829,3.043l2.938,3.417c2.938,3.473,5.07,7.047,5.07,8.489c0,0.427-0.479,1.655-1.121,2.669
		c-0.854,1.441-1.602,1.979-3.043,2.243c-1.762,0.32-8.646-0.375-11.639-1.175c-1.016-0.27-1.229,0.055-2.083,3.363
		c-0.534,1.976-0.962,3.844-1.015,4.109C698.684,349.073,700.235,349.82,702.157,350.514z M724.794,353.562
		c1.014-4.857,3.042-8.704,6.46-12.173c6.245-6.355,15.964-8.49,24.667-5.5c5.072,1.708,10.57,6.407,12.867,10.998
		c4.218,8.224,3.471,18.474-1.922,25.521c-8.33,10.944-24.668,12.547-34.652,3.312C725.754,369.791,723.085,361.731,724.794,353.562
		z"/>
	<linearGradient id="SVGID_7_" gradientUnits="userSpaceOnUse" x1="386.3149" y1="255.5002" x2="386.3149" y2="827.5011">
		<stop  offset="0.2556" style="stop-color:#3A364A;stop-opacity:0.3"/>
		<stop  offset="0.8259" style="stop-color:#3A364A"/>
	</linearGradient>
	<path fill="url(#SVGID_7_)" d="M388.311,455.483c10.945-0.961,19.648-7.581,23.759-18.259c1.655-4.271,1.815-12.439,0.32-16.818
		c-4.965-14.736-20.288-22.692-34.437-17.835c-11.586,3.951-18.741,13.774-18.741,25.896
		C359.212,444.004,372.934,456.764,388.311,455.483z M374.003,434.714c-2.669-5.181-1.762-11.906,2.189-16.125
		c3.843-4.112,11.265-5.286,16.551-2.669c5.072,2.51,7.902,7.635,7.475,13.455c-0.267,3.685-1.495,6.3-4.004,8.81
		c-2.509,2.509-5.125,3.737-8.703,4.004C381.531,442.615,376.672,439.946,374.003,434.714z"/>
	<linearGradient id="SVGID_8_" gradientUnits="userSpaceOnUse" x1="386.2534" y1="255.5002" x2="386.2534" y2="827.5011">
		<stop  offset="0.2556" style="stop-color:#3A364A;stop-opacity:0.3"/>
		<stop  offset="0.8259" style="stop-color:#3A364A"/>
	</linearGradient>
	<path fill="url(#SVGID_8_)" d="M391.938,488.585c2.189,2.296,4.913,7.849,7.102,14.734l1.548,4.699l1.869-0.32
		c2.83-0.479,9.824-2.4,10.571-2.883c0.534-0.32,0.427-1.709-0.48-6.781c-1.335-7.366-1.602-13.667-0.587-15.964
		c0.801-1.975,5.179-4.537,7.635-4.537c3.417,0.055,7.154,2.401,15.483,9.719l3.577,3.097l3.952-3.685
		c2.135-2.027,4.271-4.271,4.645-5.021c0.694-1.335,0.587-1.548-2.563-5.02c-4.594-5.072-8.115-10.307-8.863-13.351
		c-0.643-2.456-0.643-2.669,0.961-5.604c1.121-2.083,2.188-3.259,3.31-3.737c2.351-1.016,9.29-0.748,16.231,0.587
		c4.913,0.961,6.192,1.068,6.514,0.48c0.643-1.017,2.563-8.438,2.723-10.466l0.16-1.813l-6.14-2.242
		c-7.795-2.883-10.465-4.218-12.921-6.621c-1.922-1.813-2.029-2.083-2.029-5.285c0-2.188,0.321-3.845,0.854-4.697
		c1.653-2.563,6.14-4.858,16.392-8.543l4.164-1.494l-0.32-2.189c-0.641-3.791-2.937-10.464-3.63-10.464
		c-0.374,0-3.257,0.479-6.46,1.068c-6.565,1.228-13.829,1.388-15.75,0.374c-2.083-1.017-4.857-6.088-4.483-8.063
		c0.532-2.937,3.311-7.421,7.9-12.866c2.509-2.938,4.538-5.604,4.538-5.928c0-0.319-2.029-2.563-4.538-4.965l-4.539-4.432
		l-3.577,3.148c-7.421,6.567-12.6,9.771-15.644,9.771c-2.349,0-6.781-2.616-7.582-4.538c-1.014-2.352-0.748-9.771,0.534-16.553
		c0.641-3.203,0.961-6.031,0.748-6.246c-0.48-0.479-10.198-3.097-11.586-3.097c-0.907,0-1.388,0.8-2.616,4.646
		c-2.189,6.834-5.286,13.081-7.528,15.056c-1.709,1.495-2.243,1.655-5.286,1.655c-3.15,0-3.471-0.106-5.339-1.978
		c-2.349-2.351-4.592-6.889-6.995-13.987c-1.975-5.928-1.975-5.981-8.007-4.38c-5.125,1.391-6.674,2.029-6.674,2.83
		c0,0.374,0.48,3.312,1.068,6.516c1.175,6.514,1.388,13.455,0.427,15.537c-0.32,0.748-1.815,2.082-3.31,2.988
		c-2.189,1.391-3.043,1.604-4.966,1.391c-2.99-0.321-6.941-2.776-13.348-8.225l-5.125-4.378l-2.563,2.243
		c-1.388,1.229-3.524,3.362-4.752,4.805l-2.243,2.512l2.723,2.988c6.247,6.781,10.198,13.027,10.198,15.966
		c0,2.082-2.616,6.619-4.378,7.526c-2.136,1.122-9.504,0.961-16.231-0.374c-3.097-0.587-5.98-0.961-6.3-0.854
		c-0.641,0.268-2.403,5.659-3.417,10.356l-0.534,2.188l5.606,1.977c7.475,2.563,12.44,5.125,14.469,7.477
		c1.495,1.653,1.708,2.296,1.708,5.07c0,2.725-0.213,3.417-1.602,4.967c-2.029,2.35-6.354,4.592-13.348,6.993
		c-3.096,1.066-5.873,2.028-6.193,2.137c-0.48,0.161-0.427,1.175,0.16,3.631c0.854,3.951,2.296,8.542,2.776,9.077
		c0.161,0.214,2.99-0.106,6.193-0.694c7.368-1.388,14.362-1.602,16.499-0.479c1.975,0.961,4.484,5.019,4.538,7.208
		c0.107,3.257-3.043,8.327-9.717,15.909l-3.204,3.632l4.485,4.536c2.456,2.457,4.698,4.485,5.018,4.485
		c0.321,0,2.083-1.334,4.004-2.99c6.941-6.087,10.946-8.646,14.523-9.289c1.655-0.319,2.456-0.105,4.805,1.335
		c1.548,0.906,3.15,2.241,3.47,2.989c1.015,1.921,0.801,9.396-0.374,15.537c-0.587,3.043-1.068,5.926-1.068,6.406
		c0,0.694,1.121,1.283,4.165,2.188c2.243,0.746,5.072,1.494,6.3,1.654l2.189,0.375l1.762-4.967
		c2.723-7.688,5.019-12.333,7.154-14.468c1.869-1.869,2.136-1.978,5.553-1.978C389.802,486.608,390.016,486.661,391.938,488.585z
		 M349.015,437.433c-0.961-3.63-1.068-5.499-0.908-10.57c0.48-10.519,3.738-18.207,10.838-25.414
		c9.611-9.77,23.118-13.612,36.521-10.411c22.478,5.394,35.078,29.524,26.696,51.258c-5.98,15.535-21.784,25.572-38.442,24.396
		C366.902,465.464,353.127,453.879,349.015,437.433z"/>
	<linearGradient id="SVGID_9_" gradientUnits="userSpaceOnUse" x1="598.4336" y1="255.5002" x2="598.4336" y2="827.5011">
		<stop  offset="0.2556" style="stop-color:#3A364A;stop-opacity:0.3"/>
		<stop  offset="0.8259" style="stop-color:#3A364A"/>
	</linearGradient>
	<path fill="url(#SVGID_9_)" d="M565.072,335.827c3.116,1.054,4.983,1.985,6.151,3.037c1.168,1.093,1.208,3.816,0.04,4.984
		c-0.855,0.856-4.438,2.609-7.049,3.427c-1.713,0.546-1.831,1.092-0.855,4.284l0.584,2.064l1.438-0.234
		c3.038-0.468,7.438-0.7,8.373-0.468c0.545,0.118,1.362,0.855,1.868,1.636c0.74,1.208,0.779,1.559,0.429,2.805
		c-0.231,0.816-1.558,2.843-2.96,4.559l-2.531,3.113l2.104,2.104l2.103,2.103l2.647-2.143c4.4-3.583,5.881-4.049,8.179-2.646
		c1.713,1.014,1.985,2.727,1.168,7.398c-0.351,2.024-0.506,3.816-0.351,3.973c0.468,0.43,5.141,1.521,5.529,1.285
		c0.232-0.117,0.391-0.43,0.391-0.624c0-0.974,2.492-6.581,3.349-7.478c0.778-0.855,1.324-1.051,2.882-1.051
		c1.791,0,2.025,0.114,3.038,1.479c0.584,0.817,1.56,2.922,2.183,4.713l1.09,3.154l1.441-0.234c0.777-0.155,2.023-0.467,2.766-0.739
		c1.519-0.545,1.479-0.192,0.974-6.074c-0.39-4.128-0.155-5.021,1.401-5.918c2.336-1.285,3.895-0.778,7.982,2.687
		c2.023,1.715,2.646,2.064,3.192,1.754c0.778-0.429,3.583-3.39,3.583-3.777c0-0.115-0.701-1.013-1.559-1.985
		c-2.375-2.727-3.896-5.178-3.896-6.386c0-1.521,1.207-3.428,2.297-3.738c0.506-0.116,2.414-0.077,4.284,0.079
		c6.113,0.505,5.568,0.661,6.309-1.753c1.092-3.351,1.092-3.271-2.453-4.52c-1.752-0.623-3.854-1.597-4.674-2.181
		c-1.361-1.013-1.479-1.246-1.479-2.959c0-1.012,0.156-2.024,0.313-2.22c0.584-0.857,2.727-2.064,5.529-3.115
		c1.599-0.624,3.076-1.247,3.232-1.362c0.311-0.271-0.74-5.021-1.209-5.529c-0.156-0.155-1.947,0-3.973,0.352
		c-4.674,0.817-6.388,0.545-7.398-1.169c-1.401-2.297-0.936-3.776,2.647-8.178l2.144-2.648l-2.063-2.103l-2.063-2.104l-2.57,2.144
		c-4.635,3.854-6.774,4.359-8.879,2.259c-0.973-0.975-0.973-1.128-0.739-4.557c0.117-1.985,0.353-4.245,0.469-5.022l0.231-1.44
		l-2.063-0.584c-3.39-1.013-3.699-0.936-4.479,1.4c-0.974,3.077-2.767,6.465-3.622,6.934c-0.428,0.193-1.438,0.391-2.297,0.391
		c-2.221,0-3.428-1.559-5.53-7.321c-0.468-1.324-0.896-2.414-0.935-2.375c-0.001-0.008-1.324,0.381-2.882,0.809l-2.883,0.816
		l0.232,1.208c1.402,6.894,1.246,9.151-0.778,10.319c-0.739,0.468-1.637,0.817-1.946,0.817c-1.014,0-2.998-1.208-5.957-3.623
		l-2.922-2.335l-2.063,2.221l-2.063,2.221l2.143,2.492c2.144,2.53,3.699,5.141,3.699,6.189c0,0.313-0.354,1.208-0.818,1.947
		c-0.623,1.053-1.168,1.44-2.221,1.637c-1.285,0.232-6.31-0.271-8.488-0.855c-0.74-0.194-0.896,0.04-1.52,2.453
		c-0.392,1.438-0.701,2.804-0.74,2.996C562.541,334.776,563.67,335.322,565.072,335.827z M581.585,338.047
		c0.74-3.543,2.22-6.351,4.712-8.879c4.555-4.633,11.643-6.189,17.989-4.01c3.699,1.245,7.711,4.673,9.386,8.021
		c3.077,5.997,2.53,13.474-1.401,18.614c-6.074,7.981-17.99,9.15-25.271,2.413C582.286,349.886,580.34,344.005,581.585,338.047z"/>
	<linearGradient id="SVGID_10_" gradientUnits="userSpaceOnUse" x1="747.8965" y1="255.5002" x2="747.8965" y2="827.5011">
		<stop  offset="0.2556" style="stop-color:#3A364A;stop-opacity:0.3"/>
		<stop  offset="0.8259" style="stop-color:#3A364A"/>
	</linearGradient>
	<path fill="url(#SVGID_10_)" d="M753.591,592.373c-3.15-0.748-9.29-0.643-12.227,0.157c-10.944,3.045-18.367,12.814-18.367,24.082
		c0,21.729,25.789,32.941,41.807,18.102c6.621-6.088,9.45-15.484,7.263-23.975C769.663,601.718,762.348,594.347,753.591,592.373z
		 M759.838,621.364c-1.976,4.752-6.888,7.957-12.064,7.957c-12.549-0.055-17.459-16.018-7.208-23.227
		c3.575-2.51,8.059-2.883,12.705-1.121c2.457,1.016,6.033,4.965,6.781,7.582C760.8,615.278,760.694,619.281,759.838,621.364z"/>
	<linearGradient id="SVGID_11_" gradientUnits="userSpaceOnUse" x1="598.4355" y1="255.5002" x2="598.4355" y2="827.5011">
		<stop  offset="0.2556" style="stop-color:#3A364A;stop-opacity:0.3"/>
		<stop  offset="0.8259" style="stop-color:#3A364A"/>
	</linearGradient>
	<path fill="url(#SVGID_11_)" d="M593.542,352.541c2.143,0.934,2.727,1.051,5.568,0.895c6.735-0.389,11.059-4.712,11.447-11.448
		c0.156-2.843,0.039-3.427-0.896-5.566c-1.246-2.727-3.66-5.181-6.348-6.35c-1.948-0.856-5.804-1.247-7.712-0.741
		c-1.868,0.47-5.18,2.415-6.229,3.66c-0.545,0.663-1.441,2.063-2.025,3.153c-1.361,2.688-1.479,7.283-0.193,10.048
		C588.401,348.919,590.815,351.295,593.542,352.541z M593.42,337.666c1.755-2.453,5.805-3.233,8.258-1.598
		c1.869,1.285,2.806,2.728,2.999,4.635c0.393,3.815-3.037,7.242-6.854,6.854c-1.947-0.194-3.352-1.129-4.635-3.038
		C592.019,342.807,592.097,339.497,593.42,337.666z"/>
</g>
</svg>
