<?xml version="1.0" encoding="utf-8"?>
<!-- Generator: Adobe Illustrator 16.0.0, SVG Export Plug-In . SVG Version: 6.00 Build 0)  -->
<!DOCTYPE svg PUBLIC "-//W3C//DTD SVG 1.1//EN" "http://www.w3.org/Graphics/SVG/1.1/DTD/svg11.dtd">
<svg version="1.1" id="Warstwa_1" xmlns="http://www.w3.org/2000/svg" xmlns:xlink="http://www.w3.org/1999/xlink" x="0px" y="0px"
	 width="1128px" height="990px" viewBox="0 0 1128 990" enable-background="new 0 0 1128 990" xml:space="preserve">
<g>
	
		<linearGradient id="SVGID_1_" gradientUnits="userSpaceOnUse" x1="858.46" y1="-148.1213" x2="858.4598" y2="639.8865" gradientTransform="matrix(1 0 0 -1 -294.46 753.9009)">
		<stop  offset="0" style="stop-color:#343045;stop-opacity:0.5"/>
		<stop  offset="1" style="stop-color:#343045"/>
	</linearGradient>
	<path fill="none" stroke="url(#SVGID_1_)" stroke-width="31" stroke-miterlimit="10" d="M750.552,129.515
		c19.626,0,43.814,13.848,53.752,30.771l186.13,316.966c9.939,16.924,9.939,44.614,0,61.538l-186.13,316.968
		c-9.938,16.924-34.126,30.766-53.752,30.766H377.431c-19.626,0-43.815-13.846-53.75-30.768L137.565,538.791
		c-9.937-16.923-9.937-44.619,0-61.543L323.68,160.287c9.939-16.925,34.124-30.771,53.75-30.771L750.552,129.515L750.552,129.515z"
		/>
</g>
<g id="big-hexagon">
	
		<linearGradient id="SVGID_2_" gradientUnits="userSpaceOnUse" x1="858.4609" y1="-99.7346" x2="858.4609" y2="591.4968" gradientTransform="matrix(1 0 0 -1 -294.46 753.9009)">
		<stop  offset="0" style="stop-color:#343045;stop-opacity:0.2"/>
		<stop  offset="1" style="stop-color:#343045"/>
	</linearGradient>
	<path fill="none" stroke="url(#SVGID_2_)" stroke-width="27" stroke-miterlimit="10" d="M723.312,175.905
		c19.627,0,43.815,13.848,53.753,30.769l158.892,270.574c9.938,16.925,9.938,44.614,0,61.54L777.063,809.365
		c-9.938,16.927-34.125,30.771-53.753,30.771H404.669c-19.626,0-43.813-13.849-53.75-30.771L192.046,538.791
		c-9.939-16.923-9.937-44.619,0-61.543l158.873-270.572c9.937-16.923,34.124-30.77,53.75-30.77h318.643V175.905z"/>
	
		<linearGradient id="SVGID_3_" gradientUnits="userSpaceOnUse" x1="858.4609" y1="-99.7346" x2="858.4609" y2="591.4968" gradientTransform="matrix(1 0 0 -1 -294.46 753.9009)">
		<stop  offset="0" style="stop-color:#343045;stop-opacity:0.2"/>
		<stop  offset="1" style="stop-color:#343045"/>
	</linearGradient>
	<path fill="none" stroke="url(#SVGID_3_)" stroke-width="27" stroke-miterlimit="10" d="M723.312,175.905
		c19.627,0,43.815,13.848,53.753,30.769l158.892,270.574c9.938,16.925,9.938,44.614,0,61.54L777.063,809.365
		c-9.938,16.927-34.125,30.771-53.753,30.771H404.669c-19.626,0-43.813-13.849-53.75-30.771L192.046,538.791
		c-9.939-16.923-9.937-44.619,0-61.543l158.873-270.572c9.937-16.923,34.124-30.77,53.75-30.77h318.643V175.905z"/>
</g>
<g>
	<linearGradient id="SVGID_4_" gradientUnits="userSpaceOnUse" x1="563.0752" y1="722.6379" x2="562.8859" y2="738.3528">
		<stop  offset="0" style="stop-color:#3A364A;stop-opacity:0.5"/>
		<stop  offset="0.7556" style="stop-color:#3A364A"/>
	</linearGradient>
	<path fill="url(#SVGID_4_)" d="M591.343,720.832c-1.67-0.797-1.85-0.797-27.059-0.833c-13.966-0.036-26.117,0.036-27.024,0.181
		c-2.358,0.399-4.063,1.234-5.622,2.757c-4.136,4.171-3.845,11.026,0.616,14.836c2.829,2.43,2.285,2.394,30.795,2.394
		c28.548,0,27.894,0.036,30.796-2.466c2.249-1.887,3.411-4.425,3.411-7.509C597.291,725.984,595.15,722.574,591.343,720.832z"/>
	<linearGradient id="SVGID_5_" gradientUnits="userSpaceOnUse" x1="563.104" y1="695.3362" x2="562.9114" y2="711.3189">
		<stop  offset="0" style="stop-color:#3A364A;stop-opacity:0.5"/>
		<stop  offset="0.7556" style="stop-color:#3A364A"/>
	</linearGradient>
	<path fill="url(#SVGID_5_)" d="M613.069,695.442c-3.083-2.791,0.509-2.574-49.148-2.647c-24.521-0.036-45.269,0.073-46.065,0.218
		c-2.358,0.473-3.339,0.979-5.043,2.539c-2.213,2.067-3.228,4.316-3.228,7.255c0,4.063,1.957,7.218,5.478,8.958l2.065,1.017h45.885
		h45.885l2.067-1.017c3.519-1.74,5.478-4.896,5.478-8.958C616.442,699.795,615.391,697.547,613.069,695.442z"/>
	<linearGradient id="SVGID_6_" gradientUnits="userSpaceOnUse" x1="563.0386" y1="667.9592" x2="562.8447" y2="684.0535">
		<stop  offset="0" style="stop-color:#3A364A;stop-opacity:0.5"/>
		<stop  offset="0.7556" style="stop-color:#3A364A"/>
	</linearGradient>
	<path fill="url(#SVGID_6_)" d="M610.965,666.643l-2.067-1.016l-45.158-0.073c-36.237-0.036-45.522,0.036-46.9,0.4
		c-4.896,1.342-8.052,6.237-7.326,11.279c0.58,3.81,3.989,7.327,7.906,8.163c1.306,0.253,15.453,0.361,46.684,0.289l44.795-0.109
		l2.067-1.016c3.7-1.813,5.514-4.751,5.514-8.958C616.479,671.395,614.665,668.456,610.965,666.643z"/>
	<linearGradient id="SVGID_7_" gradientUnits="userSpaceOnUse" x1="564.3511" y1="328.4666" x2="560.8154" y2="621.933">
		<stop  offset="0" style="stop-color:#3A364A;stop-opacity:0.5"/>
		<stop  offset="0.7556" style="stop-color:#3A364A"/>
	</linearGradient>
	<path fill="url(#SVGID_7_)" d="M721.886,399.391c-8.778-34.604-28.691-65.363-56.839-87.852
		c-31.955-25.499-72.726-38.158-113.823-35.257c-70.149,4.969-129.708,54.844-147.082,123.108
		c-7.653,30.105-6.603,63.547,2.902,91.948c6.674,19.986,17.846,38.449,34.965,57.854c4.026,4.571,6.022,6.639,19.841,21.039
		c16.541,17.229,21.074,22.271,27.35,30.613c6.819,9.032,12.551,19.587,15.562,28.619c2.683,8.088,3.953,14.907,4.425,23.468
		c0.146,2.575,0.399,4.934,0.616,5.15c0.508,0.689,105.915,0.689,106.424,0c0.217-0.217,0.471-2.575,0.616-5.15
		c1.233-23.143,10.409-42.547,31.049-65.471c2.249-2.504,9.575-10.265,16.287-17.229c14.798-15.344,16.684-17.411,22.45-24.121
		c15.707-18.354,26.044-35.872,32.355-54.734C728.45,463.011,729.503,429.351,721.886,399.391z M561.018,327.208v10.883
		l-4.533,0.253c-20.929,1.124-41.567,9.068-58.035,22.344c-19.986,16.105-33.661,40.589-36.78,65.979
		c-0.29,2.356-0.653,5.948-0.798,7.979l-0.218,3.736h-10.918h-10.882l0.254-5.151c1.161-23.323,9.177-46.283,22.742-65.289
		c19.732-27.567,50.093-45.921,83.499-50.527c4.571-0.617,11.825-1.197,14.218-1.125l1.451,0.036V327.208z"/>
</g>
</svg>
