<?xml version="1.0" encoding="utf-8"?>
<!-- Generator: Adobe Illustrator 16.0.0, SVG Export Plug-In . SVG Version: 6.00 Build 0)  -->
<!DOCTYPE svg PUBLIC "-//W3C//DTD SVG 1.1//EN" "http://www.w3.org/Graphics/SVG/1.1/DTD/svg11.dtd">
<svg version="1.1" id="Warstwa_1" xmlns="http://www.w3.org/2000/svg" xmlns:xlink="http://www.w3.org/1999/xlink" x="0px" y="0px"
	 width="1128px" height="990px" viewBox="0 0 1128 990" enable-background="new 0 0 1128 990" xml:space="preserve">
<g>
	
		<linearGradient id="SVGID_1_" gradientUnits="userSpaceOnUse" x1="858.46" y1="-148.1213" x2="858.4598" y2="639.8865" gradientTransform="matrix(1 0 0 -1 -294.46 753.9009)">
		<stop  offset="0" style="stop-color:#343045;stop-opacity:0.5"/>
		<stop  offset="1" style="stop-color:#343045"/>
	</linearGradient>
	<path fill="none" stroke="url(#SVGID_1_)" stroke-width="31" stroke-miterlimit="10" d="M750.552,129.515
		c19.626,0,43.814,13.848,53.752,30.771l186.13,316.966c9.939,16.924,9.939,44.614,0,61.538l-186.13,316.968
		c-9.938,16.924-34.126,30.766-53.752,30.766H377.431c-19.626,0-43.815-13.846-53.75-30.768L137.565,538.791
		c-9.937-16.923-9.937-44.619,0-61.543L323.68,160.287c9.939-16.925,34.124-30.771,53.75-30.771L750.552,129.515L750.552,129.515z"
		/>
</g>
<g id="big-hexagon">
	
		<linearGradient id="SVGID_2_" gradientUnits="userSpaceOnUse" x1="858.4609" y1="-99.7346" x2="858.4609" y2="591.4968" gradientTransform="matrix(1 0 0 -1 -294.46 753.9009)">
		<stop  offset="0" style="stop-color:#343045;stop-opacity:0.2"/>
		<stop  offset="1" style="stop-color:#343045"/>
	</linearGradient>
	<path fill="none" stroke="url(#SVGID_2_)" stroke-width="27" stroke-miterlimit="10" d="M723.312,175.905
		c19.627,0,43.815,13.848,53.753,30.769l158.892,270.574c9.938,16.925,9.938,44.614,0,61.54L777.063,809.365
		c-9.938,16.927-34.125,30.771-53.753,30.771H404.669c-19.626,0-43.813-13.849-53.75-30.771L192.046,538.791
		c-9.939-16.923-9.937-44.619,0-61.543l158.873-270.572c9.937-16.923,34.124-30.77,53.75-30.77h318.643V175.905z"/>
	
		<linearGradient id="SVGID_3_" gradientUnits="userSpaceOnUse" x1="858.4609" y1="-99.7346" x2="858.4609" y2="591.4968" gradientTransform="matrix(1 0 0 -1 -294.46 753.9009)">
		<stop  offset="0" style="stop-color:#343045;stop-opacity:0.2"/>
		<stop  offset="1" style="stop-color:#343045"/>
	</linearGradient>
	<path fill="none" stroke="url(#SVGID_3_)" stroke-width="27" stroke-miterlimit="10" d="M723.312,175.905
		c19.627,0,43.815,13.848,53.753,30.769l158.892,270.574c9.938,16.925,9.938,44.614,0,61.54L777.063,809.365
		c-9.938,16.927-34.125,30.771-53.753,30.771H404.669c-19.626,0-43.813-13.849-53.75-30.771L192.046,538.791
		c-9.939-16.923-9.937-44.619,0-61.543l158.873-270.572c9.937-16.923,34.124-30.77,53.75-30.77h318.643V175.905z"/>
</g>
<linearGradient id="SVGID_4_" gradientUnits="userSpaceOnUse" x1="563.9995" y1="275.5002" x2="563.9995" y2="608.8844">
	<stop  offset="0.1259" style="stop-color:#343045;stop-opacity:0.3"/>
	<stop  offset="1" style="stop-color:#343045"/>
</linearGradient>
<path fill="url(#SVGID_4_)" d="M775.843,537.813l-0.509,4.134c-1.869,16.252-7.192,36.805-13.985,54.017
	c-2.718,6.796-10.25,21.801-14.608,29.048c-11.494,19.025-26.273,36.577-43.202,51.299c-32.841,28.594-73.947,46.147-118.907,50.846
	c-8.438,0.851-31.255,0.851-39.635-0.055c-21.403-2.209-39.409-6.57-58.321-14.043c-46.429-18.347-85.101-52.489-108.827-96.145
	c-12.909-23.725-20.836-48.525-24.63-77.005c-1.415-10.646-1.415-38.844,0-49.828c6.965-54.187,32.331-101.92,72.873-136.911
	c29.104-25.141,65.342-42.296,103.051-48.752c14.156-2.436,19.818-2.888,37.484-2.888h16.817l-1.305-1.698
	c-0.677-0.963-3.736-4.981-6.736-8.946c-3.002-3.964-5.776-8.268-6.116-9.514c-0.68-2.15-0.565-2.435,2.831-9.454
	c1.927-3.963,3.907-7.758,4.361-8.494c0.962-1.414,3.114-1.642,4.357-0.396c2.209,2.207,21.97,34.199,29.841,48.241
	c2.661,4.813,3.454,6.737,3.172,7.756c-0.172,0.736-2.549,3.738-5.323,6.682c-2.717,2.889-8.493,9.23-12.853,14.043
	c-4.36,4.813-8.323,8.833-8.834,8.945c-1.189,0.229-10.135-9.624-10.135-11.098c0-0.564,1.927-3.623,4.305-6.85
	c2.32-3.229,4.133-5.945,3.962-6.117c-0.112-0.168-3.283-0.509-6.965-0.848c-12.23-1.02-32.613,0.169-46.6,2.718
	c-6.115,1.132-14.211,3.057-15.174,3.566c-0.51,0.284,2.379,2.379,8.21,6.002c11.381,7.077,22.705,14.893,23.441,16.194
	c0.736,1.415-12.117,26.556-13.646,26.556c-1.643,0-9.456-3.794-9.796-4.813c-0.227-0.511,0.51-3.059,1.529-5.663
	c1.075-2.661,1.698-4.813,1.359-4.813c-1.587,0-13.194,3.794-20.102,6.568c-51.866,20.78-88.33,67.21-96.768,123.209
	c-1.244,8.21-1.641,27.064-0.849,35.954c3.511,37.088,19.139,70.325,45.638,96.71c24.969,24.914,57.243,40.373,93.143,44.506
	c8.493,0.962,26.498,0.848,35.389-0.283c29.67-3.796,57.131-15.515,79.951-34.256c7.7-6.284,18.966-17.894,24.687-25.366
	c14.268-18.743,24.629-41.335,29.047-63.418l1.02-5.209l2.32-0.283c1.247-0.168,4.473-0.396,7.247-0.511
	c5.776-0.339,5.494-1.018,3.739,7.872c-2.721,14.269-7.645,28.368-14.779,42.748c-24.857,49.83-71.399,83.575-127.568,92.352
	c-10.872,1.699-37.202,1.867-47.281,0.283c-21.346-3.34-34.651-7.531-52.94-16.534c-18.176-8.946-30.406-17.837-45.297-32.784
	c-16.987-17.043-28.99-35.387-37.824-57.811c-4.869-12.401-7.927-23.952-10.135-38.219c-1.076-7.021-1.245-10.475-1.245-24.063
	c0-13.363,0.169-17.045,1.188-23.5c6.059-38.56,21.857-70.211,48.298-96.823c13.929-13.985,27.801-24.063,45.241-32.783
	c6.512-3.284,19.365-8.437,26.272-10.476c2.717-0.85,4.926-1.643,4.926-1.755c0-0.17-3.283-1.926-7.246-3.908
	c-3.965-1.98-7.589-4.02-7.985-4.529c-0.736-0.85-0.622-3.227,0.283-6.965l0.341-1.301l-3.851,1.358
	c-26.839,9.116-53.904,26.441-74.175,47.449c-29.16,30.179-46.657,66.7-52.714,109.732c-1.416,10.249-1.416,36.407,0,46.997
	c4.982,36.522,18.516,68.342,40.937,96.539c6.399,7.986,20.837,22.423,28.821,28.822c24.233,19.363,52.375,32.501,82.385,38.501
	c43.259,8.722,90.143,1.645,128.249-19.306c16.421-9.003,30.292-19.421,43.653-32.728c22.594-22.537,38.675-49.318,47.734-79.554
	c2.32-7.758,5.32-20.95,6.002-26.612c0.623-5.323-0.057-4.927,8.663-5.323c4.247-0.226,9.171-0.511,10.926-0.68L775.843,537.813z
	 M638.593,396.54c-16.591-9.964-33.408-16.137-52.547-19.138c-5.377-0.849-27.461-1.585-31.99-1.076
	c-19.875,2.322-34.313,6.343-49.545,13.816c-14.211,6.964-24.461,14.155-35.897,25.197c-22.536,21.854-36.295,48.807-41.221,80.687
	c-1.416,9.06-1.416,29.444,0,38.504c6.284,40.822,27.971,74.91,61.831,97.162c13.873,9.116,31.369,16.363,47.676,19.76
	c13.477,2.774,32.615,3.511,45.75,1.701c35.673-4.815,67.777-22.706,90.255-50.283c8.72-10.701,18.347-27.801,22.705-40.313
	c2.267-6.399,5.663-19.478,5.209-19.703c-0.226-0.114-2.546,0-5.209,0.169l-4.755,0.282l-0.511,1.983
	c-13.136,52.318-54.186,89.689-107.411,97.729c-8.945,1.358-26.725,1.358-35.672,0c-29.273-4.418-55.376-17.836-75.193-38.561
	c-31.086-32.559-42.977-78.535-31.539-122.248c2.04-7.813,4.871-15.231,9.061-23.837c18.289-37.598,54.414-64.209,96.314-70.834
	c6.341-1.02,25.31-1.698,29.385-1.133l2.663,0.453l-1.587,1.698l-1.641,1.698l3.962,3.625c2.266,2.038,3.567,3.624,3.06,3.624
	c-0.511,0-4.305-0.284-8.381-0.624c-24.234-2.038-52.149,5.379-73.382,19.422c-49.657,32.896-67.38,97.333-41.39,150.784
	c17.383,35.729,50.902,60.076,90.481,65.682c7.586,1.076,24.459,1.076,32.046,0c39.862-5.662,73.894-30.574,90.822-66.475
	c2.773-5.774,7.814-19.817,7.814-21.741c0-0.793-0.511-0.962-2.663-0.962c-4.698,0-4.813,0.111-6.567,5.831
	c-4.813,15.345-13.703,30.292-25.254,42.409c-31.029,32.615-78.93,43.201-120.659,26.67c-38.503-15.176-65.002-49.941-69.702-91.331
	c-0.905-8.097-0.396-23.441,1.133-31.426c9.91-53.226,55.773-91.445,109.563-91.445c6.739,0,17.894,1.02,17.894,1.642
	c0,0.171-1.019,1.076-2.266,1.982c-1.245,0.963-2.264,1.981-2.264,2.377c0,0.794,4.698,4.757,5.66,4.757
	c0.736,0,13.249-7.587,14.665-8.832c0.679-0.624,0.396-1.246-1.924-4.021c-1.53-1.813-5.322-5.889-8.494-9.116l-5.662-5.889
	l2.266,0.396c11.098,1.868,23.103,5.435,32.669,9.682c8.948,3.964,23.839,12.74,22.706,13.42c-0.226,0.113-1.924,0.566-3.736,0.963
	c-1.756,0.396-3.454,1.019-3.736,1.358c-0.339,0.396,0.057,2.095,1.02,4.587l1.527,3.963l2.548-0.112
	c1.358-0.058,6.342-0.736,10.986-1.473c8.491-1.303,8.491-1.303,8.662-2.889c0.226-1.868-2.038-13.078-4.758-23.498
	c-2.151-8.21-2.717-9.682-3.85-9.682c-1.359,0-7.416,2.718-7.983,3.624c-0.397,0.622,0,2.435,1.301,6.455
	c0.965,3.058,1.813,5.718,1.813,5.888S641.933,398.578,638.593,396.54z M653.994,550.441
	c-19.026,48.411-73.439,72.646-122.305,54.47c-6.229-2.266-16.477-7.758-22.364-11.947c-6.853-4.813-16.761-14.723-21.688-21.63
	c-4.585-6.456-11.098-19.309-13.361-26.441c-3.907-12.005-5.551-28.143-4.077-40.146c1.359-11.099,4.87-22.934,9.739-32.56
	c8.324-16.589,23.611-32.16,40.711-41.446c6.343-3.511,21.176-8.89,21.969-8.041c0.17,0.114-0.057,0.624-0.453,1.133
	c-0.735,0.905,0.057,1.359,4.813,2.944l1.698,0.624l-1.698,0.396c-28.026,6.568-49.431,23.271-62,48.412
	c-3,6.001-6.342,16.137-7.702,23.499c-1.585,8.436-1.471,25.025,0.228,32.954c3.963,18.401,11.777,32.897,24.688,45.751
	c13.022,12.964,27.403,20.778,45.807,24.743c4.868,1.019,7.531,1.244,17.099,1.244c9.628,0,12.23-0.168,17.271-1.302
	c30.632-6.567,54.242-26.216,65.851-54.866l1.473-3.511h-2.549c-2.547,0-2.547,0-3.794,2.945
	c-5.662,13.929-16.816,27.972-28.99,36.634c-5.491,3.851-16.42,9.456-22.366,11.438c-29.781,9.796-62.51,2.435-85.046-19.195
	c-12.059-11.551-19.646-24.629-23.724-40.653c-7.135-28.425,1.189-58.889,21.855-79.781c11.043-11.155,24.123-18.743,39.184-22.649
	c7.078-1.869,7.36-1.869,5.831,0.34c-0.68,0.905-1.132,1.812-1.019,1.926c0.17,0.17,1.246,0.622,2.434,1.019l2.209,0.792
	l-5.662,1.246c-23.271,5.379-42.297,20.328-52.999,41.675c-3.113,6.171-5.151,12.116-6.793,19.761
	c-1.643,7.588-1.756,21.97-0.284,29.442c3.284,16.31,10.362,29.613,21.856,41.164c11.38,11.326,24.007,18.176,39.86,21.575
	c7.646,1.642,22.537,1.755,30.01,0.282c20.896-4.189,39.183-16.252,50.677-33.52c2.889-4.305,7.476-13.081,7.476-14.269
	c0-0.454-0.736-0.736-1.869-0.736c-1.756,0-1.981,0.226-3.794,4.076c-3.285,6.964-8.38,13.985-14.382,19.987
	c-15.063,15.005-34.368,22.535-55.547,21.63c-11.719-0.511-20.949-2.831-30.688-7.814c-32.217-16.421-47.958-53.055-37.823-87.99
	c6.174-21.177,22.594-39.297,43.202-47.732c9.91-4.021,22.932-6.229,32.56-5.493c4.019,0.34,4.869,0.566,4.358,1.133
	c-0.509,0.566-0.169,1.076,1.358,2.095l1.983,1.359l-9.173-0.228c-6.908-0.169-10.532,0-14.552,0.681
	c-28.651,4.982-51.244,26.839-57.245,55.32c-1.473,7.021-1.756,19.309-0.566,25.99c7.248,41.05,47.788,67.038,87.821,56.338
	c19.195-5.152,35.559-18.345,44.39-35.784c0.793-1.644,1.473-3.114,1.473-3.285s-0.736-0.282-1.698-0.282
	c-1.416,0-1.869,0.396-2.889,2.377c-4.076,8.098-11.947,17.214-19.988,23.214c-19.249,14.383-45.976,16.875-68.172,6.399
	c-7.416-3.511-12.625-7.19-18.571-13.021c-25.989-25.765-26.668-67.325-1.528-93.768c10.079-10.589,22.988-17.609,36.975-20.102
	c9.625-1.698,29.159-0.679,23.214,1.19c-1.529,0.509-1.416,0.905,0.68,2.378c1.698,1.188,1.869,1.188,3.793,0.34
	c1.133-0.454,3.114-1.246,4.473-1.698c1.361-0.454,2.38-1.076,2.267-1.304c-0.283-0.623-7.983-7.36-8.494-7.36
	c-0.226,0-0.451-0.228-0.451-0.51c0-1.076,14.437,3.396,19.306,5.945l1.927,0.962l-1.813,0.51c-1.019,0.284-1.869,0.681-1.869,0.906
	c0,0.227,0.679,1.246,1.587,2.209l1.527,1.755l5.097-0.736c2.832-0.396,5.152-0.736,5.267-0.793
	c0.282-0.113-1.813-3.907-5.098-9.003c-2.886-4.416-3.622-5.209-4.927-5.209c-0.79,0-1.81,0.226-2.264,0.51
	c-0.85,0.566-0.907,0.452,1.981,4.417c0.907,1.245,0.793,1.245-2.66-0.34c-10.589-4.758-25.537-7.361-37.031-6.342
	c-2.774,0.227-5.152,0.396-5.209,0.34c-0.114-0.058,1.756-2.038,4.133-4.473c2.435-2.492,4.133-4.587,3.851-4.87
	c-0.622-0.623-13.59-6.229-14.552-6.284c-2.095-0.114,2.661-1.134,7.927-1.7c10.476-1.132,24.008,0,34.708,2.944
	c6.06,1.698,16.026,5.663,15.459,6.172c-0.226,0.228-1.416,0.736-2.549,1.134c-2.378,0.734-2.378,1.074,0.511,4.473l1.642,1.925
	l6.456-1.529c3.567-0.849,6.85-1.642,7.247-1.755c0.511-0.169,0.226-1.245-1.076-3.794c-2.943-5.832-9.003-15.685-10.021-16.25
	c-0.68-0.339-1.642-0.171-3.058,0.565c-1.189,0.624-2.151,1.416-2.151,1.813s0.904,1.926,1.98,3.454s1.87,2.888,1.756,3.001
	c-0.058,0.112-2.492-0.68-5.323-1.812c-18.627-7.192-41.56-8.551-60.81-3.682c-19.592,5.041-36.577,15.119-50.225,29.84
	c-12.286,13.193-21.346,30.973-24.914,48.638c-3.453,16.987-2.265,35.561,3.285,52.32c5.379,16.023,13.361,28.594,25.875,40.768
	c13.93,13.478,30.916,22.423,50.621,26.727c5.265,1.131,7.531,1.245,19.532,1.245c12.005,0,14.269-0.114,19.535-1.245
	c30.746-6.682,55.435-24.972,69.814-51.639c2.492-4.645,6.739-14.611,7.532-17.779l0.34-1.53l-2.945,0.169l-3,0.171L653.994,550.441
	z M576.194,454.976c-5.718-1.021-16.421-1.021-21.97,0c-12.343,2.206-25.423,9.342-33.803,18.458
	c-22.761,24.518-21.969,62.284,1.757,85.783c18.514,18.345,46.542,22.874,70.096,11.266c7.307-3.564,12.23-7.189,17.554-12.795
	c3.228-3.454,9.909-12.682,9.909-13.758c0-0.171-0.622-0.34-1.358-0.34c-1.076,0-2.04,0.962-4.529,4.698
	c-6.06,9.174-16.478,17.61-26.557,21.572c-8.38,3.285-11.833,3.907-21.912,3.907c-8.324,0.058-9.966-0.113-14.949-1.473
	c-21.063-5.662-36.69-21.572-42.295-43.145c-1.133-4.361-1.303-6.399-1.303-13.872c0.057-7.532,0.282-9.513,1.528-14.269
	c6.795-25.481,28.708-43.262,54.585-44.166c3.735-0.114,4.812,0,5.377,0.734c0.396,0.511,1.19,1.189,1.813,1.473
	c0.793,0.454-1.133,0.68-6.795,0.85c-6.229,0.282-8.945,0.623-12.965,1.811c-20.895,6.117-35.445,21.97-39.976,43.658
	c-0.396,1.869-0.737,6.682-0.681,10.757c0.058,5.946,0.34,8.438,1.473,12.799c2.662,10.078,6.965,17.891,13.929,25.083
	c7.021,7.247,14.213,11.72,23.555,14.665c19.025,6,39.861,1.245,54.583-12.458c3.625-3.34,10.25-11.663,10.25-12.854
	c0-0.168-0.568-0.339-1.247-0.339c-0.962,0-1.924,0.962-3.568,3.453c-2.491,3.793-8.773,10.078-12.967,12.91
	c-12.682,8.72-29.159,11.607-44.162,7.7c-19.139-4.983-34.54-21.232-38.504-40.596c-1.188-5.663-1.188-16.195,0-21.857
	c5.153-24.972,27.009-42.638,52.828-42.58c5.04,0,7.304,0.622,5.323,1.358c-0.965,0.396-0.965,0.452,0,1.132
	c0.848,0.623-0.34,0.793-7.36,1.019c-7.136,0.284-9.116,0.511-13.192,1.87c-17.215,5.548-29.388,18.288-34.03,35.674
	c-1.643,5.945-1.813,17.891-0.34,23.667c4.359,17.551,16.873,31.028,33.803,36.521c16.873,5.491,36.125,1.247,49.034-10.814
	c3.736-3.511,8.152-8.72,8.152-9.739c0-1.244-2.492,0.509-5.152,3.68c-5.889,6.964-12.627,11.551-21.629,14.61
	c-5.096,1.753-6.625,2.038-12.91,2.264c-15.061,0.565-27.122-4.247-37.144-14.779c-25.706-27.121-12.061-71.684,24.573-80.007
	c6.625-1.529,20.271-1.303,19.817,0.34c-0.058,0.283,0.396,0.905,1.019,1.416c1.134,0.905,1.134,0.905-0.055,0.565
	c-6.228-1.698-16.702-1.302-23.781,0.906c-27.122,8.38-40.258,38.957-27.575,64.154c2.661,5.378,5.039,8.492,9.738,12.965
	c4.927,4.644,10.192,7.758,17.044,10.135c5.095,1.699,5.831,1.813,13.589,1.87c9.23,0,12.796-0.68,19.648-3.965
	c6.736-3.171,11.551-6.851,16.081-12.23c1.813-2.206,2.152-2.831,1.473-3.114c-0.625-0.226-2.152,1.02-4.758,3.739
	c-6.114,6.511-12.853,10.529-21.404,12.796c-5.888,1.529-16.08,1.415-22.023-0.226c-27.293-7.758-40.315-37.882-27.18-62.965
	c4.191-8.041,10.985-14.667,19.14-18.63c6-2.944,10.135-4.021,17.043-4.416c5.773-0.341,13.871,0.567,13.871,1.586
	c0,0.282-0.282,0.51-0.622,0.51c-0.454,0-0.396,0.338,0.111,0.962c0.682,0.849,0.682,0.906-0.169,0.566
	c-2.945-1.076-10.871-1.586-15.4-1.02c-17.099,2.264-29.84,13.023-34.992,29.501c-1.074,3.625-1.303,5.38-1.246,11.89
	c0,6.625,0.227,8.212,1.473,12.005c2.32,6.965,5.209,11.552,10.645,16.986c4.077,4.076,5.832,5.322,10.248,7.473
	c7.474,3.625,11.666,4.476,20.043,4.136c11.269-0.396,19.252-3.738,27.124-11.325c3.171-3,3.851-3.907,3.171-4.358
	c-0.567-0.34-1.304,0.111-2.72,1.755c-2.435,2.829-7.926,6.793-12.57,8.945c-8.605,4.076-20.214,4.587-29.498,1.358
	c-15.911-5.491-26.557-20.44-26.557-37.257c0-6.456,1.303-11.665,4.304-17.836c4.757-9.683,13.702-17.101,24.29-20.272
	c5.777-1.755,15.063-1.924,20.668-0.452c4.644,1.246,11.38,4.303,10.986,4.982c-0.172,0.284,0,0.907,0.451,1.415
	c0.85,1.076,0.736,1.021-4.02-1.415c-10.532-5.492-23.839-5.379-34.767,0.284c-4.927,2.547-12.343,9.683-15.005,14.438
	c-12.061,21.233-1.473,47.618,21.969,54.923c3.511,1.076,5.438,1.304,11.043,1.247c5.888,0,7.361-0.226,11.323-1.587
	c2.491-0.848,5.945-2.435,7.757-3.511c3.397-2.095,8.946-6.793,8.946-7.644c0-1.131-1.359-0.396-4.416,2.38
	c-3.625,3.226-10.644,6.851-15.685,8.152c-4.304,1.076-12.005,1.076-16.703-0.058c-9.909-2.32-19.252-9.738-23.725-18.909
	c-3.001-6.174-4.19-11.837-3.851-18.119c1.416-23.954,24.97-39.864,47.676-32.277c3.964,1.358,9.909,4.644,8.947,4.927
	c-0.396,0.114-0.511,0.679-0.34,1.189c0.283,0.68,0,0.623-1.415-0.341c-4.19-3.001-13.192-5.775-18.799-5.775
	c-4.021,0-10.87,1.7-15.289,3.794c-5.548,2.661-11.89,8.891-14.892,14.666c-6.851,13.192-4.416,29.048,6.061,39.58
	c6.736,6.736,14.379,9.964,23.835,10.021c8.494,0.057,15.459-2.435,22.084-7.869c2.435-1.927,3.113-2.777,2.377-2.889
	c-0.508-0.114-2.151,0.793-3.622,2.038c-14.836,12.345-37.541,8.72-48.073-7.644c-5.039-7.758-6.455-18.63-3.623-27.293
	c3.511-10.872,12.684-19.364,23.61-21.913c4.928-1.134,13.139-0.905,14.439,0.396c0.849,0.793,0.397,0.849-4.869,0.622
	c-6.906-0.282-10.474,0.396-16.022,3.001c-8.665,4.19-15.289,13.421-16.705,23.328c-2.095,14.497,6.172,28.257,20.216,33.578
	c4.698,1.755,12.852,2.151,17.778,0.85c4.584-1.189,9.285-3.567,12.23-6.171c3.168-2.776,1.584-2.549-2.777,0.451
	c-8.888,6.06-20.042,6.965-29.611,2.378c-18.742-9.06-22.591-33.859-7.53-48.129c5.945-5.605,12.853-8.323,20.667-8.21
	c5.151,0.114,7.361,0.566,7.361,1.643c0,0.622,0.622,0.85,2.149,0.792c3.002-0.114,3.228-0.68,0.964-2.604
	c-1.755-1.528-1.813-1.643-0.567-1.302c2.889,0.85,7.814,3.681,11.043,6.284c2.546,2.095,3.057,2.775,2.32,3.058
	c-1.358,0.453-0.057,1.927,2.435,2.775l1.869,0.624l-0.282-1.699c-0.567-2.605-1.983-5.663-2.663-5.663
	c-0.396,0-0.511,0.452-0.282,1.133c0.511,1.527,0.226,1.415-1.756-0.623l-1.641-1.813l2.435,0.396l2.378,0.34l-1.416-2.831
	c-1.247-2.435-1.302-2.83-0.454-2.322c2.435,1.303,10.364,10.589,10.364,12.062c0,0.227-0.34,0.284-0.794,0.113
	c-0.567-0.226-0.679,0.057-0.511,1.076c0.172,0.85,1.077,1.869,2.492,2.605l2.209,1.245v-3.68c0-4.191-0.339-5.438-1.53-5.438
	c-0.622,0-0.791,0.396-0.565,1.246l0.34,1.302l-0.962-1.188c-0.511-0.68-1.983-2.548-3.228-4.135
	c-3.85-4.982-12.401-11.098-17.836-12.738c-1.301-0.396-1.19-0.511,1.416-1.303l2.831-0.906l-3.059-2.718
	c-1.699-1.529-2.944-2.774-2.718-2.774c1.019,0,10.475,4.133,11.723,5.097l1.414,1.132h-1.36h-1.356l1.303,1.415
	c1.075,1.189,1.866,1.416,4.358,1.416c1.64,0,3.002-0.17,3.002-0.396c0-0.17-1.189-2.208-2.605-4.53
	c-2.038-3.283-2.831-4.133-3.962-4.133c-1.531,0-1.758,0.68-0.511,1.698c1.642,1.359,0.454,1.134-3.171-0.509
	c-1.981-0.964-5.774-2.322-8.38-3.059l-4.701-1.358l3.116-1.302c1.756-0.736,3.058-1.53,2.885-1.813
	c-0.168-0.227-1.81-1.473-3.678-2.774c-1.869-1.246-3.342-2.378-3.229-2.492c0.453-0.452,10.135,1.982,14.383,3.625
	c4.868,1.868,12.23,6.229,15.798,9.342l2.264,1.981l-1.584,0.057h-1.644l1.076,1.813c0.907,1.528,1.529,1.87,4.644,2.492
	c2.038,0.452,3.793,0.622,3.964,0.452c0.34-0.34-1.813-6.852-3.228-9.852c-0.736-1.473-1.358-2.039-2.549-2.152
	c-1.813-0.227-1.813-0.057-0.622,2.322l0.962,1.754l-1.359-0.962C594.37,460.354,586.444,456.73,576.194,454.976z"/>
</svg>
