<?xml version="1.0" encoding="utf-8"?>
<!-- Generator: Adobe Illustrator 16.0.0, SVG Export Plug-In . SVG Version: 6.00 Build 0)  -->
<!DOCTYPE svg PUBLIC "-//W3C//DTD SVG 1.1//EN" "http://www.w3.org/Graphics/SVG/1.1/DTD/svg11.dtd">
<svg version="1.1" id="Warstwa_1" xmlns="http://www.w3.org/2000/svg" xmlns:xlink="http://www.w3.org/1999/xlink" x="0px" y="0px"
	 width="1128px" height="990px" viewBox="0 0 1128 990" enable-background="new 0 0 1128 990" xml:space="preserve">
<g>
	
		<linearGradient id="SVGID_1_" gradientUnits="userSpaceOnUse" x1="858.46" y1="-148.1213" x2="858.4598" y2="639.8865" gradientTransform="matrix(1 0 0 -1 -294.46 753.9009)">
		<stop  offset="0" style="stop-color:#343045;stop-opacity:0.5"/>
		<stop  offset="1" style="stop-color:#343045"/>
	</linearGradient>
	<path fill="none" stroke="url(#SVGID_1_)" stroke-width="31" stroke-miterlimit="10" d="M750.552,129.515
		c19.626,0,43.814,13.848,53.752,30.771l186.13,316.966c9.939,16.924,9.939,44.614,0,61.538l-186.13,316.968
		c-9.938,16.924-34.126,30.766-53.752,30.766H377.431c-19.626,0-43.815-13.846-53.75-30.768L137.565,538.791
		c-9.937-16.923-9.937-44.619,0-61.543L323.68,160.287c9.939-16.925,34.124-30.771,53.75-30.771L750.552,129.515L750.552,129.515z"
		/>
</g>
<g id="big-hexagon">
	
		<linearGradient id="SVGID_2_" gradientUnits="userSpaceOnUse" x1="858.4609" y1="-99.7346" x2="858.4609" y2="591.4968" gradientTransform="matrix(1 0 0 -1 -294.46 753.9009)">
		<stop  offset="0" style="stop-color:#343045;stop-opacity:0.2"/>
		<stop  offset="1" style="stop-color:#343045"/>
	</linearGradient>
	<path fill="none" stroke="url(#SVGID_2_)" stroke-width="27" stroke-miterlimit="10" d="M723.312,175.905
		c19.627,0,43.815,13.848,53.753,30.769l158.892,270.574c9.938,16.925,9.938,44.614,0,61.54L777.063,809.365
		c-9.938,16.927-34.125,30.771-53.753,30.771H404.669c-19.626,0-43.813-13.849-53.75-30.771L192.046,538.791
		c-9.939-16.923-9.937-44.619,0-61.543l158.873-270.572c9.937-16.923,34.124-30.77,53.75-30.77h318.643V175.905z"/>
	
		<linearGradient id="SVGID_3_" gradientUnits="userSpaceOnUse" x1="858.4609" y1="-99.7346" x2="858.4609" y2="591.4968" gradientTransform="matrix(1 0 0 -1 -294.46 753.9009)">
		<stop  offset="0" style="stop-color:#343045;stop-opacity:0.2"/>
		<stop  offset="1" style="stop-color:#343045"/>
	</linearGradient>
	<path fill="none" stroke="url(#SVGID_3_)" stroke-width="27" stroke-miterlimit="10" d="M723.312,175.905
		c19.627,0,43.815,13.848,53.753,30.769l158.892,270.574c9.938,16.925,9.938,44.614,0,61.54L777.063,809.365
		c-9.938,16.927-34.125,30.771-53.753,30.771H404.669c-19.626,0-43.813-13.849-53.75-30.771L192.046,538.791
		c-9.939-16.923-9.937-44.619,0-61.543l158.873-270.572c9.937-16.923,34.124-30.77,53.75-30.77h318.643V175.905z"/>
</g>
<linearGradient id="SVGID_4_" gradientUnits="userSpaceOnUse" x1="564.0005" y1="374.5002" x2="564.0005" y2="567.5527">
	<stop  offset="0.1259" style="stop-color:#343045;stop-opacity:0.3"/>
	<stop  offset="1" style="stop-color:#343045"/>
</linearGradient>
<path fill="url(#SVGID_4_)" d="M654.969,463.244l9.814-5.51l6.768-14.326l6.77-14.378l8.658-4.827
	c4.775-2.676,28.18-15.742,52.107-29.07c23.875-13.381,43.764-24.4,44.184-24.559c0.629-0.263,0.787,0.42,0.84,4.041
	c0.053,2.414,0.209,5.877,0.42,7.608l0.314,3.253l13.643-15.479c7.504-8.501,14.641-16.635,15.898-18.051
	c1.26-1.417,1.994-2.52,1.574-2.52c-0.367,0.053-1.73,0.263-3.043,0.524c-5.615,1.154-41.559,7.294-42.504,7.294
	c-0.576,0-1.049,0.21-1.049,0.42c0,0.263,3.096,2.519,6.928,5.09l6.873,4.565l-3.621,2.1c-1.994,1.102-26.133,14.588-53.629,29.962
	l-50.061,27.969l-6.664,14.273l-6.717,14.325l-11.176,6.244l-11.178,6.244l-9.445-1.521l-9.445-1.574l-23.404,13.065
	c-12.855,7.137-43.604,24.295-68.268,38.097c-24.663,13.801-48.591,27.129-53.104,29.7c-4.564,2.519-8.29,4.461-8.29,4.303
	c0-0.787,4.46-12.541,4.933-13.118c0.314-0.315,6.611-3.936,13.958-8.028c7.346-4.146,30.487-17.055,51.425-28.756
	c20.937-11.649,38.147-21.411,38.306-21.619c0.158-0.263,2.729-7.295,5.771-15.639l5.51-15.218l2.361-1.312
	c1.313-0.682,24.4-13.591,51.373-28.65c26.92-15.061,49.063-27.34,49.115-27.234s0.525,3.936,0.998,8.554
	c0.471,4.565,0.943,8.396,1.049,8.501c0.053,0.104,6.664-8.238,14.693-18.524c7.975-10.284,14.482-18.785,14.324-18.891
	c-0.209-0.262-46.543,4.881-46.859,5.195c-0.104,0.105,3.096,2.729,7.137,5.878c4.041,3.095,7.348,5.824,7.348,6.034
	c0,0.157-14.588,8.448-32.377,18.418c-17.789,9.918-41.244,22.983-52.055,29.071l-19.73,11.02l-5.563,15.48
	c-3.725,10.232-5.93,15.637-6.559,16.057c-0.578,0.314-23.771,13.275-51.635,28.809c-27.864,15.531-50.9,28.545-51.215,28.965
	c-0.367,0.419-1.627,3.621-2.886,7.136c-3.831,11.02-3.516,10.442-8.449,13.224l-4.354,2.413l-2.834,7.032l-2.886,7.084
	l-6.244,3.465c-3.411,1.889-6.35,3.305-6.507,3.147c-0.158-0.158,0.472-7.295,1.416-15.848c0.893-8.553,1.732-18.838,1.784-22.826
	c0.053-3.988,0.21-7.294,0.315-7.398c0.157-0.105,1.574-0.631,3.148-1.104c1.574-0.471,4.67-1.94,6.821-3.252
	c2.151-1.26,4.355-2.361,4.88-2.361c1.417,0,5.563,2.938,8.081,5.667c4.146,4.617,3.883,2.938-4.827-31.642
	c-4.723-18.682-8.554-37.311-7.924-38.832c0.105-0.367,1.364-0.839,2.781-1.049c4.88-0.63,18.629-3.515,21.515-4.514
	c4.827-1.626,7.189-3.357,10.914-7.923c1.942-2.414,7.189-7.924,11.597-12.278l8.029-7.872l-0.893-1.363
	c-0.472-0.683-1.836-2.414-2.938-3.778l-2.046-2.467l0.839-1.837c0.525-0.996,2.047-3.357,3.517-5.247
	c1.574-2.099,2.938-4.513,3.463-6.349c0.577-1.89,1.574-3.726,2.886-5.143c3.201-3.464,2.571-5.248-0.892-2.624
	c-2.047,1.574-2.309,1.627-2.309,0.314c0-1.102,2.466-3.463,4.25-3.987c1.679-0.525,0.997-2.047-0.997-2.257
	c-1.364-0.157-2.047,0.157-3.201,1.417s-1.574,1.417-1.837,0.84c-0.366-0.997,0.945-4.041,3.148-7.399
	c1.995-2.99,2.152-3.62,0.998-4.04c-0.84-0.367-3.568,2.729-5.721,6.454c-1.679,2.991-1.836,1.574-0.314-3.358
	c1.102-3.516,1.05-4.513-0.21-4.513c-0.682,0-1.627,1.627-2.833,4.985c-0.893,2.519-2.729,9.603-2.729,10.705
	c0,0.523-0.474,1.364-1.103,1.941c-0.997,0.892-1.103,1.416-0.84,4.617c0.368,4.618,0.053,5.405-5.404,12.646
	c-6.56,8.71-7.504,9.865-8.815,10.915c-0.63,0.524-2.1,2.309-3.201,3.935c-1.154,1.68-3.411,4.304-5.143,5.93
	c-2.887,2.834-3.201,2.992-6.454,3.359c-1.89,0.209-4.513,0.366-5.878,0.314c-1.312-0.053-2.57,0.157-2.78,0.473
	c-0.158,0.262-0.84,0.524-1.522,0.524c-0.63,0-1.364,0.21-1.679,0.472c-0.84,0.735-3.254,1.155-3.621,0.578
	c-0.21-0.315-0.787-0.525-1.26-0.421c-0.524,0.105-1.521-0.104-2.203-0.419c-0.683-0.314-1.89-0.84-2.624-1.155
	c-0.84-0.314-2.046-1.731-3.096-3.463c-2.677-4.723-3.516-4.984-14.325-3.673l-2.991,0.367v-1.469c0-3.411,3.726-6.035,8.553-6.035
	c1.522,0,2.414-0.367,3.516-1.47c1.313-1.363,1.47-1.783,1.313-4.617c-0.053-1.731-0.263-3.83-0.473-4.723
	c-0.263-1.154-0.105-1.784,0.473-2.309c0.419-0.367,0.787-0.944,0.787-1.312c0-0.735-3.411-3.936-4.198-3.936
	c-0.314,0-0.524-0.578-0.524-1.26c0-0.63-0.577-2.309-1.26-3.62c-0.997-1.785-1.207-2.887-0.997-4.304
	c0.263-1.679,0.104-2.047-1.941-3.936c-3.254-3.043-5.93-3.883-10.915-3.516c-4.828,0.314-10.6,2.047-12.437,3.673
	c-0.735,0.63-2.204,2.571-3.253,4.304c-1.731,2.833-1.941,3.62-2.151,7.451c-0.262,5.143,0.42,7.556,3.883,13.538
	c2.677,4.775,2.991,5.877,1.627,6.769c-0.524,0.315-1.994,1.574-3.201,2.781c-1.784,1.784-2.676,2.257-4.093,2.257
	c-1.994,0-7.294,1.259-8.973,2.203c-0.63,0.315-2.519,0.525-4.198,0.473c-2.047-0.104-3.463,0.157-4.303,0.683
	c-1.26,0.84-2.886,4.827-2.886,7.137c0,0.787-0.578,2.309-1.312,3.357c-2.204,3.254-2.886,4.934-2.886,7.084
	c0,1.732-0.263,2.257-1.627,3.254c-1.364,0.945-1.574,1.364-1.312,2.676c0.157,0.893,0,1.994-0.42,2.677
	c-0.42,0.63-2.414,6.034-4.513,12.017c-3.726,10.705-3.778,10.967-3.621,15.322c0.21,4.198,0.315,4.617,2.361,7.504
	c2.624,3.831,10.652,20.465,12.646,26.289c1.626,4.775,1.259,4.566,5.51,3.517c1.312-0.315,1.312-0.263,1.889,3.987
	c0.368,3.044,0.84,4.566,1.417,4.985c0.525,0.42,0.997,1.68,1.155,3.044c0.262,2.047,0.472,2.361,1.679,2.519l1.364,0.157
	l0.105,19.153c0.105,15.271-0.052,19.835-0.63,22.459c-0.419,1.837-0.735,4.723-0.735,6.454c0.053,2.676-0.104,3.359-1.417,4.985
	c-0.84,1.05-1.941,2.466-2.466,3.148c-0.63,0.787-1.207,2.886-1.522,5.353c-0.262,2.203-0.787,4.46-1.102,4.984
	c-0.368,0.473-16.424,9.708-35.788,20.518c-19.311,10.811-35.21,19.835-35.263,20.098c-0.104,0.262,0.157,0.893,0.524,1.417
	c0.683,0.892,2.047,0.21,20.885-10.285c43.343-24.243,47.804-26.71,47.961-26.552c0.105,0.105-0.157,2.52-0.525,5.404
	c-0.419,2.887-0.787,5.405-0.787,5.615s-3.883,2.52-8.658,5.195c-4.775,2.623-8.658,4.984-8.658,5.143
	c0,0.209,0.315,0.84,0.735,1.364c0.629,0.892,1.102,0.733,7.923-3.044c3.988-2.256,7.346-3.936,7.503-3.777
	c0.158,0.156-0.524,4.826-1.469,10.336c-1.574,8.921-1.784,11.492-1.994,21.883c-0.21,10.6-0.105,11.859,0.734,13.485
	c0.525,0.997,1.26,1.784,1.627,1.784c0.42,0,0.682,0.734,0.682,1.941c0,3.254,0.525,4.303,2.833,5.668
	c6.035,3.463,18.156,4.197,18.156,1.102c0-0.42-1.364-3.516-3.096-6.927c-1.68-3.464-3.201-6.769-3.411-7.347
	c-0.315-1.102,3.043-8.711,5.93-13.538c1.941-3.2,2.414-5.247,6.717-29.438c0.472-2.623,1.049-4.932,1.259-5.194
	c0.735-0.839,1.103,6.349,0.525,10.022c-1.417,8.711-1.994,22.617-1.313,29.49c0.42,3.778,0.683,3.936,6.927,3.988
	c3.148,0,3.936-0.158,4.355-0.945c0.787-1.311,2.729-1.102,6.192,0.684c4.565,2.361,9.655,3.305,16.844,2.99
	c6.192-0.209,9.025-0.996,9.288-2.466c0.263-1.417-0.63-2.047-4.04-2.834c-7.032-1.626-13.014-3.987-14.273-5.614
	c-1.784-2.361-4.723-5.354-6.192-6.297l-1.312-0.893l1.103-0.944c0.892-0.787,1.312-2.204,1.993-6.769
	c0.473-3.201,0.84-7.609,0.84-9.866s0.367-5.562,0.787-7.347c0.473-1.783,1.26-6.297,1.784-9.97s1.154-6.927,1.417-7.188
	s13.644-7.818,29.753-16.791l29.333-16.373l4.407,0.525l4.461,0.524l25.292-14.168c13.906-7.767,37.939-21.2,53.419-29.858
	l28.178-15.689l5.826,0.682c3.199,0.42,5.93,0.84,6.033,0.945c0.158,0.105-4.775,3.043-10.861,6.454
	c-6.141,3.411-27.234,15.165-46.859,26.132l-35.787,19.993l-6.664,14.325c-3.726,7.924-6.979,14.588-7.295,14.85
	c-0.314,0.263-10.39,5.982-22.354,12.646c-11.964,6.717-21.882,12.279-21.987,12.332c-0.052,0.104,0.158,0.682,0.578,1.26
	c0.734,0.996,1.521,0.576,23.298-11.545c12.385-6.927,22.722-12.803,22.932-13.066c0.263-0.209,3.464-6.874,7.137-14.692
	l6.664-14.325l35.157-19.625c19.312-10.811,41.087-22.932,48.329-27.024l13.275-7.347l6.928,0.787l6.926,0.84l27.234-15.218
	c15.008-8.343,27.338-15.112,27.391-15.061c0.367,0.421,0.787,6.507,0.787,11.44v5.51l2.256-2.361
	c4.672-4.985,29.807-33.689,29.648-33.846c-0.105-0.053-6.768,0.996-14.85,2.413s-18.209,3.2-22.564,3.936
	c-4.303,0.735-8.291,1.47-8.867,1.626c-0.734,0.211,0.629,1.313,5.404,4.514c3.516,2.309,6.191,4.407,5.982,4.617
	c-0.211,0.211-12.121,6.875-26.395,14.851l-25.975,14.535l-3.674-0.314c-5.824-0.524-5.982-0.63-2.781-2.519l2.729-1.68
	l6.664-14.168l6.613-14.168l26.445-14.798c14.535-8.134,26.5-14.692,26.658-14.587c0.104,0.156,0.367,3.619,0.523,7.713l0.316,7.504
	l15.898-17.946c8.711-9.865,15.848-18.052,15.848-18.156c0-0.157-1.732,0.104-3.777,0.473c-2.1,0.419-4.305,0.734-4.881,0.734
	c-0.893,0,44.236-25.607,45.652-25.869c0.262-0.054,0.734,3.777,1.102,8.973c0.367,4.984,0.734,9.34,0.84,9.654
	c0.158,0.473,32.43-37.676,32.848-38.83c0.053-0.21-11.02,1.207-24.662,3.148s-25.135,3.568-25.502,3.568
	c-1.207,0-0.209,0.892,6.717,5.824c3.777,2.677,6.717,4.933,6.611,5.038c-0.104,0.104-12.383,7.031-27.287,15.375l-27.023,15.112
	l-12.752,2.204c-7.031,1.207-13.275,2.361-13.957,2.519c-1.049,0.314-0.682,0.682,3.043,3.2l4.199,2.834l-1.471,0.893
	c-0.787,0.473-9.393,5.3-19.152,10.758l-17.789,9.864l-5.195-0.682c-2.885-0.368-5.352-0.841-5.457-0.997
	C645.156,468.858,649.512,466.287,654.969,463.244z M501.482,385.267c1.207-2.991,1.417-1.837,0.263,1.521
	c-1.26,3.517-1.416,7.714-0.314,7.714c0.367,0,1.313-1.26,2.1-2.781c0.734-1.521,2.203-3.726,3.2-4.88l1.837-2.046l-1.574,2.466
	c-0.893,1.364-2.099,3.673-2.729,5.09c-0.577,1.47-1.365,2.677-1.68,2.677s-1.469,0.472-2.571,1.049
	c-1.05,0.577-1.941,0.997-1.941,0.944C498.072,396.339,500.854,386.737,501.482,385.267z M391.287,497.142l-0.367,2.886l-2.886,1.26
	c-1.574,0.734-3.096,1.207-3.306,1.05c-0.262-0.157-0.63-1.05-0.787-1.995c-0.525-2.203-1.679-4.512-3.148-6.139
	c-0.63-0.734-1.312-2.309-1.522-3.516c-0.314-1.994-0.209-2.204,1.417-3.148c1.469-0.893,1.941-1.836,3.778-7.137
	c1.154-3.358,2.204-6.139,2.361-6.139s0.84,1.049,1.521,2.361C390.71,481.085,392.127,490.74,391.287,497.142z M408.289,616.678
	c-0.315,1.889-0.683,3.463-0.84,3.463c-0.367,0,0.315-6.35,0.735-6.979C408.813,612.113,408.866,613.424,408.289,616.678z
	 M411.805,597.473c-0.157,0.262-0.63,2.781-1.154,5.667c-0.473,2.833-1.05,5.405-1.312,5.72c-0.629,0.682-0.578-0.053,0.262-4.303
	c0.42-1.941,0.893-4.461,1.05-5.563c0.21-1.05,0.577-1.941,0.892-1.941S411.962,597.262,411.805,597.473z M424.031,556.123
	c-3.621,10.021-9.97,30.33-10.705,34.266c-0.209,1.049-0.577,2.099-0.839,2.256c-0.682,0.42-0.682,0.42,1.942-9.131
	c2.046-7.504,11.544-35.787,12.594-37.414C428.124,544.317,427.284,547.098,424.031,556.123z M455.568,564.99
	c1.679-4.145,2.256-4.932,3.987-5.93c1.154-0.629,2.1-1.049,2.204-0.839c0.053,0.157-0.577,2.151-1.417,4.46
	c-1.364,3.727-1.783,4.355-3.777,5.615c-1.26,0.734-2.467,1.416-2.624,1.416C453.731,569.766,454.466,567.615,455.568,564.99z
	 M434.894,586.138l0.314-2.624l5.615-3.148c3.043-1.731,5.719-3.148,5.93-3.201c0.209-0.052-0.263,1.47-1.05,3.359
	c-1.417,3.306-1.47,3.41-6.14,5.981c-2.571,1.417-4.775,2.519-4.88,2.467C434.578,588.866,434.684,587.608,434.894,586.138z
	 M433.791,594.009c0.157-0.787,0.525-1.47,0.683-1.574c0.21-0.052,1.889-1.05,3.778-2.151c1.889-1.154,3.567-2.099,3.778-2.099
	c0.209-0.053,0.157,0.577-0.158,1.417c-0.367,0.996-1.627,2.046-4.46,3.62l-3.988,2.257L433.791,594.009z M459.031,591.176
	c-14.588,8.133-26.657,14.797-26.814,14.797c-0.314,0,0.315-4.67,0.787-6.033c0.263-0.578,2.677-2.31,5.667-3.936l5.248-2.887
	l1.627-3.936l1.627-3.936l10.074-5.615c5.563-3.096,10.442-5.667,10.81-5.667c0.42,0,4.198,0.367,8.396,0.839
	c4.251,0.473,8.028,1.051,8.396,1.207C485.216,576.221,474.826,582.36,459.031,591.176z M490.62,573.544l-11.648-1.312
	l-11.597-1.313l-8.868,4.985c-4.828,2.729-8.921,4.827-9.025,4.723c-0.158-0.104,0.262-1.521,0.892-3.148
	c1.103-2.886,1.26-3.044,6.035-5.72l4.933-2.781l2.413-6.664c1.365-3.673,2.729-6.926,3.044-7.189
	c0.682-0.523,116.335-65.172,119.956-67.009c1.311-0.683,9.445-5.247,18.104-10.128c8.658-4.88,16.318-8.92,17.053-8.92
	c0.736-0.053,3.988,0.367,7.242,0.839c3.201,0.524,5.877,1.05,5.877,1.208c0,0.156-17.893,10.232-39.775,22.459l-39.723,22.144
	l-6.769,14.588l-6.77,14.535l-25.712,14.325L490.62,573.544z M647.938,472.951l7.977,1.313l20.623-11.545l20.621-11.492l1.418,0.84
	l1.469,0.892l-1.416,0.841c-0.787,0.471-13.119,7.398-27.445,15.374l-26.027,14.536l-6.664,14.324l-6.664,14.273l-4.039,2.256
	l-4.041,2.257l-8.764-0.944l-8.711-0.997l-53.313,29.806c-51.582,28.809-55.675,30.959-56.672,29.332
	c-0.158-0.262,10.39-6.401,23.456-13.695c13.013-7.241,23.98-13.485,24.348-13.801c0.314-0.367,3.568-7.031,7.241-14.85
	c5.143-11.072,6.927-14.378,8.028-15.008c0.787-0.473,19.207-10.758,40.982-22.932l39.566-22.091L647.938,472.951z"/>
</svg>
