<?xml version="1.0" encoding="utf-8"?>
<!-- Generator: Adobe Illustrator 16.0.0, SVG Export Plug-In . SVG Version: 6.00 Build 0)  -->
<!DOCTYPE svg PUBLIC "-//W3C//DTD SVG 1.1//EN" "http://www.w3.org/Graphics/SVG/1.1/DTD/svg11.dtd">
<svg version="1.1" id="Warstwa_1" xmlns="http://www.w3.org/2000/svg" xmlns:xlink="http://www.w3.org/1999/xlink" x="0px" y="0px"
	 width="130.988px" height="43px" viewBox="455.006 459 130.988 43" enable-background="new 455.006 459 130.988 43"
	 xml:space="preserve">
<g id="big-hexagon">
	<path fill="#FFFFFF" stroke="#36323E" stroke-width="6" stroke-miterlimit="10" d="M528.161,496.651h-15.323
		c-0.943,0-2.107-0.666-2.584-1.479l-7.64-13.011c-0.479-0.814-0.479-2.146,0-2.959l7.64-13.011c0.478-0.814,1.641-1.48,2.584-1.48
		h15.323c0.944,0,2.107,0.666,2.585,1.48l7.64,13.011c0.478,0.814,0.478,2.146,0,2.959l-7.64,13.011
		C530.268,495.985,529.105,496.651,528.161,496.651L528.161,496.651z"/>
	<path fill="#FFFFFF" stroke="#36323E" stroke-width="6" stroke-miterlimit="10" d="M528.161,496.651h-15.323
		c-0.943,0-2.107-0.666-2.584-1.479l-7.64-13.011c-0.479-0.814-0.479-2.146,0-2.959l7.64-13.011c0.478-0.814,1.641-1.48,2.584-1.48
		h15.323c0.944,0,2.107,0.666,2.585,1.48l7.64,13.011c0.478,0.814,0.478,2.146,0,2.959l-7.64,13.011
		C530.268,495.985,529.105,496.651,528.161,496.651L528.161,496.651z"/>
</g>
<g id="big-hexagon_1_">
	<path fill="#36323E" d="M468.503,489.251h-7.983c-0.492,0-1.097-0.347-1.346-0.771l-3.98-6.779c-0.249-0.424-0.249-1.118,0-1.541
		l3.98-6.779c0.249-0.424,0.854-0.771,1.346-0.771h7.983c0.492,0,1.098,0.347,1.347,0.771l3.98,6.779
		c0.249,0.424,0.249,1.117,0,1.541l-3.98,6.779C469.601,488.904,468.995,489.251,468.503,489.251L468.503,489.251z"/>
	<path fill="#36323E" d="M468.503,489.251h-7.983c-0.492,0-1.097-0.347-1.346-0.771l-3.98-6.779c-0.249-0.424-0.249-1.118,0-1.541
		l3.98-6.779c0.249-0.424,0.854-0.771,1.346-0.771h7.983c0.492,0,1.098,0.347,1.347,0.771l3.98,6.779
		c0.249,0.424,0.249,1.117,0,1.541l-3.98,6.779C469.601,488.904,468.995,489.251,468.503,489.251L468.503,489.251z"/>
</g>
<g id="big-hexagon_2_">
	<path fill="#36323E" stroke="#36323E" stroke-miterlimit="10" d="M580.479,489.251h-7.982c-0.492,0-1.098-0.347-1.347-0.771
		l-3.98-6.779c-0.248-0.424-0.248-1.118,0-1.541l3.98-6.779c0.249-0.424,0.854-0.771,1.347-0.771h7.982
		c0.491,0,1.099,0.347,1.347,0.771l3.981,6.779c0.249,0.424,0.249,1.117,0,1.541l-3.981,6.779
		C581.578,488.904,580.971,489.251,580.479,489.251L580.479,489.251z"/>
	<path fill="#36323E" stroke="#36323E" stroke-miterlimit="10" d="M580.479,489.251h-7.982c-0.492,0-1.098-0.347-1.347-0.771
		l-3.98-6.779c-0.248-0.424-0.248-1.118,0-1.541l3.98-6.779c0.249-0.424,0.854-0.771,1.347-0.771h7.982
		c0.491,0,1.099,0.347,1.347,0.771l3.981,6.779c0.249,0.424,0.249,1.117,0,1.541l-3.981,6.779
		C581.578,488.904,580.971,489.251,580.479,489.251L580.479,489.251z"/>
</g>
</svg>
