<?xml version="1.0" encoding="utf-8"?>
<!-- Generator: Adobe Illustrator 16.0.0, SVG Export Plug-In . SVG Version: 6.00 Build 0)  -->
<!DOCTYPE svg PUBLIC "-//W3C//DTD SVG 1.1//EN" "http://www.w3.org/Graphics/SVG/1.1/DTD/svg11.dtd">
<svg version="1.1" id="Warstwa_1" xmlns="http://www.w3.org/2000/svg" xmlns:xlink="http://www.w3.org/1999/xlink" x="0px" y="0px"
	 width="114.455px" height="182.15px" viewBox="0 0 114.455 182.15" enable-background="new 0 0 114.455 182.15"
	 xml:space="preserve">
<path opacity="0.35" fill="none" stroke="#000000" stroke-width="6" stroke-miterlimit="10" d="M78.047,12.97
	c2.564,0,5.725,1.811,7.023,4.02l20.764,35.359c1.299,2.211,1.299,5.83,0,8.041L85.07,95.75c-1.299,2.21-4.459,4.021-7.023,4.021
	H36.406c-2.565,0-5.726-1.811-7.024-4.021L8.62,60.39c-1.299-2.211-1.298-5.83,0-8.041l20.762-35.359
	c1.299-2.209,4.459-4.02,7.024-4.02H78.047L78.047,12.97z"/>
<path fill-rule="evenodd" clip-rule="evenodd" fill="#FFFFFF" d="M87.998,16.722l0.225-0.008l0.081,0.209
	C87.994,17.169,87.945,17.021,87.998,16.722z"/>
<path opacity="0.4" fill="#29235C" d="M72.831,109.495c1.923,0,4.29,1.356,5.265,3.012l15.562,26.502
	c0.974,1.656,0.974,4.369,0,6.026l-15.562,26.502c-0.975,1.656-3.342,3.013-5.265,3.013H41.622c-1.923,0-4.291-1.356-5.265-3.013
	l-15.561-26.502c-0.974-1.657-0.973-4.37,0-6.026l15.561-26.502c0.974-1.655,3.342-3.012,5.265-3.012H72.831L72.831,109.495z"/>
<g>
</g>
<g>
</g>
<g>
</g>
<g>
</g>
<g>
</g>
<g>
</g>
</svg>
