<?xml version="1.0" encoding="utf-8"?>
<!-- Generator: Adobe Illustrator 16.0.0, SVG Export Plug-In . SVG Version: 6.00 Build 0)  -->
<!DOCTYPE svg PUBLIC "-//W3C//DTD SVG 1.1//EN" "http://www.w3.org/Graphics/SVG/1.1/DTD/svg11.dtd">
<svg version="1.1" id="Warstwa_1" xmlns="http://www.w3.org/2000/svg" xmlns:xlink="http://www.w3.org/1999/xlink" x="0px" y="0px"
	 width="545px" height="123.107px" viewBox="0 0 545 123.107" enable-background="new 0 0 545 123.107" xml:space="preserve">
<g>
	<path fill="#343045" d="M503.555,115.43c-3.523,4.222-10.907,7.677-16.407,7.677H56.791c-5.5,0-12.855-3.479-16.344-7.729
		L2.617,69.285c-3.489-4.252-3.489-11.208,0-15.46L40.447,7.73C43.936,3.479,51.291,0,56.791,0h430.354
		c5.5,0,12.885,3.455,16.407,7.678l38.562,46.199c3.522,4.224,3.522,11.132-0.001,15.354L503.555,115.43z"/>
</g>
<g>
	<path fill="#343045" d="M493.254,102.892c-3.662,4.104-11.158,7.461-16.658,7.461H151.099c-5.5,0-14.5,0-20,0H67.331
		c-5.5,0-12.963-3.388-16.583-7.527L21.23,69.081c-3.621-4.141-3.621-10.915,0-15.054l29.518-33.749
		c3.621-4.14,11.083-7.527,16.583-7.527h69.024c5.5,0,14.5,0,20,0h320.24c5.5,0,12.996,3.357,16.658,7.461l30.234,33.879
		c3.662,4.104,3.662,10.818,0,14.923L493.254,102.892z"/>
	<path fill="none" stroke="#FFFFFF" stroke-width="4" stroke-miterlimit="10" d="M494.254,102.892
		c-3.662,4.104-11.158,7.461-16.658,7.461H151.099c-5.5,0-14.5,0-20,0H66.331c-5.5,0-12.963-3.388-16.583-7.527L20.23,69.081
		c-3.621-4.141-3.621-10.915,0-15.054l29.518-33.749c3.621-4.14,11.083-7.527,16.583-7.527h70.024c5.5,0,14.5,0,20,0h321.24
		c5.5,0,12.996,3.357,16.658,7.461l30.234,33.879c3.662,4.104,3.662,10.818,0,14.923L494.254,102.892z"/>
</g>
</svg>
